<svg version="1.1" id="Lag_1" xmlns="http://www.w3.org/2000/svg" x="0" y="0" viewBox="0 0 1600 1200" xml:space="preserve"><style>.st0{fill:#fff}.st1{fill:#dcd6e3}.st2{fill-rule:evenodd;clip-rule:evenodd;fill:#f2b164}.st4{fill:#3b1b6a}.st5{fill:#db5d60}.st5,.st6,.st7{fill-rule:evenodd;clip-rule:evenodd}.st6{fill:#7c76bb}.st7{fill:#2e3640}</style><g transform="translate(201 155)" id="Search"><g id="Background" transform="translate(87.341 114.146)"><g id="Element" transform="translate(531.683)"><path id="Shape" class="st0" d="M366.9 98.1H22.3c-10.9 0-19.7-8.8-19.7-19.7V22.8c0-10.9 8.8-19.7 19.7-19.7h344.6c10.9 0 19.7 8.8 19.7 19.7v55.6c0 10.9-8.8 19.7-19.7 19.7z"/><path id="Shape_1_" class="st1" d="M367.2.9c11.3.2 21.4 9.8 21.6 21.6.1 18.7.1 37.4 0 56.1-.2 11.3-9.8 21.4-21.6 21.6-115 .7-230.1.7-345.1 0C10.8 100 .7 90.2.5 78.6.3 60 .3 41.2.4 22.5.6 11.2 10.2 1.1 22.1.9c115-.7 230-.7 345.1 0zM22.4 5.3C13.2 5.3 5 13.1 4.8 22.6c-.1 18.7-.1 37.4 0 56 .2 9 7.8 17.1 17.3 17.3 115 .7 230 .7 345 0 9-.2 17.1-7.8 17.3-17.3.1-18.7.1-37.4 0-56-.2-9.1-8-17.1-17.3-17.3-114.9-.8-229.8 0-344.7 0z"/><path id="Shape_2_" class="st0" d="M314.7 31.2h21.6"/><path id="Shape_3_" class="st1" d="M336.5 29c1.6.2 1.6.6 1.9 1.3.6 1.3-.5 3-2 3.1h-21.6c-1.6 0-1.6-.5-2-1.2-.7-1.3.3-3.1 2-3.2 7.2 0 14.4-.3 21.7 0z"/><path id="Shape_4_" class="st0" d="M45.4 31.2h252.1"/><path id="Shape_5_" class="st1" d="M297.9 29c2 .7 2.4 4-.5 4.3h-252c-2.3-.2-2.9-4.1 0-4.4h252.1c.1.1.3.1.4.1z"/><path id="Shape_6_" class="st0" d="M226.2 50.6h110.1"/><path id="Shape_7_" class="st1" d="M336.6 48.4c2.3.5 2.3 4.2-.3 4.4H226.2c-2.3-.2-3.3-4.2 0-4.4h110.4z"/><path id="Shape_8_" class="st0" d="M45.4 50.6h118.1"/><path id="Shape_9_" class="st1" d="M163.8 48.4c2.1.5 2.8 4.1-.3 4.4H45.4c-2.3-.2-2.9-4.2 0-4.4h118.4z"/><path id="Shape_10_" class="st0" d="M45.4 69.7H291"/><path id="Shape_11_" class="st1" d="M291.4 67.5c2.1.7 2.3 4.1-.5 4.3H45.4c-2.4-.2-2.7-4.1 0-4.4H291c.1.1.3.1.4.1z"/></g><g id="Element_1_" transform="translate(0 546.317)"><path id="Shape_12_" class="st0" d="M366.6 98.3H22c-10.9 0-19.7-8.8-19.7-19.7V22.9C2.3 12 11.1 3.2 22 3.2h344.6c10.9 0 19.7 8.8 19.7 19.7v55.6c0 10.9-8.8 19.8-19.7 19.8z"/><path id="Shape_13_" class="st1" d="M366.8 1c11.3.2 21.4 9.8 21.6 21.6.1 18.7.1 37.4 0 56.1-.2 11.3-9.8 21.4-21.6 21.6-115 .7-230.1.7-345.1 0C10.4 100.1.3 90.5.1 78.7 0 60.1 0 41.4.1 22.7.3 11.4 9.9 1.2 21.7 1 136.8.3 251.8.3 366.8 1zM22 5.4c-9.1.1-17.3 7.9-17.5 17.3-.1 18.7-.1 37.4 0 56 .2 9 8 17.1 17.3 17.3 115 .7 230 .7 345 0 9-.2 17.1-7.8 17.3-17.3.1-18.7.1-37.4 0-56-.2-9-8-17.1-17.3-17.3-114.9-.7-229.9 0-344.8 0z"/><path id="Shape_14_" class="st0" d="M87.4 50.7c0 14.8-12 26.7-26.7 26.7-14.8 0-26.7-12-26.7-26.7C33.9 36 45.9 24 60.7 24c14.7 0 26.7 12 26.7 26.7"/><path id="Shape_15_" class="st1" d="M61 21.8c16.4.3 30.6 16.3 28.3 32.9-1.9 13.6-14.8 24.9-28.6 24.9-16.7 0-31.5-16.9-28.5-34 2.3-13 14.4-23.5 28.1-23.8h.7zm-.7 4.4c-16.1.3-29.3 19.4-21.7 35.2C44 72.5 58.5 78.2 70 73.5c12.5-5.1 19-21.7 12.4-34.1-4.1-7.8-12.5-13-21.4-13.2h-.7z"/><path id="Shape_16_" class="st0" d="M301.5 30.1h21.6"/><path id="Shape_17_" class="st1" d="M323.2 27.9c2 .2 1.9.8 2.1 2 .1 1.2-.9 2.4-2.2 2.4h-21.6c-2.3-.1-3.1-4.3 0-4.4 7.2 0 14.5-.2 21.7 0z"/><path id="Shape_18_" class="st0" d="M115 30.1h169.2"/><path id="Shape_19_" class="st1" d="M284.6 27.9c2.1.6 2.3 4.1-.4 4.4H115c-2.4-.2-2.8-4.1 0-4.4h169.6z"/><path id="Shape_20_" class="st0" d="M212.9 49.5H323"/><path id="Shape_21_" class="st1" d="M323.4 47.3c2.2.5 2.4 4.2-.3 4.4H212.9c-1-.1-1.2-.3-1.6-.7-1.1-1.2-.3-3.6 1.6-3.7h110.5z"/><path id="Shape_22_" class="st0" d="M115 49.5h79.3"/><path id="Shape_23_" class="st1" d="M194.5 47.3c2.2.4 2.8 4.2-.3 4.4H115c-2.3-.1-3.2-4.2 0-4.4h79.5z"/><path id="Shape_24_" class="st0" d="M115 68.6h130.3"/><path id="Shape_25_" class="st1" d="M245.6 66.4c2.2.5 2.3 4.2-.3 4.4H115c-2.3-.2-2.9-4.2 0-4.4h130.6z"/></g></g><g id="Element_6_" transform="translate(85.707)"><g id="Shape_52_"><path class="st2" d="M691.9 47.5v19.8H3.9V47.5C3.9 23.9 23 4.8 46.6 4.8h602.7c23.5 0 42.6 19.1 42.6 42.7z" transform="translate(62.098 49.756)"/><path d="M691.9 47.5v19.8H3.9V47.5C3.9 23.9 23 4.8 46.6 4.8h602.7c23.5 0 42.6 19.1 42.6 42.7z" fill="#db5d60" fill-opacity=".3" transform="translate(62.098 49.756)"/><path class="st4" d="M649.6 1.2c24.1.2 45.9 21.3 46 46.3v19.8c-.5 2.4-1.5 2.8-2.3 3.4l-1.4.3H3.9l-1.4-.3-1.2-.8-.8-1.2-.3-1.4c0-12.1-1.3-24.1 2.6-35.2C9.2 14.3 27 1.4 46.3 1.2c201.1-.6 402.2-.6 603.3 0zm-603 7.3c-20.3.1-39 17.6-39 39v16.1h680.7c0-10.1 1-20.2-2.3-29.3-5.3-14.8-20.1-25.6-36.2-25.8-201.1-1.9-402.1 0-603.2 0z" transform="translate(62.098 49.756)"/><path class="st0" d="M3.9 159.5V67.3h688v477.8c0 26.2-21.2 47.4-47.4 47.4H51.3c-26.2 0-47.4-21.2-47.4-47.4V192.4" transform="translate(62.098 49.756)"/><path class="st4" d="M693.3 63.9c2 1.3 2.1 2.4 2.3 3.4 0 159.4.5 318.8 0 478.2-.3 26.3-22.8 50.4-50.7 50.7-198 .6-396 .6-594 0-26.4-.3-50.6-23.1-50.7-51V192.4c.3-1.4.3-1.4 1.1-2.6l1.2-.8c1.4-.3 1.4-.3 2.8 0l1.2.8c.8 1.2.8 1.2 1.1 2.6 0 117.7-.4 235.3 0 353 .2 22.4 19.2 43 43.1 43.4 198 1.9 396.1.6 594.1 0 22.7-.2 43.3-20 43.4-43.7V70.9H7.6v88.6c-.3 1.4-.3 1.4-1.1 2.6l-1.2.8-1.4.3-1.4-.3-1.2-.8-.8-1.2-.3-1.4V67.3c.3-1.4.3-1.4 1.1-2.6l1.2-.8 1.4-.3h688c.5.1 1 .2 1.4.3z" transform="translate(62.098 49.756)"/><path class="st0" d="M77.2 39.7c0 5.2-4.2 9.4-9.4 9.4s-9.4-4.2-9.4-9.4 4.2-9.4 9.4-9.4c5.3 0 9.4 4.2 9.4 9.4m96.8 0c0 5.2-4.2 9.4-9.4 9.4s-9.4-4.2-9.4-9.4 4.2-9.4 9.4-9.4 9.4 4.2 9.4 9.4m-48.4 0c0 5.2-4.2 9.4-9.4 9.4s-9.4-4.2-9.4-9.4 4.2-9.4 9.4-9.4 9.4 4.2 9.4 9.4" transform="translate(62.098 49.756)"/><path class="st4" d="M30.8 549.1c2.3.2 1.8 3.7 2.7 6.2 1.6 4.5 6.1 7.5 11 7.6 0 0 4 2.5.9 4.1-5.6 3-17-5.3-17-15.7.1 0 .3-2.3 2.4-2.2z" transform="translate(62.098 49.756)"/></g><g id="Globe-web"><path class="st0" d="M267.3 135.5c0 36.4-14.7 69.4-38.5 93.3-3.9 3.9-8 7.6-12.3 11-22.5 17.7-51 28.3-81.8 28.3-30.9 0-59.3-10.6-81.8-28.3-4.3-3.4-8.4-7.1-12.3-11-23.8-24-38.4-56.9-38.4-93.3s14.7-69.4 38.4-93.3c3.9-3.9 8-7.6 12.3-11C75.4 13.5 103.9 3 134.7 3c30.9 0 59.3 10.6 81.8 28.3 4.3 3.4 8.4 7.1 12.3 11 23.8 23.9 38.5 56.8 38.5 93.2" transform="translate(275.293 147.341)"/><path class="st1" d="M135.5.8c50.8.4 99.8 31.5 121.4 77.7 24.9 53.2 10.8 122.1-36.5 161.1-38.3 31.6-94.7 39.6-140.7 19-39.2-17.6-69-55-77.2-97.2-8.5-43.6 5.7-90.6 38-122.2 24.4-24 58-37.9 92.7-38.4h2.3zM134 5.2c-39.4.3-78.1 19-102.6 50.8-29.2 37.9-35 92.3-14.5 135.4 20.9 44 67.8 74.2 117.1 74.5 49.9.3 98.5-30.2 119.5-76.6 21.8-48.1 11.1-108.9-27.7-147-23.7-23.2-56.6-36.7-89.7-37.2-.7.1-1.4.1-2.1.1z" transform="translate(275.293 147.341)"/><path class="st0" d="M134.7 3v265.1" transform="translate(275.293 147.341)"/><path class="st1" d="M135.4.9c.9.4 1.4 1.1 1.5 2.1v265.1c-.3 2.4-4.1 2.8-4.4 0V3c.3-2.2.9-2.6 2.9-2.1z" transform="translate(275.293 147.341)"/><path class="st0" d="M2.2 135.5h265.1" transform="translate(275.293 147.341)"/><path class="st1" d="M267.8 133.4c2.1.7 2.3 4.1-.5 4.3H2.2c-2.4-.3-2.8-4.1 0-4.4h265.1c.2.1.3.1.5.1z" transform="translate(275.293 147.341)"/><path class="st1" d="M135.1 1.3c20.1.3 37.1 16.7 47 32.7 9.7 15.6 15.8 33.4 19.7 51.2 0 0 .5 1.7-.6 2.7-1.1 1-3.1.5-3.6-1.2-5.3-24.7-14.1-49.8-33-67.7-9.3-8.8-22-14.8-34.9-13-16.1 2.3-29.1 15.3-38.2 29.8-25 39.9-28.8 91.4-21.6 137.1 4.6 28.9 13.6 58.9 35.3 79.4 9.3 8.7 22.1 14.7 35.1 12.7 15.9-2.5 28.8-15.3 37.8-29.7 15.6-24.9 22.2-54.9 24-84.7.9-14.9.5-29.8-1.3-44.6 0 0 .1-1.7 1.3-2.3 3.3-1.5 3.8 7 4.3 13.7 3.3 46-2.7 95.2-32.1 130.8-1 1.2-1.9 2.3-3 3.4-11 11.9-27.3 20.7-44 17.5-18.1-3.5-32.4-18.9-42-35.8-21.3-37.4-26-82.9-21-126.2C67.9 75.8 76 44.2 98 19.9c9.1-10.2 21.7-18.3 36-18.6h1.1z" transform="translate(275.293 147.341)"/><path class="st1" d="M135.5.8c34.9.2 69.5 14.5 94.2 39.1 3.6 3.6-1.7 5.6-5.7 7.7-27.8 14.9-60.8 18.6-93 18.2-26.9-.4-54.1-3.9-78.7-14.9-4.6-2-9.6-3.7-13.2-7.2-2-1.9 2.3-5.6 5.6-8.6 24.1-21.6 55.6-34 88.5-34.5.8.2 1.5.2 2.3.2zM134 5.2c-33.2.3-65.7 13.4-89.7 36.4l-.2.2c26.1 15.5 58 19.4 88.8 19.6 31.8.2 64.6-3.1 92.5-19.6C201.8 19 168.9 5.6 136.1 5.2H134zm1.7 200c31.6.2 64.5 4.1 91.4 20 .3.2.7.4 1 .6 2.2 1.3 5 2 1.2 5.7-38.1 37.5-99.1 49.1-148.4 27.6-15.5-6.7-29.6-16.4-41.5-28.3-1.1-1.1-.7-3.3 1-4.4 14.7-9.3 31.7-14.1 48.8-17.2 15.3-2.8 30.9-4 46.5-4zm-1.9 4.4c-31.3.2-63.7 4.2-89.7 19.7C81 265 140 275.8 187.4 254.8c13.9-6.2 26.7-14.8 37.7-25.4l.2-.2c-26.9-16-60.8-19.7-91.5-19.6z" transform="translate(275.293 147.341)"/></g><path class="st1" d="M38.1 34.5c2 .2 2.9 3.6.4 4.3-4.6 1.1-9.2 1.9-13.9 2.8-2.1.4-4-3.4-1-4.3 4.6-1.1 9.2-1.9 13.9-2.8h.6zM6.3 1.3c1.3.1 2.3 1.3 2 2.6-1 4.3-2.1 8.6-3.2 12.9-.6 2.1-4.8 2.1-4.3-1C1.8 11.5 3 7.2 4 3c.3-1 1-1.7 2.3-1.7zM25 14.1c1.7.1 2.8 2.4 1.5 3.7-3.4 3.4-7 6.6-10.5 9.9-1.6 1.4-5.3-.8-3.1-3.1 3.4-3.4 7-6.6 10.5-9.9.5-.4.8-.6 1.6-.6z" transform="translate(749.268 14.634)" id="Shape_54_"/><path class="st4" d="M99.5.8c2.2.5 2.3 4.2-.3 4.4H54.5C28.8 5.4 5.1 27.6 5.1 54.9v78.9c-.2 2.3-4.2 2.7-4.4 0 0-26.4-.1-52.8 0-79.2C.9 26.3 25.2.8 54.8.7h44.4c.1 0 .2 0 .3.1zM3 146.9c1.1.1 1.9 1 2 2.1.1 5.3 0 10.5 0 15.8-.1 2.3-4.2 2.8-4.4.1-.1-5.3 0-10.5 0-15.8.1-1.3.9-2.3 2.4-2.2z" id="Shape_55_"/></g><g id="Element_7_" transform="translate(235.146 180)"><path id="Shape_56_" class="st0" d="M732.1 107.8v495.6c0 27.1-22 49.1-49.1 49.1H67.6c-27.1 0-49.1-22-49.1-49.1V107.8h713.6z"/><path id="Shape_57_" class="st4" d="M733.5 104.4c.8.5 1.8 1 2.3 3.4 0 165.3.5 330.6 0 495.9-.3 27.2-23.5 52.2-52.4 52.4-205.4.6-410.7.6-616.1 0-27.5-.3-52.3-23.9-52.4-52.8V107.8l.3-1.4.8-1.2 1.2-.8 1.4-.3h713.6c.3.1.8.2 1.3.3zm-711.4 7c0 164.1-.5 328.2 0 492.2.2 23.2 20.2 44.9 45.2 45.2 205.3.6 410.6.6 616 0 23.6-.2 45.1-20.6 45.2-45.5V111.4H22.1z"/><path id="Shape_58_" class="st5" d="M732.1 87.3v20.5H18.5V87.3C18.5 62.8 38.3 43 62.7 43h625.1c24.5 0 44.3 19.8 44.3 44.3z"/><path id="Shape_59_" class="st4" d="M688.1 39.3c24.8.2 47.5 21.7 47.6 47.9v20.5c-.5 2.4-1.5 2.8-2.3 3.4l-1.4.3H18.5l-1.4-.3c-1.2-.8-1.2-.8-2-2l-.3-1.4c0-12.7-1.3-25.4 2.9-37 6.6-18.1 24.8-31.2 44.7-31.4 208.6-.6 417.2-.6 625.7 0zM62.7 46.7c-21.2.1-40.5 18.6-40.6 40.6v16.8h706.3c0-10.5 1.1-21-2.4-30.6-5.5-15.4-21-26.6-37.7-26.9-208.5-1.9-417 .1-625.6.1z"/><path id="Shape_60_" class="st0" d="M94.5 79.2c0 5.4-4.3 9.7-9.7 9.7-5.4 0-9.7-4.3-9.7-9.7 0-5.4 4.3-9.7 9.7-9.7 5.4 0 9.7 4.3 9.7 9.7"/><path id="Shape_61_" class="st0" d="M194.8 79.2c0 5.4-4.3 9.7-9.7 9.7s-9.7-4.3-9.7-9.7c0-5.4 4.3-9.7 9.7-9.7s9.7 4.3 9.7 9.7"/><path id="Shape_62_" class="st0" d="M144.7 79.2c0 5.4-4.3 9.7-9.7 9.7s-9.7-4.3-9.7-9.7c0-5.4 4.3-9.7 9.7-9.7s9.7 4.3 9.7 9.7"/><path id="Shape_63_" class="st4" d="M692 66c8.6.2 16.2 7.5 16.3 16.3 0 2.4-4.3 3.8-4.4-.3-.3-6.2-5.7-11.6-12.1-11.7 0 0-1.1-.1-1.7-.9-1.1-1.2-.2-3.4 1.9-3.4z"/><path id="Shape_64_" class="st0" d="M552.5 328.7c0 8.2-3.3 15.6-8.7 21-5.4 5.4-12.8 8.7-21 8.7h-295c-16.4 0-29.7-13.3-29.7-29.7 0-8.2 3.3-15.7 8.7-21 5.4-5.4 12.8-8.7 21-8.7h294.9c16.4 0 29.8 13.3 29.8 29.7"/><path id="Shape_65_" class="st4" d="M522.9 295.3c18.9.2 35.7 18.6 32.8 38.3-2.3 15.4-16.4 28.3-32.6 28.5-98.6 1-197.2 1-295.8 0-15.3-.2-29.6-12-32.4-27.3-3.5-18.9 11.9-39.3 32.6-39.5 98.5-.3 197-.3 295.4 0zm-295.1 7.4c-11.9 0-23.2 9.1-25.6 20.8-3 14.8 9 31.2 25.4 31.3 98.5.3 196.9 1 295.4 0 12-.2 23.1-9.4 25.3-21.3 2.7-14.8-9.3-30.7-25.5-30.9-98.3-.3-196.6.1-295 .1z"/><path id="W-3" class="st6" d="M395.3 345.7l5.8-22.6 5.3 22.6h5.7l9-31.4c0-.1-.1-.3-.2-.3h-4.7l-7 25.9-5.9-25.9h-4.1l-6.6 26.1-6.7-25.7h-4.6c-.2 0-.4.2-.3.4l8.7 30.9h5.6z"/><path id="W-2" class="st6" d="M335.8 346l5.8-22.4 5.3 22.4h5.7l9-31.3c0-.1-.1-.3-.2-.3h-4.7l-7 25.8-5.9-25.8h-4.2l-6.6 26-6.7-25.6h-4.6c-.2 0-.4.2-.3.4l8.7 30.7h5.7z"/><path id="W-1" class="st6" d="M276.2 346l5.8-22.6 5.3 22.6h5.7l9-31.4c0-.1-.1-.3-.2-.3h-4.7l-7 25.9-5.9-25.9H280l-6.6 26.1-6.7-25.7h-4.6c-.2 0-.4.2-.3.4l8.7 30.9h5.7z"/><path id="Shape_69_" class="st7" d="M552.5 328.7c0 8.2-3.3 15.6-8.7 21-5.4 5.4-12.8 8.7-21 8.7h-15.2V299h15.2c16.3 0 29.7 13.3 29.7 29.7"/><path id="Shape_70_" class="st4" d="M522.9 295.3c15.2.1 29.5 11.7 32.5 26.9 3.8 19.1-11.8 39.8-32.8 39.9h-15.2c-2-.1-3.6-1.3-3.7-3.7V299c.1-2 1.3-3.6 3.7-3.7h15.5zm-11.7 7.4v52.1c7.6 0 15.2.7 21.8-2.1 14.8-6.4 20.8-28.2 9.2-41.3-4.8-5.5-12-8.7-19.3-8.8-3.9.1-7.8.1-11.7.1z"/><path id="Shape_71_" class="st4" d="M164.9 503.2c.6 0 .9.1 1.5.7L192 531c.8.9.7 1.4.5 2-.3 1.5-2.4 2.4-3.7 1l-25.6-27.2c-.7-.8-.6-1.1-.6-1.5 0-1.1.5-2.1 2.3-2.1z"/><path id="Shape_72_" class="st4" d="M181.6 503.3c2.3.1 5.1 4.4 7.9 7.4 1.4 1.6-.9 5.2-3.2 3-3-3.1-6.9-6.4-7-8.2 0-1.1 1-2.2 2.3-2.2z"/><path id="Shape_73_" class="st4" d="M160.6 516.3c.5 0 1 .3 1.4.6 4.7 4.7 9.2 9.7 13.8 14.6 1.5 1.6-.9 5.1-3.1 3.1-4.7-4.7-9.2-9.7-13.8-14.6-1.2-1.4-.4-3.8 1.7-3.7z"/><path id="Shape_74_" class="st4" d="M631.6 697.4c2.2.2 2.9 4.3-.1 4.4h-19.2c-2.2-.1-3.1-4.3 0-4.4 6.4 0 12.9-.2 19.3 0z"/><path id="Shape_75_" class="st4" d="M786 612.7c1.6.4 1.7.7 1.9 2.2V648c-.3 28.2-24.5 53.7-54.1 53.8h-87.1c-2.3-.2-3-4.2 0-4.4 29.1 0 58.3.1 87.4 0 25.8-.2 49.3-22.5 49.4-49.7v-32.8c.1-1.9.6-2.3 2.5-2.2z"/></g><g id="Element_8_" transform="translate(560.951 285.366)"><path id="Shape_87_" d="M432.1 327.8l10.3-13.3" fill-rule="evenodd" clip-rule="evenodd" fill="#ff9490"/><path id="Shape_95_" class="st4" d="M219.5 130.9c1.8.1 2.7 2.8 1.2 4-3.9 2.7-7.9 5.2-11.8 7.8-1.9 1.2-4.6-2-2.5-3.6 3.9-2.7 7.9-5.2 11.8-7.8.4-.2.6-.4 1.3-.4z"/><path id="Shape_96_" class="st4" d="M177.5 112.1c1 .1 1.9.8 2.1 1.8.7 4.4 1.3 8.7 1.9 13.1.3 2.2-3.7 3.5-4.3.7-.7-4.4-1.3-8.7-1.9-13.1-.2-1.3.6-2.5 2.2-2.5z"/><path id="Shape_97_" class="st4" d="M199.8 116.9c1.4.1 2.4 1.7 1.9 3-1.9 4.4-4 8.8-6.1 13.1-1 2-5.1 1.1-4-1.7 1.9-4.4 4-8.8 6.1-13.1.3-.8.9-1.3 2.1-1.3z"/></g></g><g id="Element_4_" transform="translate(780.355 14.194)"><path id="Shape_89_" d="M-284.6 838.2v59.5c0 15.9-12.9 28.8-28.8 28.8h-208.2c-15.9 0-28.8-12.9-28.8-28.8v-324c0-15.9 12.9-28.8 28.8-28.8h208.2c15.9 0 28.8 12.9 28.8 28.8v231.9" fill="#73706b"/><path id="Shape_90_" class="st4" d="M-313.2 541.1c17 .2 32.4 14.8 32.4 32.6v231.9l-.3 1.5-.8 1.3-1.3.8-1.5.3-1.5-.3-1.3-.8c-.8-1.2-.8-1.3-1.1-2.7 0-77.4.7-154.8 0-232.2-.2-12.8-11.3-24.4-24.7-24.6-69.6-.2-139.1-.7-208.7 0-12.8.2-24.4 11.3-24.6 24.7-.3 108.2-1 216.4 0 324.5.2 12.8 11.3 24.5 24.7 24.6 69.6.2 139.1.7 208.7 0 12.9-.2 24.5-11.4 24.6-24.9v-59.5c.3-1.5.3-1.5 1.1-2.7l1.3-.8c1.5-.3 1.5-.3 3 0l1.3.8c.8 1.2.8 1.3 1.1 2.7 0 20 .2 40 0 59.9-.3 16.7-14.6 31.9-32.2 32.2-69.7.7-139.4.7-209 0-16.8-.3-31.9-14.6-32.2-32.2-1-108.3-1-216.6 0-324.9.3-16.8 14.6-31.9 32.2-32.2 69.6-.7 139.2-.3 208.8 0z"/><path id="Shape_91_" class="st4" d="M-312.7 560.3c6.3.1 12.1 5.5 12.5 11.8.1 1.9-1.9 3.7-3.3 2.1-1-1.1-.5-3-1.2-4.7-1.4-3.3-4.9-5-8.4-5.4-1.9-.3-2.4-3.8.4-3.8z"/><path id="Shape_92_" class="st4" d="M-532.2 897.4c2 .2 1.6 3.3 2.5 5.4 1.4 3.2 5 4.9 8.3 5.3 2 .3 2.7 4.1-1.3 3.8-6-.5-11.3-5.7-11.7-12 0-1.2.7-2.6 2.2-2.5z"/><path id="Shape_93_" class="st5" d="M-383.2 631.5h-100.5c-1.8 0-3.2-1.4-3.2-3.2 0-1.8 1.4-3.2 3.2-3.2h100.5c1.8 0 3.2 1.4 3.2 3.2 0 1.8-1.4 3.2-3.2 3.2"/><path id="Shape_94_" class="st0" d="M-437.1 643.1h-46.5c-1.8 0-3.2-1.4-3.2-3.2 0-1.8 1.4-3.2 3.2-3.2h46.5c1.8 0 3.2 1.4 3.2 3.2 0 1.8-1.5 3.2-3.2 3.2"/><path id="line-8" class="st5" d="M-340 631.5h-21.9c-1.8 0-3.2-1.4-3.2-3.2 0-1.8 1.4-3.2 3.2-3.2h21.9c1.8 0 3.2 1.4 3.2 3.2 0 1.8-1.5 3.2-3.2 3.2"/><path id="Shape_27_" class="st2" d="M-383.2 643.1h-39.6c-1.8 0-3.2-1.4-3.2-3.2 0-1.8 1.4-3.2 3.2-3.2h39.6c1.8 0 3.2 1.4 3.2 3.2 0 1.8-1.4 3.2-3.2 3.2"/><path id="Shape_26_" class="st2" d="M-383.2 655.9h-111.7c-1.8 0-3.2-1.4-3.2-3.2 0-1.8 1.4-3.2 3.2-3.2h111.7c1.8 0 3.2 1.4 3.2 3.2 0 1.7-1.4 3.2-3.2 3.2"/><path id="Shape_98_" class="st7" d="M-456.7 668.6h-27c-1.8 0-3.2-1.4-3.2-3.2 0-1.8 1.4-3.2 3.2-3.2h27c1.8 0 3.2 1.4 3.2 3.2 0 1.8-1.4 3.2-3.2 3.2"/><path id="Shape_99_" class="st0" d="M-383.1 668.6h-37.7c-1.8 0-3.2-1.4-3.2-3.2 0-1.8 1.4-3.2 3.2-3.2h37.7c1.8 0 3.2 1.4 3.2 3.2.1 1.8-1.4 3.2-3.2 3.2"/><path id="Shape_100_" class="st5" d="M-430.6 668.6h-14.1c-1.8 0-3.2-1.4-3.2-3.2 0-1.8 1.4-3.2 3.2-3.2h14.1c1.8 0 3.2 1.4 3.2 3.2 0 1.8-1.4 3.2-3.2 3.2"/><path id="Shape_101_" class="st0" d="M-456.8 692.1h-33.8c-1.8 0-3.2-1.4-3.2-3.2 0-1.8 1.4-3.2 3.2-3.2h33.8c1.8 0 3.2 1.4 3.2 3.2 0 1.8-1.4 3.2-3.2 3.2"/><path id="Shape_102_" class="st2" d="M-383.1 692.1h-37.7c-1.8 0-3.2-1.4-3.2-3.2 0-1.8 1.4-3.2 3.2-3.2h37.7c1.8 0 3.2 1.4 3.2 3.2.1 1.8-1.4 3.2-3.2 3.2"/><path id="line-6" class="st2" d="M-432 692.1h-14.1c-1.8 0-3.2-1.4-3.2-3.2 0-1.8 1.4-3.2 3.2-3.2h14.1c1.8 0 3.2 1.4 3.2 3.2 0 1.8-1.4 3.2-3.2 3.2"/><path id="Shape_104_" class="st0" d="M-383.1 704.9h-111.7c-1.8 0-3.2-1.4-3.2-3.2 0-1.8 1.4-3.2 3.2-3.2h111.7c1.8 0 3.2 1.4 3.2 3.2.1 1.7-1.4 3.2-3.2 3.2"/><path id="Shape_105_" class="st5" d="M-340 692.1h-21.9c-1.8 0-3.2-1.4-3.2-3.2 0-1.8 1.4-3.2 3.2-3.2h21.9c1.8 0 3.2 1.4 3.2 3.2 0 1.8-1.5 3.2-3.2 3.2"/><path id="Shape_106_" class="st7" d="M-418.4 717.6h-65.3c-1.8 0-3.2-1.4-3.2-3.2 0-1.8 1.4-3.2 3.2-3.2h65.3c1.8 0 3.2 1.4 3.2 3.2 0 1.8-1.4 3.2-3.2 3.2"/><path id="Shape_107_" class="st0" d="M-383.2 717.6h-24.5c-1.8 0-3.2-1.4-3.2-3.2 0-1.8 1.4-3.2 3.2-3.2h24.5c1.8 0 3.2 1.4 3.2 3.2 0 1.8-1.4 3.2-3.2 3.2"/><path id="line-7" class="st5" d="M-340 717.6h-21.9c-1.8 0-3.2-1.4-3.2-3.2 0-1.8 1.4-3.2 3.2-3.2h21.9c1.8 0 3.2 1.4 3.2 3.2 0 1.8-1.5 3.2-3.2 3.2"/><path id="Shape_109_" class="st2" d="M-457.3 730.3h-27c-1.8 0-3.2-1.4-3.2-3.2 0-1.8 1.4-3.2 3.2-3.2h27c1.8 0 3.2 1.4 3.2 3.2 0 1.8-1.4 3.2-3.2 3.2"/><path id="Shape_110_" class="st0" d="M-383.2 730.3h-37.7c-1.8 0-3.2-1.4-3.2-3.2 0-1.8 1.4-3.2 3.2-3.2h37.7c1.8 0 3.2 1.4 3.2 3.2 0 1.8-1.4 3.2-3.2 3.2"/><path id="Shape_111_" class="st2" d="M-432.1 730.3h-14.1c-1.8 0-3.2-1.4-3.2-3.2 0-1.8 1.4-3.2 3.2-3.2h14.1c1.8 0 3.2 1.4 3.2 3.2.1 1.8-1.4 3.2-3.2 3.2"/><path id="Shape_112_" class="st0" d="M-340 730.3h-21.9c-1.8 0-3.2-1.4-3.2-3.2 0-1.8 1.4-3.2 3.2-3.2h21.9c1.8 0 3.2 1.4 3.2 3.2 0 1.8-1.5 3.2-3.2 3.2"/><path id="line-5" class="st5" d="M-383.2 743.1h-24.5c-1.8 0-3.2-1.4-3.2-3.2 0-1.8 1.4-3.2 3.2-3.2h24.5c1.8 0 3.2 1.4 3.2 3.2 0 1.7-1.4 3.2-3.2 3.2"/><path id="Shape_114_" class="st2" d="M-340 743.1h-21.9c-1.8 0-3.2-1.4-3.2-3.2 0-1.8 1.4-3.2 3.2-3.2h21.9c1.8 0 3.2 1.4 3.2 3.2 0 1.7-1.5 3.2-3.2 3.2"/><path id="Shape_115_" class="st0" d="M-383.2 755.8h-111.7c-1.8 0-3.2-1.4-3.2-3.2 0-1.8 1.4-3.2 3.2-3.2h111.7c1.8 0 3.2 1.4 3.2 3.2 0 1.8-1.4 3.2-3.2 3.2"/><path id="Shape_116_" class="st0" d="M-425.4 768.6h-58.3c-1.8 0-3.2-1.4-3.2-3.2s1.4-3.2 3.2-3.2h58.3c1.8 0 3.2 1.4 3.2 3.2s-1.4 3.2-3.2 3.2"/><path id="Shape_117_" class="st2" d="M-383.2 768.6h-31.7c-1.8 0-3.2-1.4-3.2-3.2s1.4-3.2 3.2-3.2h31.7c1.8 0 3.2 1.4 3.2 3.2s-1.4 3.2-3.2 3.2"/><path id="Shape_118_" class="st7" d="M-383.2 781.3h-111.7c-1.8 0-3.2-1.4-3.2-3.2 0-1.8 1.4-3.2 3.2-3.2h111.7c1.8 0 3.2 1.4 3.2 3.2 0 1.8-1.4 3.2-3.2 3.2"/><path id="line-3" class="st2" d="M-340 781.3h-21.9c-1.8 0-3.2-1.4-3.2-3.2 0-1.8 1.4-3.2 3.2-3.2h21.9c1.8 0 3.2 1.4 3.2 3.2 0 1.8-1.5 3.2-3.2 3.2"/><path id="Shape_120_" class="st0" d="M-383.2 794h-37.7c-1.8 0-3.2-1.4-3.2-3.2 0-1.8 1.4-3.2 3.2-3.2h37.7c1.8 0 3.2 1.4 3.2 3.2 0 1.8-1.4 3.2-3.2 3.2"/><path id="Shape_121_" class="st0" d="M-430.7 794h-14.1c-1.8 0-3.2-1.4-3.2-3.2 0-1.8 1.4-3.2 3.2-3.2h14.1c1.8 0 3.2 1.4 3.2 3.2 0 1.8-1.5 3.2-3.2 3.2"/><path id="Shape_122_" class="st0" d="M-340 794h-21.9c-1.8 0-3.2-1.4-3.2-3.2 0-1.8 1.4-3.2 3.2-3.2h21.9c1.8 0 3.2 1.4 3.2 3.2 0 1.8-1.5 3.2-3.2 3.2"/><path id="Shape_123_" class="st0" d="M-470.9 817.5h-19.7c-1.8 0-3.2-1.4-3.2-3.2s1.4-3.2 3.2-3.2h19.7c1.8 0 3.2 1.4 3.2 3.2s-1.4 3.2-3.2 3.2"/><path id="Shape_124_" class="st2" d="M-383.1 817.5h-37.7c-1.8 0-3.2-1.4-3.2-3.2s1.4-3.2 3.2-3.2h37.7c1.8 0 3.2 1.4 3.2 3.2s-1.4 3.2-3.2 3.2"/><path id="line-4" class="st2" d="M-433.2 817.5h-25.2c-1.8 0-3.2-1.4-3.2-3.2s1.4-3.2 3.2-3.2h25.2c1.8 0 3.2 1.4 3.2 3.2s-1.5 3.2-3.2 3.2"/><path id="Shape_126_" class="st0" d="M-383.2 830.3h-111.7c-1.8 0-3.2-1.4-3.2-3.2 0-1.8 1.4-3.2 3.2-3.2h111.7c1.8 0 3.2 1.4 3.2 3.2 0 1.7-1.4 3.2-3.2 3.2"/><path id="Shape_127_" class="st0" d="M-429.2 843h-54.5c-1.8 0-3.2-1.4-3.2-3.2 0-1.8 1.4-3.2 3.2-3.2h54.5c1.8 0 3.2 1.4 3.2 3.2 0 1.8-1.4 3.2-3.2 3.2"/><path id="Shape_128_" class="st5" d="M-383.2 843h-31.7c-1.8 0-3.2-1.4-3.2-3.2 0-1.8 1.4-3.2 3.2-3.2h31.7c1.8 0 3.2 1.4 3.2 3.2 0 1.8-1.4 3.2-3.2 3.2"/><path id="line-1" class="st7" d="M-340 843h-21.9c-1.8 0-3.2-1.4-3.2-3.2 0-1.8 1.4-3.2 3.2-3.2h21.9c1.8 0 3.2 1.4 3.2 3.2 0 1.8-1.5 3.2-3.2 3.2"/><path id="Shape_130_" class="st7" d="M-456.9 855.8h-27c-1.8 0-3.2-1.4-3.2-3.2 0-1.8 1.4-3.2 3.2-3.2h27c1.8 0 3.2 1.4 3.2 3.2 0 1.7-1.4 3.2-3.2 3.2"/><path id="Shape_131_" class="st0" d="M-383.2 855.8h-37.7c-1.8 0-3.2-1.4-3.2-3.2 0-1.8 1.4-3.2 3.2-3.2h37.7c1.8 0 3.2 1.4 3.2 3.2 0 1.7-1.4 3.2-3.2 3.2"/><path id="Shape_132_" class="st0" d="M-430.8 855.8h-14.1c-1.8 0-3.2-1.4-3.2-3.2 0-1.8 1.4-3.2 3.2-3.2h14.1c1.8 0 3.2 1.4 3.2 3.2 0 1.7-1.5 3.2-3.2 3.2"/><path id="Shape_133_" class="st2" d="M-383.2 868.5h-101.5c-1.8 0-3.2-1.4-3.2-3.2 0-1.8 1.4-3.2 3.2-3.2h101.5c1.8 0 3.2 1.4 3.2 3.2 0 1.8-1.4 3.2-3.2 3.2"/><path id="Shape_134_" class="st2" d="M-383.2 881.2h-37.7c-1.8 0-3.2-1.4-3.2-3.2 0-1.8 1.4-3.2 3.2-3.2h37.7c1.8 0 3.2 1.4 3.2 3.2 0 1.8-1.4 3.2-3.2 3.2"/><path id="Shape_135_" class="st5" d="M-430.1 881.2h-14.1c-1.8 0-3.2-1.4-3.2-3.2 0-1.8 1.4-3.2 3.2-3.2h14.1c1.8 0 3.2 1.4 3.2 3.2 0 1.8-1.5 3.2-3.2 3.2"/><path id="line-2" class="st5" d="M-340 881.2h-21.9c-1.8 0-3.2-1.4-3.2-3.2 0-1.8 1.4-3.2 3.2-3.2h21.9c1.8 0 3.2 1.4 3.2 3.2 0 1.8-1.5 3.2-3.2 3.2"/><path id="Shape_137_" class="st0" d="M-498.9 589.8c.1.2.1.4.1.6v.6c0 .5-.1 1-.2 1.4-.1.4-.3.8-.5 1.2-.3.3-.6.6-1 .8-.4.2-.9.3-1.5.3s-1.2-.1-1.7-.4c-.6-.3-1.3-.6-2.1-1.1l-9-5.2c-.7-.9-1.1-2.2-1.1-3.8 0-1.2.2-2.1.5-2.7.3-.6.8-1.1 1.5-1.5l11.5-6.7c1.4.4 2.3.9 2.8 1.5s.7 1.3.7 2c0 1-.2 1.7-.7 2.3-.5.5-1.2 1.1-2.2 1.5l-7.4 3.7 10.3 5.5z"/><path id="Shape_138_" class="st0" d="M-491.5 599.4c-.4.1-.8.1-1.1.1h-1c-1.2 0-2.1-.3-2.7-.8-.6-.5-.9-1.3-.9-2.4 0-.8.1-1.5.3-2.3.2-.8.4-1.4.6-2l7.4-26.6c.4-.1.8-.1 1.2-.1h1c1.1 0 2 .2 2.7.7.7.5 1 1.2 1 2.3 0 .8-.1 1.6-.3 2.3-.2.7-.4 1.5-.6 2.2l-7.6 26.6z"/><path id="Shape_139_" class="st0" d="M-481.6 578.4c-.1-.2-.1-.4-.1-.6v-.6c0-.5.1-1 .2-1.4.1-.4.3-.8.5-1.2.3-.3.6-.6 1-.8.4-.2.9-.3 1.5-.3s1.2.1 1.7.4c.6.3 1.3.6 2.1 1.1l9 5.2c.7 1 1.1 2.2 1.1 3.8 0 1.2-.2 2.1-.5 2.7-.3.6-.8 1.1-1.5 1.5l-11.5 6.7c-1.4-.4-2.3-.9-2.8-1.5s-.7-1.3-.7-2c0-1 .2-1.7.7-2.3.5-.5 1.2-1.1 2.2-1.5l7.4-3.7-10.3-5.5z"/><path id="Shape_140_" d="M-544.4 522.6c1.8.3 1.7 1.1 1.7 1.9 0 2-3.2 1.9-5.7 2.2-12.6 1.8-23 13.4-23.1 26.6v33c-.1 1.3-.6 1.5-1.1 1.7-1.2.6-2.7-.4-2.8-1.7 0-11.1-.1-22.3 0-33.4.2-15.8 13.8-30 30.3-30.3h.7z" opacity=".88" fill="#3b1b6a"/><path id="Shape_141_" class="st4" d="M-504.1 522.6c2 .2 2.6 3.8-.1 3.9H-523c-1.4 0-1.4-.5-1.7-1.1-.6-1.2.3-2.8 1.7-2.8 6.3 0 12.6-.2 18.9 0z"/><path id="Shape_142_" class="st4" d="M-255.6 880.4c1 .2 1.7.9 1.7 1.9 0 11.1.1 22.3 0 33.4-.2 15.8-13.8 30-30.3 30.3 0 0-1.3.1-1.9-.7-1-1.3-.3-3.1 2.2-3.2 13.7-.4 26.1-12.3 26.1-26.8v-33c.1-1 1-1.9 2.2-1.9z"/><path id="Shape_143_" class="st4" d="M-255.7 852.4c1 .1 1.8.9 1.8 1.8.1 3.7 0 7.4 0 11.1 0 1.8-3.7 2.9-3.9.1-.1-3.7 0-7.4 0-11.1.1-1 .8-1.9 2.1-1.9z"/></g></svg>