<?xml version="1.0" encoding="utf-8"?>
<!-- Generator: Adobe Illustrator 24.2.0, SVG Export Plug-In . SVG Version: 6.00 Build 0)  -->
<svg version="1.1" id="Lag_1" xmlns="http://www.w3.org/2000/svg" xmlns:xlink="http://www.w3.org/1999/xlink" x="0px" y="0px"
	 viewBox="0 0 900 500" style="enable-background:new 0 0 900 500;" xml:space="preserve">
<style type="text/css">
	.st0{fill:#73706B;}
	.st1{fill:#2E3640;}
	.st2{fill:#FFFFFF;fill-opacity:0.3;}
	.st3{fill-rule:evenodd;clip-rule:evenodd;fill:#F2B164;}
	.st4{fill:#FFFFFF;}
	.st5{fill-rule:evenodd;clip-rule:evenodd;fill:#2E3640;}
	.st6{fill-rule:evenodd;clip-rule:evenodd;fill:#DB5D60;}
</style>
<g id="Element_3_" transform="translate(214.945055, 287.791209)">
	<path id="Shape_65_" class="st0" d="M589.8,144.4c4.5,0,7.8,3.8,6.8,7.8c-1.9,7.9-6.2,15-12.3,20.6c-8.2,7.5-19.6,12.1-32.1,12.1
		H-80.6c-21.8,0-40-14-44.4-32.7c-0.9-4,2.3-7.8,6.8-7.8H589.8z"/>
	<path id="Shape_66_" class="st1" d="M589.9,141.4c6.2,0.1,11.1,5.9,9.5,12.1c-0.2,0.7-0.4,1.4-0.6,2.2c-0.8,2.4-1.7,4.7-2.9,6.9
		c-8,15.1-25.3,25-43.4,25.1c-211.1,0.6-422.2,0.5-633.4,0c-21.4-0.2-41.9-14.3-47-34.3c-1.4-5.7,2.9-11.9,9.5-12.1
		C117.7,140,353.8,140,589.9,141.4z M-118.2,147.3c-2.6,0-4.3,2.2-3.5,5.4c0.3,0.9,0.5,1.9,0.9,2.8c0.2,0.6,0.5,1.3,0.8,1.9
		c0.3,0.8,0.7,1.5,1.1,2.2c6.9,13.4,22.2,22.1,38.1,22.3c211.1,0.5,422.2,0.6,633.3,0c18.7-0.2,37.1-12.6,41.1-30.5
		c0.4-2-1.4-4-3.7-4.1C353.9,142.6,117.8,147.3-118.2,147.3z"/>
	<path id="Shape_67_" class="st0" d="M528-78.8v223.2H-56.4v-340.7c0-25.5,21.8-46.2,48.7-46.2h486.9c26.9,0,48.7,20.7,48.7,46.2
		v89.8"/>
	<path id="Shape_68_" class="st2" d="M527.7-78.4v223.2H-56.6v-340.7c0-25.5,21.8-46.2,48.7-46.2h486.9c26.9,0,48.7,20.7,48.7,46.2
		v89.8"/>
	<path id="Shape_69_" class="st1" d="M479.5-245.5c26.8,0.2,51.4,22.2,51.5,49.2v89.8c-0.4,1.9-1.2,2.3-1.9,2.7l-1.2,0.2l-1.2-0.2
		l-1-0.6c-0.7-1-0.7-1-0.9-2.1c0-30,0.1-60.1,0-90.1c-0.2-22.4-20.3-42.8-45.3-43c-162.5-0.5-325-0.5-487.4,0
		c-23.5,0.2-45.3,19.5-45.3,43.3v337.7h578.1V-78.8c0.2-0.8,0.2-1.6,1.9-2.7l1.2-0.2l1.2,0.2l1,0.6c0.7,1,0.7,1,0.9,2.1v223.2
		l-0.2,1.1l-0.7,1l-1,0.6l-1.2,0.2H-56.4l-1.2-0.2c-1-0.6-1-0.6-1.7-1.6l-0.2-1.1c0-113.7-0.4-227.3,0-341
		c0.3-25.4,23.1-48.6,51.5-48.9C154.5-246,317-246,479.5-245.5z"/>
	<path id="Shape_70_" class="st3" d="M498.7,144.4H-25.8v-324.5c0-20,17.1-36.2,38.1-36.2h448.3c21.1,0,38.1,16.2,38.1,36.2V144.4z"
		/>
	<path id="Shape_71_" class="st1" d="M460.8-219.2c21.5,0.2,40.9,18,41,39.1v327.4H-28.9c0-109.2-0.4-218.5,0-327.7
		c0.2-20.1,18.4-38.7,41-38.9C161.6-219.7,311.2-219.7,460.8-219.2z M12.3-213.3c-18.2,0.1-34.9,15-35,33.2v321.5h518.3
		c0-107.2,0.4-214.5,0-321.7c-0.2-17.1-15.6-32.8-34.8-33C311.3-213.7,161.8-213.3,12.3-213.3z"/>
	<path id="Shape_72_" class="st4" d="M307.5,158.2H162.8c-6.3,0-11.5-4.9-11.5-10.9v-3H319v3C319,153.4,313.8,158.2,307.5,158.2z"/>
	<path id="Shape_73_" class="st1" d="M319.4,141.5c2.2,0.5,2.5,0.9,2.7,2.9c0,2.7,0.1,5.3-0.9,7.7c-2,5.2-7.5,9-13.5,9.1
		c-48.4,0.3-96.7,0.3-145.1,0c-7.5-0.1-14.2-6.2-14.4-13.6l0-3.6c0.5-2.1,1-2.4,3.1-2.5H319C319.1,141.4,319.3,141.4,319.4,141.5z
		 M154.5,147.3c0,4.1,3.8,7.9,8.2,7.9c48.3,0.3,96.7,0.9,145,0c4.3-0.1,8.1-3.7,8.1-7.9v0C262,147.3,208.2,147.3,154.5,147.3z"/>
	<path id="Shape_74_" class="st1" d="M251.4-231.5c3.9,0.4,1.4,3.5-0.2,3.5h-30.9c-1.8-0.1-1.7-0.5-1.9-1.6c-0.1-1,0.7-1.9,1.9-2
		C230.7-231.5,241-231.8,251.4-231.5z"/>
	<path id="Shape_99_" class="st1" d="M396.3-162c1.5,0.1,2.3,1.9,1.1,3.2c-2.9,3.4-6.6,6.2-10.6,8.3c-2,1-4.5-1.7-1.2-3.4
		c3.6-1.9,6.5-4.9,9.4-7.6C395.3-161.8,395.8-162,396.3-162z"/>
	<path id="Shape_100_" class="st1" d="M493.7-227.4c1.4,0.1,2.6,1.2,3.8,2.1c4.2,2.8,7.9,6.2,11.1,10c0,0,0.7,1.2,0,2.1
		c-0.8,1.1-2.2,1-3.7-0.8c-3.5-4-7.7-7.5-12.3-10.2c0,0-0.9-0.7-0.9-1.6C491.7-226.7,492.4-227.5,493.7-227.4z"/>
	<path id="Shape_101_" class="st2" d="M452.8-111.6v25.8c0,7.4-6.3,13.3-14,13.3H265.1c-7.8,0-14-6-14-13.3v-25.8
		c0-7.4,6.3-13.3,14.1-13.3h173.7C446.5-124.9,452.8-119,452.8-111.6"/>
	<path id="Shape_102_" class="st2" d="M196.3,40.7H45c-14,0-25.3-10.7-25.3-24V-101c0-13.2,11.3-24,25.3-24h151.2
		c14,0,25.3,10.7,25.3,24V16.7C221.5,29.9,210.2,40.7,196.3,40.7"/>
	<path id="Shape_103_" class="st2" d="M427.7,114.5H276.5c-14,0-25.3-10.7-25.3-24V-27.1c0-13.2,11.3-24,25.3-24h151.2
		c14,0,25.3,10.7,25.3,24V90.5C453,103.8,441.7,114.5,427.7,114.5"/>
	<path id="Shape_104_" class="st4" d="M172.1,22.2H67.9c-14,0-25.3-10.7-25.3-24v-80.8c0-13.2,11.3-24,25.3-24h104.2
		c14,0,25.3,10.7,25.3,24v80.8C197.3,11.5,186,22.2,172.1,22.2z"/>
	<path id="Shape_105_" class="st1" d="M172.3-109.4c14.7,0.1,28.1,12.2,28.2,26.8c0.1,27.1,0.3,54.2,0,81.3
		c-0.2,13.9-13,26.4-28.2,26.6c-34.9,0.1-69.8,0.3-104.7,0c-14.5-0.2-27.8-12-28-26.6c-0.3-27.2-0.3-54.3,0-81.5
		c0.2-13.9,13-26.4,28.2-26.6C102.6-109.5,137.4-109.5,172.3-109.4z M67.9-103.5c-11.5,0-22,9.5-22.2,20.9
		c-0.1,27.1-0.3,54.1,0,81.2c0.2,10.8,9.9,20.6,22,20.7c34.9,0.1,69.7,0.3,104.6,0c11.4-0.2,21.7-9.6,21.9-20.9
		c0.1-27.1,0.3-54.1,0-81.2c-0.2-10.8-10.1-20.6-22-20.7C137.5-103.6,102.7-103.5,67.9-103.5z"/>
	<path id="Shape_106_" class="st5" d="M147.9-45.8l-0.1,11l-0.3,34.3c0,1.6-1.4,2.8-3,2.8L122,2.2L94.5,2c-1.7,0-3-1.3-3-2.9
		L91.8-33l0.1-13.2c0-2.4-0.5-3.7-3.4-2.8c-1,0.3-3.2,1.3-4.1,1c-0.3-0.1-0.6-0.2-0.8-0.4L69-58.1c-1.3-0.9-1.7-2.5-0.9-3.8
		c11.1-17.5,29-21.9,35.8-23c1.5-0.2,2.9,0.6,3.3,2c1,3.2,3.8,8.5,11.2,8.6c1.1,0,2.1,0,3.2,0c7.4,0,10.3-5.3,11.3-8.4
		c0.4-1.4,1.9-2.2,3.4-1.9c5.9,1,20,4.6,30.7,17c1.7,1.9,3.3,4.1,4.7,6.5c0.8,1.3,0.4,2.9-0.9,3.7l-14.6,9.5
		c-1.1,0.7-2.5,0.7-3.6-0.1c-0.3-0.2-0.6-0.4-1-0.5C148.3-49.3,147.9-47.8,147.9-45.8z"/>
	<path id="Shape_107_" class="st1" d="M136.1-87.6c3.8,0.2,7.5,1.5,11.2,2.9c11.3,4.2,21.1,12.1,27.3,22.2c0.3,0.5,0.3,0.5,0.4,0.7
		c1,2.4,0.1,5.3-2.1,6.8c-4.9,3.3-9.9,6.5-14.8,9.6c-2.1,1.3-4.9,1.2-7-0.2l0,0c-0.1,15-0.2,30.1-0.4,45.1c0,0.6,0,0.6-0.1,0.9
		c-0.4,2.6-3,4.8-5.9,4.9c-16.7,0-33.4-0.3-50.2-0.4c-3.2-0.1-6-2.6-6-5.7c0-10.8,0.2-21.5,0.3-32.3l0.1-13
		c-0.3,0.1-0.6,0.2-0.9,0.3c-1.9,0.7-4.2,0.9-6.1-0.3c-4.8-3.3-9.7-6.5-14.5-9.8c-2.6-1.8-3.2-5.4-1.4-8.1
		c8.1-12.4,21.8-21.2,37-23.8c3.4-0.6,6.5,1.1,7.7,4.4c1.2,3.2,4.1,5.9,7.9,6c4.9,0.1,9.8-1,11.7-6.4c0.3-0.9,0.5-1.1,0.9-1.6
		C132.2-86.8,134.1-87.7,136.1-87.6z M90.5-52.2c3,0.3,2.8,0.3,3.9,2.5c0.5,1.1,0.6,2.3,0.6,3.5L94.9-33L94.6-1L122-0.8l22.4,0.2
		c0.1-15.1,0.3-30.1,0.4-45.2c0-2.3,0.9-4.7,3.4-5.6c2.2-0.7,4.7-0.2,6.4,1l14.5-9.4c-7-11.4-19.3-19.5-33-21.9
		c0,0-4.2,10.3-14.4,10.3c-6.1,0-12.3-1.6-15.5-6.7c-0.9-1.5-1.8-3.9-1.8-3.9c-13.6,2.2-26.1,10-33.4,21.4L85-51
		C87.1-51.5,88.2-52.4,90.5-52.2z"/>
	<path id="Shape_108_" class="st4" d="M404,96.1H299.9c-14,0-25.3-10.7-25.3-24V-8.7c0-13.2,11.3-24,25.3-24H404
		c14,0,25.3,10.7,25.3,24v80.8C429.3,85.3,418,96.1,404,96.1z"/>
	<path id="Shape_109_" class="st1" d="M404.2-35.6c14.7,0.1,28.1,12.2,28.2,26.8c0.1,27.1,0.3,54.2,0,81.3
		c-0.2,13.9-13,26.4-28.2,26.6c-34.9,0.1-69.8,0.3-104.7,0c-14.6-0.2-27.9-12.3-28-26.8c-0.1-27.1-0.3-54.2,0-81.3
		c0.2-13.8,12.9-26.4,28.2-26.6C334.5-35.7,369.4-35.7,404.2-35.6z M299.9-29.7c-11.5,0-22,9.5-22.2,20.9c-0.1,27.1-0.3,54.1,0,81.2
		c0.2,10.8,10.1,20.6,22,20.7c34.9,0.1,69.7,0.3,104.6,0c11.4-0.2,21.7-9.6,21.9-20.9c0.1-27.1,0.3-54.1,0-81.2
		c-0.2-10.8-10-20.6-22-20.7C369.4-29.8,334.6-29.7,299.9-29.7z"/>
	<path id="Shape_110_" class="st6" d="M385.2-4.6c12.1,0,14.6,10.8,14.6,19.5c0,3.6-1.1,7.5-3,11.1c-2.1,4-3.5,8.3-4.5,12.6
		l-2.8,22.6c-0.1,0.6-0.7,1.1-1.3,1.1h-5.5c-0.7,0-1.3-0.5-1.3-1.1l-3.1-29.3c-0.2-1.5-2.1-2.2-3.3-1.2c-1.1,0.9-2.3,2.2-3.4,3.5
		c-2.1,2.5-3.8,5.3-5.3,8.2c-3.7,7.4-9.2,13.5-12.7,17c-1.9,1.9-4.6,3-7.4,3h-33.5c-2.4,0-7.8-0.9-8.5-5.4
		c-0.6-3.5,14.1-13.7,20.5-18.1c1.7-1.2,3.9-1.6,5.9-1.1c4.2,1,12.1,1.9,17.9-3.6C356.7,26.4,375.9-4.6,385.2-4.6"/>
	<path id="Shape_111_" class="st1" d="M385.4-7.6c4.9,0.1,9.8,1.9,12.9,5.8c7,8.8,5.1,21.6,1,29.8c-0.2,0.4-0.2,0.4-0.3,0.7
		c-1.5,3.3-2.7,6.7-3.5,10.1l-2.9,23c-0.1,0.7-0.2,0.9-0.5,1.3c-0.8,1.4-2,2.2-3.9,2.3h-5.6c-0.8,0-1-0.1-1.4-0.2
		c-1.6-0.5-2.7-1.7-3-3.5l-2.9-27.1c-2.7,2.8-4.7,6.1-6.4,9.5c-0.2,0.4-0.2,0.4-0.4,0.7c-3.5,6.6-7.9,13-13.8,17.7
		c-2.3,1.8-5.3,2.9-8.3,2.9c-11.3,0.1-22.5,0.1-33.8,0c-0.6,0-1.1,0-1.7-0.1c-4.8-0.6-10.7-3.6-9.7-9.2c0.6-3.7,4.4-6.5,7.8-9.3
		c4.4-3.6,9.1-7,13.9-10.2c6.6-4.4,16.6,2.7,24.1-5C357.9,20.1,364.7,5,378-4.7C380.2-6.3,382.3-7.6,385.4-7.6z M376.5,27.3
		c2.4,0.2,4.4,2,4.7,4.3l3,27.9h2.3l2.7-21.2c1.6-9.1,7.7-16.2,7.5-24.5c-0.2-5.2-1-11-5.5-13.9c-6.5-4.2-15.3,5.1-22.9,14.6
		c-5.5,6.9-10.4,14.3-16.5,20.8c-5.4,5.7-14.1,7.1-22.3,5.5c-1.5-0.3-3,0.6-4.4,1.5c-6.1,4.1-12.6,8.1-17.1,13.6
		c-1.7,2,1.2,3,2.5,3.4c0.3,0.1,0.6,0.1,0.9,0.2c0.4,0.1,0.8,0.1,1.1,0.1c11.3,0.2,22.6,0.2,33.8,0c3.1-0.1,5.5-2.5,7.6-4.8
		c7.6-8.3,11-19.2,18.8-26C372.6,28.6,374.3,27.2,376.5,27.3z"/>
	<path id="Shape_112_" class="st2" d="M221.5,75.7v25.8c0,7.4-6.3,13.3-14,13.3H33.8c-7.8,0-14-6-14-13.3V75.7
		c0-7.4,6.3-13.3,14-13.3h173.7C215.2,62.4,221.5,68.4,221.5,75.7"/>
	<path id="Shape_113_" class="st1" d="M-20.8-276.6c1.6,0.3,1.6,0.9,1.6,1.6c0.1,1-0.8,1.8-1.9,1.9c-10.8,0-21.7-0.6-31.6,2.7
		c-19.5,6.5-33.7,25.1-33.8,45.3v24.7c-0.1,1.2-0.6,1.4-1.1,1.6c-1.1,0.5-2.6-0.3-2.7-1.6c0-14.5-1.7-29,3.1-41.8
		c7.4-19.9,28.4-34.4,51.3-34.5h14.8C-21-276.6-20.9-276.6-20.8-276.6z"/>
	<path id="Shape_114_" class="st1" d="M-88.2-191.2c0.9,0.1,1.6,0.8,1.7,1.7c0.1,4.6,0,9.1,0,13.7c-0.1,1.8-3.5,2.5-3.7,0.1
		c-0.1-4.6,0-9.1,0-13.7C-90.2-190.4-89.5-191.3-88.2-191.2z"/>
</g>
</svg>
