<svg id="Lag_1" data-name="Lag 1" xmlns="http://www.w3.org/2000/svg" viewBox="0 0 1019.1 881.1">
  <defs>
    <style>
      .cls-1 {
        fill: #fff;
      }

      .cls-2, .cls-8 {
        fill: #73706b;
      }

      .cls-3 {
        fill: #f2b164;
      }

      .cls-10, .cls-3, .cls-6, .cls-8, .cls-9 {
        fill-rule: evenodd;
      }

      .cls-4, .cls-6 {
        fill: #db5d60;
      }

      .cls-4 {
        fill-opacity: 0.3;
      }

      .cls-11, .cls-5, .cls-9 {
        fill: #2e3640;
      }

      .cls-7 {
        fill: #3b1b6a;
      }

      .cls-10 {
        fill: #ff9490;
      }

      .cls-11 {
        opacity: 0.88;
        isolation: isolate;
      }
    </style>
  </defs>
  <g id="Search">
    <g>
      <g id="Background">
        <g id="Element">
          <path id="Shape" class="cls-1" d="M1186.9,367.2H842.3a19.7,19.7,0,0,1-19.7-19.7V291.9a19.7,19.7,0,0,1,19.7-19.7h344.6a19.7,19.7,0,0,1,19.7,19.7v55.6A19.7,19.7,0,0,1,1186.9,367.2Z" transform="translate(-204.9 -155.7)"/>
          <path id="Shape-2" data-name="Shape" class="cls-2" d="M1187.2,270c11.3.2,21.4,9.8,21.6,21.6q.2,28,0,56.1c-.2,11.3-9.8,21.4-21.6,21.6q-172.5,1.1-345.1,0c-11.3-.2-21.4-10-21.6-21.6-.2-18.6-.2-37.4-.1-56.1A22.4,22.4,0,0,1,842.1,270Q1014.6,269,1187.2,270Zm-344.8,4.4a18,18,0,0,0-17.6,17.3c-.1,18.7-.1,37.4,0,56A18,18,0,0,0,842.1,365q172.5,1,345,0a18,18,0,0,0,17.3-17.3c.1-18.7.1-37.4,0-56a18.1,18.1,0,0,0-17.3-17.3C1072.2,273.6,957.3,274.4,842.4,274.4Z" transform="translate(-204.9 -155.7)"/>
          <path id="Shape-3" data-name="Shape" class="cls-2" d="M1156.5,298.1c1.6.2,1.6.6,1.9,1.3a2.3,2.3,0,0,1-2,3.1h-21.6c-1.6,0-1.6-.5-2-1.2a2.3,2.3,0,0,1,2-3.2C1142,298.1,1149.2,297.8,1156.5,298.1Z" transform="translate(-204.9 -155.7)"/>
          <path id="Shape-4" data-name="Shape" class="cls-2" d="M1117.9,298.1c2,.7,2.4,4-.5,4.3h-252c-2.3-.2-2.9-4.1,0-4.4h252.5Z" transform="translate(-204.9 -155.7)"/>
          <path id="Shape-5" data-name="Shape" class="cls-2" d="M1156.6,317.5c2.3.5,2.3,4.2-.3,4.4H1046.2c-2.3-.2-3.3-4.2,0-4.4h110.4Z" transform="translate(-204.9 -155.7)"/>
          <path id="Shape-6" data-name="Shape" class="cls-2" d="M983.8,317.5c2.1.5,2.8,4.1-.3,4.4H865.4c-2.3-.2-2.9-4.2,0-4.4H983.8Z" transform="translate(-204.9 -155.7)"/>
          <path id="Shape-7" data-name="Shape" class="cls-2" d="M1111.4,336.6c2.1.7,2.3,4.1-.5,4.3H865.4c-2.4-.2-2.7-4.1,0-4.4h246Z" transform="translate(-204.9 -155.7)"/>
        </g>
      </g>
      <g id="Element-2" data-name="Element">
        <g id="Shape-8" data-name="Shape">
          <path class="cls-3" d="M1040.7,252.3v19.8h-688V252.3a42.7,42.7,0,0,1,42.7-42.7H998.1A42.7,42.7,0,0,1,1040.7,252.3Z" transform="translate(-204.9 -155.7)"/>
          <path class="cls-4" d="M1040.7,252.3v19.8h-688V252.3a42.7,42.7,0,0,1,42.7-42.7H998.1A42.7,42.7,0,0,1,1040.7,252.3Z" transform="translate(-204.9 -155.7)"/>
          <path class="cls-5" d="M998.4,206c24.1.2,45.9,21.3,46,46.3v19.8a4.5,4.5,0,0,1-2.3,3.4l-1.4.3h-688l-1.4-.3-1.2-.8-.8-1.2-.3-1.4c0-12.1-1.3-24.1,2.6-35.2A47.6,47.6,0,0,1,395.1,206Q696.8,205.1,998.4,206Zm-603,7.3c-20.3.1-39,17.6-39,39v16.1h680.7c0-10.1,1-20.2-2.3-29.3a39.7,39.7,0,0,0-36.2-25.8C797.5,211.4,596.5,213.3,395.4,213.3Z" transform="translate(-204.9 -155.7)"/>
          <path class="cls-1" d="M352.7,364.3V272.1h688V749.9a47.4,47.4,0,0,1-47.4,47.4H400.1a47.4,47.4,0,0,1-47.4-47.4V397.2" transform="translate(-204.9 -155.7)"/>
          <path class="cls-5" d="M1042.1,268.7a4.3,4.3,0,0,1,2.3,3.4c0,159.4.5,318.8,0,478.2-.3,26.3-22.8,50.4-50.7,50.7q-297,.9-594,0c-26.4-.3-50.6-23.1-50.7-51V397.2a5,5,0,0,1,1.1-2.6l1.2-.8a4.5,4.5,0,0,1,2.8,0l1.2.8a5,5,0,0,1,1.1,2.6c0,117.7-.4,235.3,0,353,.2,22.4,19.2,43,43.1,43.4,198,1.9,396.1.6,594.1,0,22.7-.2,43.3-20,43.4-43.7V275.7H356.4v88.6a5,5,0,0,1-1.1,2.6l-1.2.8-1.4.3-1.4-.3-1.2-.8-.8-1.2-.3-1.4V272.1a5,5,0,0,1,1.1-2.6l1.2-.8,1.4-.3h688Z" transform="translate(-204.9 -155.7)"/>
          <path class="cls-1" d="M426,244.5a9.4,9.4,0,1,1-9.4-9.4,9.4,9.4,0,0,1,9.4,9.4" transform="translate(-204.9 -155.7)"/>
          <path class="cls-1" d="M522.8,244.5a9.4,9.4,0,1,1-9.4-9.4,9.4,9.4,0,0,1,9.4,9.4" transform="translate(-204.9 -155.7)"/>
          <path class="cls-1" d="M474.4,244.5a9.4,9.4,0,1,1-9.4-9.4,9.4,9.4,0,0,1,9.4,9.4" transform="translate(-204.9 -155.7)"/>
          <path class="cls-5" d="M379.6,753.9c2.3.2,1.8,3.7,2.7,6.2a11.9,11.9,0,0,0,11,7.6s4,2.5.9,4.1c-5.6,3-17-5.3-17-15.7C377.3,756.1,377.5,753.8,379.6,753.9Z" transform="translate(-204.9 -155.7)"/>
        </g>
        <g id="Globe-web">
          <path class="cls-1" d="M829.3,437.8a131.8,131.8,0,0,1-38.5,93.3,142.1,142.1,0,0,1-12.3,11,132.4,132.4,0,0,1-163.6,0,142.1,142.1,0,0,1-12.3-11,132.5,132.5,0,0,1,0-186.6,142.1,142.1,0,0,1,12.3-11,132.6,132.6,0,0,1,163.6.1,142.1,142.1,0,0,1,12.3,11,131.6,131.6,0,0,1,38.5,93.2" transform="translate(-204.9 -155.7)"/>
          <path class="cls-2" d="M697.5,303.1c50.8.4,99.8,31.5,121.4,77.7,24.9,53.2,10.8,122.1-36.5,161.1-38.3,31.6-94.7,39.6-140.7,19-39.2-17.6-69-55-77.2-97.2s5.7-90.6,38-122.2a135.6,135.6,0,0,1,92.7-38.4Zm-1.5,4.4c-39.4.3-78.1,19-102.6,50.8-29.2,37.9-35,92.3-14.5,135.4s67.8,74.2,117.1,74.5,98.5-30.2,119.5-76.6c21.8-48.1,11.1-108.9-27.7-147a132.5,132.5,0,0,0-89.7-37.2Z" transform="translate(-204.9 -155.7)"/>
          <path class="cls-1" d="M696.7,305.3V570.4" transform="translate(-204.9 -155.7)"/>
          <path class="cls-2" d="M697.4,303.2a2.4,2.4,0,0,1,1.5,2.1V570.4c-.3,2.4-4.1,2.8-4.4,0V305.3C694.8,303.1,695.4,302.7,697.4,303.2Z" transform="translate(-204.9 -155.7)"/>
          <path class="cls-1" d="M564.2,437.8H829.3" transform="translate(-204.9 -155.7)"/>
          <path class="cls-2" d="M829.8,435.7c2.1.7,2.3,4.1-.5,4.3H564.2c-2.4-.3-2.8-4.1,0-4.4H829.8Z" transform="translate(-204.9 -155.7)"/>
          <path class="cls-2" d="M697.1,303.6c20.1.3,37.1,16.7,47,32.7s15.8,33.4,19.7,51.2a2.9,2.9,0,0,1-.6,2.7,2.3,2.3,0,0,1-3.6-1.2c-5.3-24.7-14.1-49.8-33-67.7-9.3-8.8-22-14.8-34.9-13-16.1,2.3-29.1,15.3-38.2,29.8-25,39.9-28.8,91.4-21.6,137.1,4.6,28.9,13.6,58.9,35.3,79.4,9.3,8.7,22.1,14.7,35.1,12.7,15.9-2.5,28.8-15.3,37.8-29.7,15.6-24.9,22.2-54.9,24-84.7a246.1,246.1,0,0,0-1.3-44.6,3,3,0,0,1,1.3-2.3c3.3-1.5,3.8,7,4.3,13.7,3.3,46-2.7,95.2-32.1,130.8-1,1.2-1.9,2.3-3,3.4-11,11.9-27.3,20.7-44,17.5s-32.4-18.9-42-35.8c-21.3-37.4-26-82.9-21-126.2,3.6-31.3,11.7-62.9,33.7-87.2,9.1-10.2,21.7-18.3,36-18.6Z" transform="translate(-204.9 -155.7)"/>
          <path class="cls-2" d="M697.5,303.1a136.1,136.1,0,0,1,94.2,39.1c3.6,3.6-1.7,5.6-5.7,7.7-27.8,14.9-60.8,18.6-93,18.2-26.9-.4-54.1-3.9-78.7-14.9-4.6-2-9.6-3.7-13.2-7.2-2-1.9,2.3-5.6,5.6-8.6a135.9,135.9,0,0,1,88.5-34.5A9,9,0,0,0,697.5,303.1Zm-1.5,4.4a132.1,132.1,0,0,0-89.7,36.4l-.2.2c26.1,15.5,58,19.4,88.8,19.6s64.6-3.1,92.5-19.6a132.8,132.8,0,0,0-89.3-36.6Z" transform="translate(-204.9 -155.7)"/>
          <path class="cls-2" d="M697.7,507.5c31.6.2,64.5,4.1,91.4,20l1,.6c2.2,1.3,5,2,1.2,5.7-38.1,37.5-99.1,49.1-148.4,27.6a134.2,134.2,0,0,1-41.5-28.3c-1.1-1.1-.7-3.3,1-4.4,14.7-9.3,31.7-14.1,48.8-17.2A258.4,258.4,0,0,1,697.7,507.5Zm-1.9,4.4c-31.3.2-63.7,4.2-89.7,19.7h0c36.9,35.7,95.9,46.5,143.3,25.5a131.7,131.7,0,0,0,37.7-25.4l.2-.2C760.4,515.5,726.5,511.8,695.8,511.9Z" transform="translate(-204.9 -155.7)"/>
        </g>
        <g id="Shape-9" data-name="Shape">
          <path class="cls-2" d="M1074.1,204.1c2,.2,2.9,3.6.4,4.3-4.6,1.1-9.2,1.9-13.9,2.8-2.1.4-4-3.4-1-4.3,4.6-1.1,9.2-1.9,13.9-2.8Z" transform="translate(-204.9 -155.7)"/>
          <path class="cls-2" d="M1042.3,170.9a2.2,2.2,0,0,1,2,2.6c-1,4.3-2.1,8.6-3.2,12.9-.6,2.1-4.8,2.1-4.3-1s2.2-8.6,3.2-12.8A2.2,2.2,0,0,1,1042.3,170.9Z" transform="translate(-204.9 -155.7)"/>
          <path class="cls-2" d="M1061,183.7a2.3,2.3,0,0,1,1.5,3.7c-3.4,3.4-7,6.6-10.5,9.9-1.6,1.4-5.3-.8-3.1-3.1s7-6.6,10.5-9.9A2.1,2.1,0,0,1,1061,183.7Z" transform="translate(-204.9 -155.7)"/>
        </g>
        <g id="Shape-10" data-name="Shape">
          <path class="cls-5" d="M386.2,155.8c2.2.5,2.3,4.2-.3,4.4H341.2c-25.7.2-49.4,22.4-49.4,49.7v78.9c-.2,2.3-4.2,2.7-4.4,0,0-26.4-.1-52.8,0-79.2.2-28.3,24.5-53.8,54.1-53.9h44.7Z" transform="translate(-204.9 -155.7)"/>
          <path class="cls-5" d="M289.7,301.9a2.2,2.2,0,0,1,2,2.1c.1,5.3,0,10.5,0,15.8-.1,2.3-4.2,2.8-4.4.1-.1-5.3,0-10.5,0-15.8A2.2,2.2,0,0,1,289.7,301.9Z" transform="translate(-204.9 -155.7)"/>
        </g>
      </g>
      <g id="Element-3" data-name="Element">
        <path id="Shape-11" data-name="Shape" class="cls-1" d="M1168.2,442.8V938.4a49.1,49.1,0,0,1-49.1,49.1H503.7a49.1,49.1,0,0,1-49.1-49.1V442.8Z" transform="translate(-204.9 -155.7)"/>
        <path id="Shape-12" data-name="Shape" class="cls-5" d="M1169.6,439.4a4.3,4.3,0,0,1,2.3,3.4c0,165.3.5,330.6,0,495.9-.3,27.2-23.5,52.2-52.4,52.4q-308.1.9-616.1,0c-27.5-.3-52.3-23.9-52.4-52.8V442.8l.3-1.4.8-1.2,1.2-.8,1.4-.3h713.6Zm-711.4,7c0,164.1-.5,328.2,0,492.2.2,23.2,20.2,44.9,45.2,45.2q308,.9,616,0c23.6-.2,45.1-20.6,45.2-45.5V446.4Z" transform="translate(-204.9 -155.7)"/>
        <path id="Shape-13" data-name="Shape" class="cls-6" d="M1168.2,422.3v20.5H454.6V422.3A44.2,44.2,0,0,1,498.8,378h625.1A44.3,44.3,0,0,1,1168.2,422.3Z" transform="translate(-204.9 -155.7)"/>
        <path id="Shape-14" data-name="Shape" class="cls-5" d="M1124.2,374.3c24.8.2,47.5,21.7,47.6,47.9v20.5a4.5,4.5,0,0,1-2.3,3.4l-1.4.3H454.6l-1.4-.3a4.8,4.8,0,0,1-2-2l-.3-1.4c0-12.7-1.3-25.4,2.9-37,6.6-18.1,24.8-31.2,44.7-31.4Q811.4,373.4,1124.2,374.3Zm-625.4,7.4c-21.2.1-40.5,18.6-40.6,40.6v16.8h706.3c0-10.5,1.1-21-2.4-30.6-5.5-15.4-21-26.6-37.7-26.9C915.9,379.7,707.4,381.7,498.8,381.7Z" transform="translate(-204.9 -155.7)"/>
        <path id="Shape-15" data-name="Shape" class="cls-1" d="M530.6,414.2a9.7,9.7,0,1,1-9.7-9.7,9.6,9.6,0,0,1,9.7,9.7" transform="translate(-204.9 -155.7)"/>
        <path id="Shape-16" data-name="Shape" class="cls-1" d="M630.9,414.2a9.7,9.7,0,1,1-9.7-9.7,9.6,9.6,0,0,1,9.7,9.7" transform="translate(-204.9 -155.7)"/>
        <path id="Shape-17" data-name="Shape" class="cls-1" d="M580.8,414.2a9.7,9.7,0,1,1-9.7-9.7,9.6,9.6,0,0,1,9.7,9.7" transform="translate(-204.9 -155.7)"/>
        <path id="Shape-18" data-name="Shape" class="cls-7" d="M1128.1,401c8.6.2,16.2,7.5,16.3,16.3,0,2.4-4.3,3.8-4.4-.3a12.6,12.6,0,0,0-12.1-11.7,2.6,2.6,0,0,1-1.7-.9A2.1,2.1,0,0,1,1128.1,401Z" transform="translate(-204.9 -155.7)"/>
        <path id="Shape-19" data-name="Shape" class="cls-1" d="M988.6,663.7a29.7,29.7,0,0,1-29.7,29.7h-295a29.7,29.7,0,0,1-29.7-29.7A29.7,29.7,0,0,1,663.9,634H958.8a29.8,29.8,0,0,1,29.8,29.7" transform="translate(-204.9 -155.7)"/>
        <path id="Shape-20" data-name="Shape" class="cls-5" d="M959,630.3c18.9.2,35.7,18.6,32.8,38.3-2.3,15.4-16.4,28.3-32.6,28.5q-147.9,1.5-295.8,0c-15.3-.2-29.6-12-32.4-27.3-3.5-18.9,11.9-39.3,32.6-39.5Q811.4,629.9,959,630.3Zm-295.1,7.4c-11.9,0-23.2,9.1-25.6,20.8-3,14.8,9,31.2,25.4,31.3,98.5.3,196.9,1,295.4,0,12-.2,23.1-9.4,25.3-21.3,2.7-14.8-9.3-30.7-25.5-30.9C860.6,637.3,762.3,637.7,663.9,637.7Z" transform="translate(-204.9 -155.7)"/>
        <path id="W-3" class="cls-8" d="M831.4,680.7l5.8-22.6,5.3,22.6h5.7l9-31.4c0-.1-.1-.3-.2-.3h-4.7l-7,25.9L839.4,649h-4.1l-6.6,26.1L822,649.4h-4.6c-.2,0-.4.2-.3.4l8.7,30.9Z" transform="translate(-204.9 -155.7)"/>
        <path id="W-2" class="cls-8" d="M771.9,681l5.8-22.4L783,681h5.7l9-31.3c0-.1-.1-.3-.2-.3h-4.7l-7,25.8-5.9-25.8h-4.2l-6.6,26-6.7-25.6h-4.6c-.2,0-.4.2-.3.4l8.7,30.7h5.7Z" transform="translate(-204.9 -155.7)"/>
        <path id="W-1" class="cls-8" d="M712.3,681l5.8-22.6,5.3,22.6h5.7l9-31.4c0-.1-.1-.3-.2-.3h-4.7l-7,25.9-5.9-25.9h-4.2l-6.6,26.1-6.7-25.7h-4.6c-.2,0-.4.2-.3.4l8.7,30.9Z" transform="translate(-204.9 -155.7)"/>
        <path id="Shape-21" data-name="Shape" class="cls-9" d="M988.6,663.7a29.7,29.7,0,0,1-29.7,29.7H943.7V634h15.2a29.8,29.8,0,0,1,29.7,29.7" transform="translate(-204.9 -155.7)"/>
        <path id="Shape-22" data-name="Shape" class="cls-5" d="M959,630.3c15.2.1,29.5,11.7,32.5,26.9,3.8,19.1-11.8,39.8-32.8,39.9H943.5a3.6,3.6,0,0,1-3.7-3.7V634a3.6,3.6,0,0,1,3.7-3.7Zm-11.7,7.4v52.1c7.6,0,15.2.7,21.8-2.1,14.8-6.4,20.8-28.2,9.2-41.3a26.3,26.3,0,0,0-19.3-8.8Z" transform="translate(-204.9 -155.7)"/>
        <path id="Shape-23" data-name="Shape" class="cls-5" d="M601,838.2a1.8,1.8,0,0,1,1.5.7L628.1,866a1.7,1.7,0,0,1,.5,2,2.2,2.2,0,0,1-3.7,1l-25.6-27.2a1.7,1.7,0,0,1-.6-1.5C598.7,839.2,599.2,838.2,601,838.2Z" transform="translate(-204.9 -155.7)"/>
        <path id="Shape-24" data-name="Shape" class="cls-5" d="M617.7,838.3c2.3.1,5.1,4.4,7.9,7.4s-.9,5.2-3.2,3-6.9-6.4-7-8.2A2.3,2.3,0,0,1,617.7,838.3Z" transform="translate(-204.9 -155.7)"/>
        <path id="Shape-25" data-name="Shape" class="cls-5" d="M596.7,851.3a2.5,2.5,0,0,1,1.4.6c4.7,4.7,9.2,9.7,13.8,14.6,1.5,1.6-.9,5.1-3.1,3.1-4.7-4.7-9.2-9.7-13.8-14.6A2.2,2.2,0,0,1,596.7,851.3Z" transform="translate(-204.9 -155.7)"/>
        <path id="Shape-26" data-name="Shape" class="cls-5" d="M1067.7,1032.4c2.2.2,2.9,4.3-.1,4.4h-19.2c-2.2-.1-3.1-4.3,0-4.4C1054.8,1032.4,1061.3,1032.2,1067.7,1032.4Z" transform="translate(-204.9 -155.7)"/>
        <path id="Shape-27" data-name="Shape" class="cls-5" d="M1222.1,947.7c1.6.4,1.7.7,1.9,2.2V983c-.3,28.2-24.5,53.7-54.1,53.8h-87.1c-2.3-.2-3-4.2,0-4.4h87.4c25.8-.2,49.3-22.5,49.4-49.7V949.9C1219.7,948,1220.2,947.6,1222.1,947.7Z" transform="translate(-204.9 -155.7)"/>
      </g>
      <g id="Element-4" data-name="Element">
        <path id="Shape-28" data-name="Shape" class="cls-10" d="M1194.1,768.2l10.3-13.3" transform="translate(-204.9 -155.7)"/>
        <path id="Shape-29" data-name="Shape" class="cls-5" d="M981.5,571.3a2.3,2.3,0,0,1,1.2,4c-3.9,2.7-7.9,5.2-11.8,7.8-1.9,1.2-4.6-2-2.5-3.6,3.9-2.7,7.9-5.2,11.8-7.8A2.2,2.2,0,0,1,981.5,571.3Z" transform="translate(-204.9 -155.7)"/>
        <path id="Shape-30" data-name="Shape" class="cls-5" d="M939.5,552.5a2.3,2.3,0,0,1,2.1,1.8c.7,4.4,1.3,8.7,1.9,13.1.3,2.2-3.7,3.5-4.3.7-.7-4.4-1.3-8.7-1.9-13.1A2.1,2.1,0,0,1,939.5,552.5Z" transform="translate(-204.9 -155.7)"/>
        <path id="Shape-31" data-name="Shape" class="cls-5" d="M961.8,557.3a2.3,2.3,0,0,1,1.9,3c-1.9,4.4-4,8.8-6.1,13.1-1,2-5.1,1.1-4-1.7,1.9-4.4,4-8.8,6.1-13.1A2,2,0,0,1,961.8,557.3Z" transform="translate(-204.9 -155.7)"/>
      </g>
    </g>
  </g>
  <g id="Element-5" data-name="Element">
    <path id="Shape-32" data-name="Shape" class="cls-2" d="M495.8,852.4v59.5A28.8,28.8,0,0,1,467,940.7H258.8A28.8,28.8,0,0,1,230,911.9v-324a28.8,28.8,0,0,1,28.8-28.8H467a28.8,28.8,0,0,1,28.8,28.8V819.8" transform="translate(-204.9 -155.7)"/>
    <path id="Shape-33" data-name="Shape" class="cls-5" d="M467.2,555.3c17,.2,32.4,14.8,32.4,32.6V819.8l-.3,1.5-.8,1.3-1.3.8-1.5.3-1.5-.3-1.3-.8a5.4,5.4,0,0,1-1.1-2.7c0-77.4.7-154.8,0-232.2-.2-12.8-11.3-24.4-24.7-24.6-69.6-.2-139.1-.7-208.7,0-12.8.2-24.4,11.3-24.6,24.7-.3,108.2-1,216.4,0,324.5.2,12.8,11.3,24.5,24.7,24.6,69.6.2,139.1.7,208.7,0,12.9-.2,24.5-11.4,24.6-24.9V852.5a5,5,0,0,1,1.1-2.7l1.3-.8a5.1,5.1,0,0,1,3,0l1.3.8a5.4,5.4,0,0,1,1.1,2.7c0,20,.2,40,0,59.9-.3,16.7-14.6,31.9-32.2,32.2q-104.5,1-209,0c-16.8-.3-31.9-14.6-32.2-32.2q-1.5-162.4,0-324.9c.3-16.8,14.6-31.9,32.2-32.2C328,554.6,397.6,555,467.2,555.3Z" transform="translate(-204.9 -155.7)"/>
    <path id="Shape-34" data-name="Shape" class="cls-5" d="M467.7,574.5a13.1,13.1,0,0,1,12.5,11.8c.1,1.9-1.9,3.7-3.3,2.1s-.5-3-1.2-4.7c-1.4-3.3-4.9-5-8.4-5.4C465.4,578,464.9,574.5,467.7,574.5Z" transform="translate(-204.9 -155.7)"/>
    <path id="Shape-35" data-name="Shape" class="cls-5" d="M248.2,911.6c2,.2,1.6,3.3,2.5,5.4s5,4.9,8.3,5.3,2.7,4.1-1.3,3.8a13.1,13.1,0,0,1-11.7-12C246,912.9,246.7,911.5,248.2,911.6Z" transform="translate(-204.9 -155.7)"/>
    <path id="Shape-36" data-name="Shape" class="cls-6" d="M397.2,645.7H296.7a3.2,3.2,0,1,1,0-6.4H397.2a3.2,3.2,0,0,1,0,6.4" transform="translate(-204.9 -155.7)"/>
    <path id="Shape-37" data-name="Shape" class="cls-1" d="M343.3,657.3H296.8a3.2,3.2,0,0,1,0-6.4h46.5a3.2,3.2,0,0,1,3.2,3.2,3.2,3.2,0,0,1-3.2,3.2" transform="translate(-204.9 -155.7)"/>
    <path id="line-8" class="cls-6" d="M440.4,645.7H418.5a3.2,3.2,0,1,1,0-6.4h21.9a3.2,3.2,0,0,1,3.2,3.2,3.2,3.2,0,0,1-3.2,3.2" transform="translate(-204.9 -155.7)"/>
    <path id="Shape-38" data-name="Shape" class="cls-3" d="M397.2,657.3H357.6a3.2,3.2,0,0,1,0-6.4h39.6a3.2,3.2,0,0,1,0,6.4" transform="translate(-204.9 -155.7)"/>
    <path id="Shape-39" data-name="Shape" class="cls-3" d="M397.2,670.1H285.5a3.2,3.2,0,0,1,0-6.4H397.2a3.2,3.2,0,0,1,3.2,3.2,3.2,3.2,0,0,1-3.2,3.2" transform="translate(-204.9 -155.7)"/>
    <path id="Shape-40" data-name="Shape" class="cls-9" d="M323.7,682.8h-27a3.2,3.2,0,0,1,0-6.4h27a3.2,3.2,0,0,1,0,6.4" transform="translate(-204.9 -155.7)"/>
    <path id="Shape-41" data-name="Shape" class="cls-1" d="M397.3,682.8H359.6a3.2,3.2,0,0,1,0-6.4h37.7a3.2,3.2,0,0,1,3.2,3.2,3.1,3.1,0,0,1-3.2,3.2" transform="translate(-204.9 -155.7)"/>
    <path id="Shape-42" data-name="Shape" class="cls-6" d="M349.8,682.8H335.7a3.2,3.2,0,0,1,0-6.4h14.1a3.2,3.2,0,0,1,0,6.4" transform="translate(-204.9 -155.7)"/>
    <path id="Shape-43" data-name="Shape" class="cls-1" d="M323.6,706.3H289.8a3.2,3.2,0,0,1,0-6.4h33.8a3.2,3.2,0,1,1,0,6.4" transform="translate(-204.9 -155.7)"/>
    <path id="Shape-44" data-name="Shape" class="cls-3" d="M397.3,706.3H359.6a3.2,3.2,0,0,1,0-6.4h37.7a3.2,3.2,0,0,1,3.2,3.2,3.1,3.1,0,0,1-3.2,3.2" transform="translate(-204.9 -155.7)"/>
    <path id="line-6" class="cls-3" d="M348.4,706.3H334.3a3.2,3.2,0,0,1,0-6.4h14.1a3.2,3.2,0,0,1,0,6.4" transform="translate(-204.9 -155.7)"/>
    <path id="Shape-45" data-name="Shape" class="cls-1" d="M397.3,719.1H285.6a3.2,3.2,0,1,1,0-6.4H397.3a3.2,3.2,0,0,1,0,6.4" transform="translate(-204.9 -155.7)"/>
    <path id="Shape-46" data-name="Shape" class="cls-6" d="M440.4,706.3H418.5a3.2,3.2,0,0,1,0-6.4h21.9a3.2,3.2,0,0,1,3.2,3.2,3.2,3.2,0,0,1-3.2,3.2" transform="translate(-204.9 -155.7)"/>
    <path id="Shape-47" data-name="Shape" class="cls-9" d="M362,731.8H296.7a3.2,3.2,0,0,1,0-6.4H362a3.2,3.2,0,0,1,0,6.4" transform="translate(-204.9 -155.7)"/>
    <path id="Shape-48" data-name="Shape" class="cls-1" d="M397.2,731.8H372.7a3.2,3.2,0,0,1,0-6.4h24.5a3.2,3.2,0,0,1,0,6.4" transform="translate(-204.9 -155.7)"/>
    <path id="line-7" class="cls-6" d="M440.4,731.8H418.5a3.2,3.2,0,0,1,0-6.4h21.9a3.2,3.2,0,0,1,3.2,3.2,3.2,3.2,0,0,1-3.2,3.2" transform="translate(-204.9 -155.7)"/>
    <path id="Shape-49" data-name="Shape" class="cls-3" d="M323.1,744.5h-27a3.2,3.2,0,1,1,0-6.4h27a3.2,3.2,0,0,1,0,6.4" transform="translate(-204.9 -155.7)"/>
    <path id="Shape-50" data-name="Shape" class="cls-1" d="M397.2,744.5H359.5a3.2,3.2,0,1,1,0-6.4h37.7a3.2,3.2,0,0,1,0,6.4" transform="translate(-204.9 -155.7)"/>
    <path id="Shape-51" data-name="Shape" class="cls-3" d="M348.3,744.5H334.2a3.2,3.2,0,0,1,0-6.4h14.1a3.2,3.2,0,0,1,3.2,3.2,3.1,3.1,0,0,1-3.2,3.2" transform="translate(-204.9 -155.7)"/>
    <path id="Shape-52" data-name="Shape" class="cls-1" d="M440.4,744.5H418.5a3.2,3.2,0,1,1,0-6.4h21.9a3.2,3.2,0,0,1,3.2,3.2,3.2,3.2,0,0,1-3.2,3.2" transform="translate(-204.9 -155.7)"/>
    <path id="line-5" class="cls-6" d="M397.2,757.3H372.7a3.2,3.2,0,0,1,0-6.4h24.5a3.2,3.2,0,0,1,3.2,3.2,3.2,3.2,0,0,1-3.2,3.2" transform="translate(-204.9 -155.7)"/>
    <path id="Shape-53" data-name="Shape" class="cls-3" d="M440.4,757.3H418.5a3.2,3.2,0,0,1,0-6.4h21.9a3.2,3.2,0,0,1,3.2,3.2,3.3,3.3,0,0,1-3.2,3.2" transform="translate(-204.9 -155.7)"/>
    <path id="Shape-54" data-name="Shape" class="cls-1" d="M397.2,770H285.5a3.2,3.2,0,0,1,0-6.4H397.2a3.2,3.2,0,0,1,0,6.4" transform="translate(-204.9 -155.7)"/>
    <path id="Shape-55" data-name="Shape" class="cls-1" d="M355,782.8H296.7a3.2,3.2,0,0,1,0-6.4H355a3.2,3.2,0,0,1,0,6.4" transform="translate(-204.9 -155.7)"/>
    <path id="Shape-56" data-name="Shape" class="cls-3" d="M397.2,782.8H365.5a3.2,3.2,0,0,1,0-6.4h31.7a3.2,3.2,0,0,1,0,6.4" transform="translate(-204.9 -155.7)"/>
    <path id="Shape-57" data-name="Shape" class="cls-9" d="M397.2,795.5H285.5a3.2,3.2,0,0,1,0-6.4H397.2a3.2,3.2,0,0,1,0,6.4" transform="translate(-204.9 -155.7)"/>
    <path id="line-3" class="cls-3" d="M440.4,795.5H418.5a3.2,3.2,0,1,1,0-6.4h21.9a3.2,3.2,0,0,1,3.2,3.2,3.2,3.2,0,0,1-3.2,3.2" transform="translate(-204.9 -155.7)"/>
    <path id="Shape-58" data-name="Shape" class="cls-1" d="M397.2,808.2H359.5a3.2,3.2,0,1,1,0-6.4h37.7a3.2,3.2,0,0,1,0,6.4" transform="translate(-204.9 -155.7)"/>
    <path id="Shape-59" data-name="Shape" class="cls-1" d="M349.7,808.2H335.6a3.2,3.2,0,1,1,0-6.4h14.1a3.2,3.2,0,0,1,3.2,3.2,3.2,3.2,0,0,1-3.2,3.2" transform="translate(-204.9 -155.7)"/>
    <path id="Shape-60" data-name="Shape" class="cls-1" d="M440.4,808.2H418.5a3.2,3.2,0,1,1,0-6.4h21.9a3.2,3.2,0,0,1,3.2,3.2,3.2,3.2,0,0,1-3.2,3.2" transform="translate(-204.9 -155.7)"/>
    <path id="Shape-61" data-name="Shape" class="cls-1" d="M309.5,831.7H289.8a3.2,3.2,0,1,1,0-6.4h19.7a3.2,3.2,0,0,1,0,6.4" transform="translate(-204.9 -155.7)"/>
    <path id="Shape-62" data-name="Shape" class="cls-3" d="M397.3,831.7H359.6a3.2,3.2,0,1,1,0-6.4h37.7a3.2,3.2,0,0,1,0,6.4" transform="translate(-204.9 -155.7)"/>
    <path id="line-4" class="cls-3" d="M347.2,831.7H322a3.2,3.2,0,1,1,0-6.4h25.2a3.2,3.2,0,0,1,3.2,3.2,3.2,3.2,0,0,1-3.2,3.2" transform="translate(-204.9 -155.7)"/>
    <path id="Shape-63" data-name="Shape" class="cls-1" d="M397.2,844.5H285.5a3.2,3.2,0,0,1,0-6.4H397.2a3.2,3.2,0,0,1,3.2,3.2,3.2,3.2,0,0,1-3.2,3.2" transform="translate(-204.9 -155.7)"/>
    <path id="Shape-64" data-name="Shape" class="cls-1" d="M351.2,857.2H296.7a3.2,3.2,0,1,1,0-6.4h54.5a3.2,3.2,0,0,1,0,6.4" transform="translate(-204.9 -155.7)"/>
    <path id="Shape-65" data-name="Shape" class="cls-6" d="M397.2,857.2H365.5a3.2,3.2,0,1,1,0-6.4h31.7a3.2,3.2,0,0,1,0,6.4" transform="translate(-204.9 -155.7)"/>
    <path id="line-1" class="cls-9" d="M440.4,857.2H418.5a3.2,3.2,0,1,1,0-6.4h21.9a3.2,3.2,0,0,1,3.2,3.2,3.2,3.2,0,0,1-3.2,3.2" transform="translate(-204.9 -155.7)"/>
    <path id="Shape-66" data-name="Shape" class="cls-9" d="M323.5,870h-27a3.2,3.2,0,1,1,0-6.4h27a3.2,3.2,0,0,1,3.2,3.2,3.2,3.2,0,0,1-3.2,3.2" transform="translate(-204.9 -155.7)"/>
    <path id="Shape-67" data-name="Shape" class="cls-1" d="M397.2,870H359.5a3.2,3.2,0,1,1,0-6.4h37.7a3.2,3.2,0,0,1,3.2,3.2,3.2,3.2,0,0,1-3.2,3.2" transform="translate(-204.9 -155.7)"/>
    <path id="Shape-68" data-name="Shape" class="cls-1" d="M349.6,870H335.5a3.2,3.2,0,1,1,0-6.4h14.1a3.2,3.2,0,0,1,3.2,3.2,3.3,3.3,0,0,1-3.2,3.2" transform="translate(-204.9 -155.7)"/>
    <path id="Shape-69" data-name="Shape" class="cls-3" d="M397.2,882.7H295.7a3.2,3.2,0,1,1,0-6.4H397.2a3.2,3.2,0,0,1,0,6.4" transform="translate(-204.9 -155.7)"/>
    <path id="Shape-70" data-name="Shape" class="cls-3" d="M397.2,895.4H359.5a3.2,3.2,0,1,1,0-6.4h37.7a3.2,3.2,0,0,1,0,6.4" transform="translate(-204.9 -155.7)"/>
    <path id="Shape-71" data-name="Shape" class="cls-6" d="M350.3,895.4H336.2a3.2,3.2,0,0,1,0-6.4h14.1a3.2,3.2,0,0,1,3.2,3.2,3.2,3.2,0,0,1-3.2,3.2" transform="translate(-204.9 -155.7)"/>
    <path id="line-2" class="cls-6" d="M440.4,895.4H418.5a3.2,3.2,0,1,1,0-6.4h21.9a3.2,3.2,0,0,1,3.2,3.2,3.2,3.2,0,0,1-3.2,3.2" transform="translate(-204.9 -155.7)"/>
    <path id="Shape-72" data-name="Shape" class="cls-1" d="M281.5,604a1.3,1.3,0,0,1,.1.6v.6a5.9,5.9,0,0,1-.2,1.4,6.1,6.1,0,0,1-.5,1.2,3.9,3.9,0,0,1-1,.8,3.3,3.3,0,0,1-1.5.3,3.3,3.3,0,0,1-1.7-.4l-2.1-1.1-9-5.2a7.3,7.3,0,0,1-.6-6.5,3.6,3.6,0,0,1,1.5-1.5l11.5-6.7a5.6,5.6,0,0,1,2.8,1.5,3.1,3.1,0,0,1,.7,2,3.3,3.3,0,0,1-.7,2.3,6.5,6.5,0,0,1-2.2,1.5l-7.4,3.7Z" transform="translate(-204.9 -155.7)"/>
    <path id="Shape-73" data-name="Shape" class="cls-1" d="M288.9,613.6h-2.1a4.1,4.1,0,0,1-2.7-.8,3,3,0,0,1-.9-2.4,9.1,9.1,0,0,1,.3-2.3c.2-.8.4-1.4.6-2l7.4-26.6h2.2a4.5,4.5,0,0,1,2.7.7,2.5,2.5,0,0,1,1,2.3,8.5,8.5,0,0,1-.3,2.3l-.6,2.2Z" transform="translate(-204.9 -155.7)"/>
    <path id="Shape-74" data-name="Shape" class="cls-1" d="M298.8,592.6a1.3,1.3,0,0,1-.1-.6v-.6a5.9,5.9,0,0,1,.2-1.4,6.1,6.1,0,0,1,.5-1.2,3.9,3.9,0,0,1,1-.8,3.3,3.3,0,0,1,1.5-.3,3.3,3.3,0,0,1,1.7.4l2.1,1.1,9,5.2a6.3,6.3,0,0,1,1.1,3.8,6.2,6.2,0,0,1-.5,2.7,3.6,3.6,0,0,1-1.5,1.5l-11.5,6.7a5.6,5.6,0,0,1-2.8-1.5,3.1,3.1,0,0,1-.7-2,3.3,3.3,0,0,1,.7-2.3,6.5,6.5,0,0,1,2.2-1.5l7.4-3.7Z" transform="translate(-204.9 -155.7)"/>
    <path id="Shape-75" data-name="Shape" class="cls-11" d="M236,536.8c1.8.3,1.7,1.1,1.7,1.9s-3.2,1.9-5.7,2.2c-12.6,1.8-23,13.4-23.1,26.6v33c-.1,1.3-.6,1.5-1.1,1.7a2,2,0,0,1-2.8-1.7c0-11.1-.1-22.3,0-33.4.2-15.8,13.8-30,30.3-30.3Z" transform="translate(-204.9 -155.7)"/>
    <path id="Shape-76" data-name="Shape" class="cls-5" d="M276.3,536.8c2,.2,2.6,3.8-.1,3.9H257.4c-1.4,0-1.4-.5-1.7-1.1a2,2,0,0,1,1.7-2.8C263.7,536.8,270,536.6,276.3,536.8Z" transform="translate(-204.9 -155.7)"/>
    <path id="Shape-77" data-name="Shape" class="cls-5" d="M524.8,894.6a1.9,1.9,0,0,1,1.7,1.9c0,11.1.1,22.3,0,33.4-.2,15.8-13.8,30-30.3,30.3a2.4,2.4,0,0,1-1.9-.7c-1-1.3-.3-3.1,2.2-3.2,13.7-.4,26.1-12.3,26.1-26.8v-33A2.2,2.2,0,0,1,524.8,894.6Z" transform="translate(-204.9 -155.7)"/>
    <path id="Shape-78" data-name="Shape" class="cls-5" d="M524.7,866.6a1.9,1.9,0,0,1,1.8,1.8c.1,3.7,0,7.4,0,11.1,0,1.8-3.7,2.9-3.9.1s0-7.4,0-11.1A2,2,0,0,1,524.7,866.6Z" transform="translate(-204.9 -155.7)"/>
  </g>
</svg>
