<?xml version="1.0" encoding="utf-8"?>
<!-- Generator: Adobe Illustrator 24.1.3, SVG Export Plug-In . SVG Version: 6.00 Build 0)  -->
<svg version="1.1" id="Lag_1" xmlns="http://www.w3.org/2000/svg" xmlns:xlink="http://www.w3.org/1999/xlink" x="0px" y="0px"
	 viewBox="0 0 1600 1200" style="enable-background:new 0 0 1600 1200;" xml:space="preserve">
<style type="text/css">
	.st0{fill:#FFFFFF;}
	.st1{fill:#DCD6E3;}
	.st2{fill-rule:evenodd;clip-rule:evenodd;fill:#F2B164;}
	.st3{fill:#DB5D60;fill-opacity:0.3;}
	.st4{fill:#3B1B6A;}
	.st5{fill-rule:evenodd;clip-rule:evenodd;fill:#DB5D60;}
	.st6{fill-rule:evenodd;clip-rule:evenodd;fill:#7C76BB;}
	.st7{fill-rule:evenodd;clip-rule:evenodd;fill:#2E3640;}
	.st8{fill-rule:evenodd;clip-rule:evenodd;fill:#FF9490;}
	.st9{fill:#73706B;}
	.st10{opacity:0.88;fill:#3B1B6A;}
</style>
<desc>Created with Sketch.</desc>
<g id="Search">
	<g transform="translate(201.000000, 155.000000)">
		<g id="Background" transform="translate(87.341463, 114.146341)">
			<g id="Element" transform="translate(531.682927, 0.000000)">
				<path id="Shape" class="st0" d="M366.9,98.1H22.3c-10.9,0-19.7-8.8-19.7-19.7V22.8c0-10.9,8.8-19.7,19.7-19.7h344.6
					c10.9,0,19.7,8.8,19.7,19.7v55.6C386.6,89.3,377.8,98.1,366.9,98.1z"/>
				<path id="Shape_1_" class="st1" d="M367.2,0.9c11.3,0.2,21.4,9.8,21.6,21.6c0.1,18.7,0.1,37.4,0,56.1
					c-0.2,11.3-9.8,21.4-21.6,21.6c-115,0.7-230.1,0.7-345.1,0c-11.3-0.2-21.4-10-21.6-21.6C0.3,60,0.3,41.2,0.4,22.5
					C0.6,11.2,10.2,1.1,22.1,0.9C137.1,0.2,252.1,0.2,367.2,0.9z M22.4,5.3C13.2,5.3,5,13.1,4.8,22.6c-0.1,18.7-0.1,37.4,0,56
					c0.2,9,7.8,17.1,17.3,17.3c115,0.7,230,0.7,345,0c9-0.2,17.1-7.8,17.3-17.3c0.1-18.7,0.1-37.4,0-56c-0.2-9.1-8-17.1-17.3-17.3
					C252.2,4.5,137.3,5.3,22.4,5.3z"/>
				<path id="Shape_2_" class="st0" d="M314.7,31.2h21.6"/>
				<path id="Shape_3_" class="st1" d="M336.5,29c1.6,0.2,1.6,0.6,1.9,1.3c0.6,1.3-0.5,3-2,3.1h-21.6c-1.6,0-1.6-0.5-2-1.2
					c-0.7-1.3,0.3-3.1,2-3.2C322,29,329.2,28.7,336.5,29z"/>
				<path id="Shape_4_" class="st0" d="M45.4,31.2h252.1"/>
				<path id="Shape_5_" class="st1" d="M297.9,29c2,0.7,2.4,4-0.5,4.3H45.4c-2.3-0.2-2.9-4.1,0-4.4h252.1
					C297.6,29,297.8,29,297.9,29z"/>
				<path id="Shape_6_" class="st0" d="M226.2,50.6h110.1"/>
				<path id="Shape_7_" class="st1" d="M336.6,48.4c2.3,0.5,2.3,4.2-0.3,4.4H226.2c-2.3-0.2-3.3-4.2,0-4.4h110.1
					C336.4,48.4,336.5,48.4,336.6,48.4z"/>
				<path id="Shape_8_" class="st0" d="M45.4,50.6h118.1"/>
				<path id="Shape_9_" class="st1" d="M163.8,48.4c2.1,0.5,2.8,4.1-0.3,4.4H45.4c-2.3-0.2-2.9-4.2,0-4.4h118.1
					C163.6,48.4,163.7,48.4,163.8,48.4z"/>
				<path id="Shape_10_" class="st0" d="M45.4,69.7h245.6"/>
				<path id="Shape_11_" class="st1" d="M291.4,67.5c2.1,0.7,2.3,4.1-0.5,4.3H45.4c-2.4-0.2-2.7-4.1,0-4.4h245.6
					C291.1,67.5,291.3,67.5,291.4,67.5z"/>
			</g>
			<g id="Element_1_" transform="translate(0.000000, 546.317073)">
				<path id="Shape_12_" class="st0" d="M366.6,98.3H22c-10.9,0-19.7-8.8-19.7-19.7V22.9C2.3,12,11.1,3.2,22,3.2h344.6
					c10.9,0,19.7,8.8,19.7,19.7v55.6C386.3,89.4,377.5,98.3,366.6,98.3z"/>
				<path id="Shape_13_" class="st1" d="M366.8,1c11.3,0.2,21.4,9.8,21.6,21.6c0.1,18.7,0.1,37.4,0,56.1
					c-0.2,11.3-9.8,21.4-21.6,21.6c-115,0.7-230.1,0.7-345.1,0c-11.3-0.2-21.4-9.8-21.6-21.6C0,60.1,0,41.4,0.1,22.7
					C0.3,11.4,9.9,1.2,21.7,1C136.8,0.3,251.8,0.3,366.8,1z M22,5.4C12.9,5.5,4.7,13.3,4.5,22.7c-0.1,18.7-0.1,37.4,0,56
					c0.2,9,8,17.1,17.3,17.3c115,0.7,230,0.7,345,0c9-0.2,17.1-7.8,17.3-17.3c0.1-18.7,0.1-37.4,0-56c-0.2-9-8-17.1-17.3-17.3
					C251.9,4.7,136.9,5.4,22,5.4z"/>
				<path id="Shape_14_" class="st0" d="M87.4,50.7c0,14.8-12,26.7-26.7,26.7c-14.8,0-26.7-12-26.7-26.7C33.9,36,45.9,24,60.7,24
					C75.4,24,87.4,36,87.4,50.7"/>
				<path id="Shape_15_" class="st1" d="M61,21.8c16.4,0.3,30.6,16.3,28.3,32.9c-1.9,13.6-14.8,24.9-28.6,24.9
					c-16.7,0-31.5-16.9-28.5-34c2.3-13,14.4-23.5,28.1-23.8C60.7,21.8,60.7,21.8,61,21.8z M60.3,26.2C44.2,26.5,31,45.6,38.6,61.4
					c5.4,11.1,19.9,16.8,31.4,12.1c12.5-5.1,19-21.7,12.4-34.1C78.3,31.6,69.9,26.4,61,26.2C60.7,26.2,60.7,26.2,60.3,26.2z"/>
				<path id="Shape_16_" class="st0" d="M301.5,30.1h21.6"/>
				<path id="Shape_17_" class="st1" d="M323.2,27.9c2,0.2,1.9,0.8,2.1,2c0.1,1.2-0.9,2.4-2.2,2.4h-21.6c-2.3-0.1-3.1-4.3,0-4.4
					C308.7,27.9,316,27.7,323.2,27.9z"/>
				<path id="Shape_18_" class="st0" d="M115,30.1h169.2"/>
				<path id="Shape_19_" class="st1" d="M284.6,27.9c2.1,0.6,2.3,4.1-0.4,4.4H115c-2.4-0.2-2.8-4.1,0-4.4h169.2
					C284.3,27.9,284.4,27.9,284.6,27.9z"/>
				<path id="Shape_20_" class="st0" d="M212.9,49.5h110.1"/>
				<path id="Shape_21_" class="st1" d="M323.4,47.3c2.2,0.5,2.4,4.2-0.3,4.4H212.9c-1-0.1-1.2-0.3-1.6-0.7
					c-1.1-1.2-0.3-3.6,1.6-3.7h110.1C323.2,47.3,323.3,47.3,323.4,47.3z"/>
				<path id="Shape_22_" class="st0" d="M115,49.5h79.3"/>
				<path id="Shape_23_" class="st1" d="M194.5,47.3c2.2,0.4,2.8,4.2-0.3,4.4H115c-2.3-0.1-3.2-4.2,0-4.4h79.3
					C194.4,47.3,194.5,47.3,194.5,47.3z"/>
				<path id="Shape_24_" class="st0" d="M115,68.6h130.3"/>
				<path id="Shape_25_" class="st1" d="M245.6,66.4c2.2,0.5,2.3,4.2-0.3,4.4H115c-2.3-0.2-2.9-4.2,0-4.4h130.3
					C245.4,66.4,245.5,66.4,245.6,66.4z"/>
			</g>
		</g>
		<g id="Element_6_" transform="translate(85.707317, 0.000000)">
			<g id="Shape_52_" transform="translate(62.097561, 49.756098)">
				<path class="st2" d="M691.9,47.5v19.8H3.9V47.5C3.9,23.9,23,4.8,46.6,4.8h602.7C672.8,4.8,691.9,23.9,691.9,47.5z"/>
				<path class="st3" d="M691.9,47.5v19.8H3.9V47.5C3.9,23.9,23,4.8,46.6,4.8h602.7C672.8,4.8,691.9,23.9,691.9,47.5z"/>
				<path class="st4" d="M649.6,1.2c24.1,0.2,45.9,21.3,46,46.3v19.8c-0.5,2.4-1.5,2.8-2.3,3.4l-1.4,0.3H3.9l-1.4-0.3l-1.2-0.8
					l-0.8-1.2l-0.3-1.4c0-12.1-1.3-24.1,2.6-35.2C9.2,14.3,27,1.4,46.3,1.2C247.4,0.6,448.5,0.6,649.6,1.2z M46.6,8.5
					c-20.3,0.1-39,17.6-39,39v16.1h680.7c0-10.1,1-20.2-2.3-29.3c-5.3-14.8-20.1-25.6-36.2-25.8C448.7,6.6,247.7,8.5,46.6,8.5z"/>
				<path class="st0" d="M3.9,159.5V67.3h688v477.8c0,26.2-21.2,47.4-47.4,47.4H51.3c-26.2,0-47.4-21.2-47.4-47.4V192.4"/>
				<path class="st4" d="M693.3,63.9c2,1.3,2.1,2.4,2.3,3.4c0,159.4,0.5,318.8,0,478.2c-0.3,26.3-22.8,50.4-50.7,50.7
					c-198,0.6-396,0.6-594,0c-26.4-0.3-50.6-23.1-50.7-51V192.4c0.3-1.4,0.3-1.4,1.1-2.6l1.2-0.8c1.4-0.3,1.4-0.3,2.8,0l1.2,0.8
					c0.8,1.2,0.8,1.2,1.1,2.6c0,117.7-0.4,235.3,0,353c0.2,22.4,19.2,43,43.1,43.4c198,1.9,396.1,0.6,594.1,0
					c22.7-0.2,43.3-20,43.4-43.7V70.9H7.6v88.6c-0.3,1.4-0.3,1.4-1.1,2.6l-1.2,0.8l-1.4,0.3l-1.4-0.3l-1.2-0.8l-0.8-1.2l-0.3-1.4
					V67.3c0.3-1.4,0.3-1.4,1.1-2.6l1.2-0.8l1.4-0.3h688C692.4,63.7,692.9,63.8,693.3,63.9z"/>
				<path class="st0" d="M77.2,39.7c0,5.2-4.2,9.4-9.4,9.4c-5.2,0-9.4-4.2-9.4-9.4s4.2-9.4,9.4-9.4C73.1,30.3,77.2,34.5,77.2,39.7"
					/>
				<path class="st0" d="M174,39.7c0,5.2-4.2,9.4-9.4,9.4c-5.2,0-9.4-4.2-9.4-9.4s4.2-9.4,9.4-9.4C169.8,30.3,174,34.5,174,39.7"/>
				<path class="st0" d="M125.6,39.7c0,5.2-4.2,9.4-9.4,9.4c-5.2,0-9.4-4.2-9.4-9.4s4.2-9.4,9.4-9.4
					C121.4,30.3,125.6,34.5,125.6,39.7"/>
				<path class="st4" d="M30.8,549.1c2.3,0.2,1.8,3.7,2.7,6.2c1.6,4.5,6.1,7.5,11,7.6c0,0,4,2.5,0.9,4.1c-5.6,3-17-5.3-17-15.7
					C28.5,551.3,28.7,549,30.8,549.1z"/>
			</g>
			<g id="Globe-web" transform="translate(275.292683, 147.341463)">
				<path class="st0" d="M267.3,135.5c0,36.4-14.7,69.4-38.5,93.3c-3.9,3.9-8,7.6-12.3,11c-22.5,17.7-51,28.3-81.8,28.3
					c-30.9,0-59.3-10.6-81.8-28.3c-4.3-3.4-8.4-7.1-12.3-11c-23.8-24-38.4-56.9-38.4-93.3s14.7-69.4,38.4-93.3
					c3.9-3.9,8-7.6,12.3-11C75.4,13.5,103.9,3,134.7,3c30.9,0,59.3,10.6,81.8,28.3c4.3,3.4,8.4,7.1,12.3,11
					C252.6,66.2,267.3,99.1,267.3,135.5"/>
				<path class="st1" d="M135.5,0.8c50.8,0.4,99.8,31.5,121.4,77.7c24.9,53.2,10.8,122.1-36.5,161.1c-38.3,31.6-94.7,39.6-140.7,19
					c-39.2-17.6-69-55-77.2-97.2C-6,117.8,8.2,70.8,40.5,39.2c24.4-24,58-37.9,92.7-38.4C134,0.8,134.7,0.8,135.5,0.8z M134,5.2
					C94.6,5.5,55.9,24.2,31.4,56c-29.2,37.9-35,92.3-14.5,135.4c20.9,44,67.8,74.2,117.1,74.5c49.9,0.3,98.5-30.2,119.5-76.6
					c21.8-48.1,11.1-108.9-27.7-147c-23.7-23.2-56.6-36.7-89.7-37.2C135.4,5.2,134.7,5.2,134,5.2z"/>
				<path class="st0" d="M134.7,3v265.1"/>
				<path class="st1" d="M135.4,0.9c0.9,0.4,1.4,1.1,1.5,2.1v265.1c-0.3,2.4-4.1,2.8-4.4,0V3C132.8,0.8,133.4,0.4,135.4,0.9z"/>
				<path class="st0" d="M2.2,135.5h265.1"/>
				<path class="st1" d="M267.8,133.4c2.1,0.7,2.3,4.1-0.5,4.3H2.2c-2.4-0.3-2.8-4.1,0-4.4h265.1
					C267.5,133.4,267.6,133.4,267.8,133.4z"/>
				<path class="st1" d="M135.1,1.3c20.1,0.3,37.1,16.7,47,32.7c9.7,15.6,15.8,33.4,19.7,51.2c0,0,0.5,1.7-0.6,2.7
					c-1.1,1-3.1,0.5-3.6-1.2c-5.3-24.7-14.1-49.8-33-67.7c-9.3-8.8-22-14.8-34.9-13c-16.1,2.3-29.1,15.3-38.2,29.8
					c-25,39.9-28.8,91.4-21.6,137.1c4.6,28.9,13.6,58.9,35.3,79.4c9.3,8.7,22.1,14.7,35.1,12.7c15.9-2.5,28.8-15.3,37.8-29.7
					c15.6-24.9,22.2-54.9,24-84.7c0.9-14.9,0.5-29.8-1.3-44.6c0,0,0.1-1.7,1.3-2.3c3.3-1.5,3.8,7,4.3,13.7
					c3.3,46-2.7,95.2-32.1,130.8c-1,1.2-1.9,2.3-3,3.4c-11,11.9-27.3,20.7-44,17.5c-18.1-3.5-32.4-18.9-42-35.8
					c-21.3-37.4-26-82.9-21-126.2c3.6-31.3,11.7-62.9,33.7-87.2C107.1,9.7,119.7,1.6,134,1.3C134.4,1.3,134.7,1.3,135.1,1.3z"/>
				<path class="st1" d="M135.5,0.8C170.4,1,205,15.3,229.7,39.9c3.6,3.6-1.7,5.6-5.7,7.7c-27.8,14.9-60.8,18.6-93,18.2
					c-26.9-0.4-54.1-3.9-78.7-14.9c-4.6-2-9.6-3.7-13.2-7.2c-2-1.9,2.3-5.6,5.6-8.6c24.1-21.6,55.6-34,88.5-34.5
					C134,0.8,134.7,0.8,135.5,0.8z M134,5.2c-33.2,0.3-65.7,13.4-89.7,36.4l-0.2,0.2c26.1,15.5,58,19.4,88.8,19.6
					c31.8,0.2,64.6-3.1,92.5-19.6C201.8,19,168.9,5.6,136.1,5.2C135.4,5.2,134.7,5.2,134,5.2z"/>
				<path class="st1" d="M135.7,205.2c31.6,0.2,64.5,4.1,91.4,20c0.3,0.2,0.7,0.4,1,0.6c2.2,1.3,5,2,1.2,5.7
					c-38.1,37.5-99.1,49.1-148.4,27.6c-15.5-6.7-29.6-16.4-41.5-28.3c-1.1-1.1-0.7-3.3,1-4.4c14.7-9.3,31.7-14.1,48.8-17.2
					C104.5,206.4,120.1,205.2,135.7,205.2z M133.8,209.6c-31.3,0.2-63.7,4.2-89.7,19.7v0C81,265,140,275.8,187.4,254.8
					c13.9-6.2,26.7-14.8,37.7-25.4l0.2-0.2C198.4,213.2,164.5,209.5,133.8,209.6z"/>
			</g>
			<g id="Shape_54_" transform="translate(749.268293, 14.634146)">
				<path class="st1" d="M38.1,34.5c2,0.2,2.9,3.6,0.4,4.3c-4.6,1.1-9.2,1.9-13.9,2.8c-2.1,0.4-4-3.4-1-4.3
					c4.6-1.1,9.2-1.9,13.9-2.8C37.7,34.5,37.7,34.5,38.1,34.5z"/>
				<path class="st1" d="M6.3,1.3c1.3,0.1,2.3,1.3,2,2.6c-1,4.3-2.1,8.6-3.2,12.9c-0.6,2.1-4.8,2.1-4.3-1C1.8,11.5,3,7.2,4,3
					C4.3,2,5,1.3,6.3,1.3z"/>
				<path class="st1" d="M25,14.1c1.7,0.1,2.8,2.4,1.5,3.7c-3.4,3.4-7,6.6-10.5,9.9c-1.6,1.4-5.3-0.8-3.1-3.1
					c3.4-3.4,7-6.6,10.5-9.9C23.9,14.3,24.2,14.1,25,14.1z"/>
			</g>
			<g id="Shape_55_">
				<path class="st4" d="M99.5,0.8c2.2,0.5,2.3,4.2-0.3,4.4c-14.9,0-29.8,0-44.7,0C28.8,5.4,5.1,27.6,5.1,54.9v78.9
					c-0.2,2.3-4.2,2.7-4.4,0c0-26.4-0.1-52.8,0-79.2C0.9,26.3,25.2,0.8,54.8,0.7h44.4C99.3,0.7,99.4,0.7,99.5,0.8z"/>
				<path class="st4" d="M3,146.9c1.1,0.1,1.9,1,2,2.1c0.1,5.3,0,10.5,0,15.8c-0.1,2.3-4.2,2.8-4.4,0.1c-0.1-5.3,0-10.5,0-15.8
					C0.7,147.8,1.5,146.8,3,146.9z"/>
			</g>
		</g>
		<g id="Element_7_" transform="translate(235.146341, 180.000000)">
			<path id="Shape_56_" class="st0" d="M732.1,107.8v495.6c0,27.1-22,49.1-49.1,49.1H67.6c-27.1,0-49.1-22-49.1-49.1V107.8H732.1z"
				/>
			<path id="Shape_57_" class="st4" d="M733.5,104.4c0.8,0.5,1.8,1,2.3,3.4c0,165.3,0.5,330.6,0,495.9
				c-0.3,27.2-23.5,52.2-52.4,52.4c-205.4,0.6-410.7,0.6-616.1,0c-27.5-0.3-52.3-23.9-52.4-52.8V107.8l0.3-1.4l0.8-1.2l1.2-0.8
				l1.4-0.3h713.6C732.5,104.2,733,104.3,733.5,104.4z M22.1,111.4c0,164.1-0.5,328.2,0,492.2c0.2,23.2,20.2,44.9,45.2,45.2
				c205.3,0.6,410.6,0.6,616,0c23.6-0.2,45.1-20.6,45.2-45.5V111.4C493,111.4,257.5,111.4,22.1,111.4z"/>
			<path id="Shape_58_" class="st5" d="M732.1,87.3v20.5H18.5V87.3C18.5,62.8,38.3,43,62.7,43h625.1C712.3,43,732.1,62.8,732.1,87.3
				z"/>
			<path id="Shape_59_" class="st4" d="M688.1,39.3c24.8,0.2,47.5,21.7,47.6,47.9v20.5c-0.5,2.4-1.5,2.8-2.3,3.4l-1.4,0.3H18.5
				l-1.4-0.3c-1.2-0.8-1.2-0.8-2-2l-0.3-1.4c0-12.7-1.3-25.4,2.9-37c6.6-18.1,24.8-31.2,44.7-31.4C271,38.7,479.6,38.7,688.1,39.3z
				 M62.7,46.7c-21.2,0.1-40.5,18.6-40.6,40.6v16.8h706.3c0-10.5,1.1-21-2.4-30.6c-5.5-15.4-21-26.6-37.7-26.9
				C479.8,44.7,271.3,46.7,62.7,46.7z"/>
			<path id="Shape_60_" class="st0" d="M94.5,79.2c0,5.4-4.3,9.7-9.7,9.7c-5.4,0-9.7-4.3-9.7-9.7c0-5.4,4.3-9.7,9.7-9.7
				C90.2,69.5,94.5,73.8,94.5,79.2"/>
			<path id="Shape_61_" class="st0" d="M194.8,79.2c0,5.4-4.3,9.7-9.7,9.7s-9.7-4.3-9.7-9.7c0-5.4,4.3-9.7,9.7-9.7
				S194.8,73.8,194.8,79.2"/>
			<path id="Shape_62_" class="st0" d="M144.7,79.2c0,5.4-4.3,9.7-9.7,9.7s-9.7-4.3-9.7-9.7c0-5.4,4.3-9.7,9.7-9.7
				S144.7,73.8,144.7,79.2"/>
			<path id="Shape_63_" class="st4" d="M692,66c8.6,0.2,16.2,7.5,16.3,16.3c0,2.4-4.3,3.8-4.4-0.3c-0.3-6.2-5.7-11.6-12.1-11.7
				c0,0-1.1-0.1-1.7-0.9C689,68.2,689.9,66,692,66z"/>
			<path id="Shape_64_" class="st0" d="M552.5,328.7c0,8.2-3.3,15.6-8.7,21c-5.4,5.4-12.8,8.7-21,8.7H227.8
				c-16.4,0-29.7-13.3-29.7-29.7c0-8.2,3.3-15.7,8.7-21c5.4-5.4,12.8-8.7,21-8.7h294.9C539.1,299,552.5,312.3,552.5,328.7"/>
			<path id="Shape_65_" class="st4" d="M522.9,295.3c18.9,0.2,35.7,18.6,32.8,38.3c-2.3,15.4-16.4,28.3-32.6,28.5
				c-98.6,1-197.2,1-295.8,0c-15.3-0.2-29.6-12-32.4-27.3c-3.5-18.9,11.9-39.3,32.6-39.5C326,295,424.5,295,522.9,295.3z
				 M227.8,302.7c-11.9,0-23.2,9.1-25.6,20.8c-3,14.8,9,31.2,25.4,31.3c98.5,0.3,196.9,1,295.4,0c12-0.2,23.1-9.4,25.3-21.3
				c2.7-14.8-9.3-30.7-25.5-30.9C424.5,302.3,326.2,302.7,227.8,302.7z"/>
			<path id="W-3" class="st6" d="M395.3,345.7l5.8-22.6l5.3,22.6h5.7l9-31.4c0-0.1-0.1-0.3-0.2-0.3h-4.7l-7,25.9l-5.9-25.9h-4.1
				l-6.6,26.1l-6.7-25.7h-4.6c-0.2,0-0.4,0.2-0.3,0.4l8.7,30.9H395.3z"/>
			<path id="W-2" class="st6" d="M335.8,346l5.8-22.4l5.3,22.4h5.7l9-31.3c0-0.1-0.1-0.3-0.2-0.3h-4.7l-7,25.8l-5.9-25.8h-4.2
				l-6.6,26l-6.7-25.6h-4.6c-0.2,0-0.4,0.2-0.3,0.4l8.7,30.7H335.8z"/>
			<path id="W-1" class="st6" d="M276.2,346l5.8-22.6l5.3,22.6h5.7l9-31.4c0-0.1-0.1-0.3-0.2-0.3h-4.7l-7,25.9l-5.9-25.9H280
				l-6.6,26.1l-6.7-25.7h-4.6c-0.2,0-0.4,0.2-0.3,0.4l8.7,30.9H276.2z"/>
			<path id="Shape_69_" class="st7" d="M552.5,328.7c0,8.2-3.3,15.6-8.7,21c-5.4,5.4-12.8,8.7-21,8.7h-15.2V299h15.2
				C539.1,299,552.5,312.3,552.5,328.7"/>
			<path id="Shape_70_" class="st4" d="M522.9,295.3c15.2,0.1,29.5,11.7,32.5,26.9c3.8,19.1-11.8,39.8-32.8,39.9h-15.2
				c-2-0.1-3.6-1.3-3.7-3.7V299c0.1-2,1.3-3.6,3.7-3.7C512.7,295.3,517.8,295.3,522.9,295.3z M511.2,302.7v52.1
				c7.6,0,15.2,0.7,21.8-2.1c14.8-6.4,20.8-28.2,9.2-41.3c-4.8-5.5-12-8.7-19.3-8.8C519,302.7,515.1,302.7,511.2,302.7z"/>
			<path id="Shape_71_" class="st4" d="M164.9,503.2c0.6,0,0.9,0.1,1.5,0.7L192,531c0.8,0.9,0.7,1.4,0.5,2c-0.3,1.5-2.4,2.4-3.7,1
				l-25.6-27.2c-0.7-0.8-0.6-1.1-0.6-1.5C162.6,504.2,163.1,503.2,164.9,503.2z"/>
			<path id="Shape_72_" class="st4" d="M181.6,503.3c2.3,0.1,5.1,4.4,7.9,7.4c1.4,1.6-0.9,5.2-3.2,3c-3-3.1-6.9-6.4-7-8.2
				C179.3,504.4,180.3,503.3,181.6,503.3z"/>
			<path id="Shape_73_" class="st4" d="M160.6,516.3c0.5,0,1,0.3,1.4,0.6c4.7,4.7,9.2,9.7,13.8,14.6c1.5,1.6-0.9,5.1-3.1,3.1
				c-4.7-4.7-9.2-9.7-13.8-14.6C157.7,518.6,158.5,516.2,160.6,516.3z"/>
			<path id="Shape_74_" class="st4" d="M631.6,697.4c2.2,0.2,2.9,4.3-0.1,4.4h-19.2c-2.2-0.1-3.1-4.3,0-4.4
				C618.7,697.4,625.2,697.2,631.6,697.4z"/>
			<path id="Shape_75_" class="st4" d="M786,612.7c1.6,0.4,1.7,0.7,1.9,2.2c0,11,0,22.1,0,33.1c-0.3,28.2-24.5,53.7-54.1,53.8h-87.1
				c-2.3-0.2-3-4.2,0-4.4c29.1,0,58.3,0.1,87.4,0c25.8-0.2,49.3-22.5,49.4-49.7v-32.8C783.6,613,784.1,612.6,786,612.7z"/>
		</g>
		<g id="Element_8_" transform="translate(560.951220, 285.365854)">
			<path id="Shape_87_" class="st8" d="M432.1,327.8l10.3-13.3"/>
			<path id="Shape_95_" class="st4" d="M219.5,130.9c1.8,0.1,2.7,2.8,1.2,4c-3.9,2.7-7.9,5.2-11.8,7.8c-1.9,1.2-4.6-2-2.5-3.6
				c3.9-2.7,7.9-5.2,11.8-7.8C218.6,131.1,218.8,130.9,219.5,130.9z"/>
			<path id="Shape_96_" class="st4" d="M177.5,112.1c1,0.1,1.9,0.8,2.1,1.8c0.7,4.4,1.3,8.7,1.9,13.1c0.3,2.2-3.7,3.5-4.3,0.7
				c-0.7-4.4-1.3-8.7-1.9-13.1C175.1,113.3,175.9,112.1,177.5,112.1z"/>
			<path id="Shape_97_" class="st4" d="M199.8,116.9c1.4,0.1,2.4,1.7,1.9,3c-1.9,4.4-4,8.8-6.1,13.1c-1,2-5.1,1.1-4-1.7
				c1.9-4.4,4-8.8,6.1-13.1C198,117.4,198.6,116.9,199.8,116.9z"/>
		</g>
	</g>
</g>
<g id="Element_4_" transform="translate(780.354839, 14.193548)">
	<path id="Shape_89_" class="st9" d="M-284.6,838.2v59.5c0,15.9-12.9,28.8-28.8,28.8h-208.2c-15.9,0-28.8-12.9-28.8-28.8V573.7
		c0-15.9,12.9-28.8,28.8-28.8h208.2c15.9,0,28.8,12.9,28.8,28.8v231.9"/>
	<path id="Shape_90_" class="st4" d="M-313.2,541.1c17,0.2,32.4,14.8,32.4,32.6v231.9l-0.3,1.5l-0.8,1.3l-1.3,0.8l-1.5,0.3l-1.5-0.3
		l-1.3-0.8c-0.8-1.2-0.8-1.3-1.1-2.7c0-77.4,0.7-154.8,0-232.2c-0.2-12.8-11.3-24.4-24.7-24.6c-69.6-0.2-139.1-0.7-208.7,0
		c-12.8,0.2-24.4,11.3-24.6,24.7c-0.3,108.2-1,216.4,0,324.5c0.2,12.8,11.3,24.5,24.7,24.6c69.6,0.2,139.1,0.7,208.7,0
		c12.9-0.2,24.5-11.4,24.6-24.9v-59.5c0.3-1.5,0.3-1.5,1.1-2.7l1.3-0.8c1.5-0.3,1.5-0.3,3,0l1.3,0.8c0.8,1.2,0.8,1.3,1.1,2.7
		c0,20,0.2,40,0,59.9c-0.3,16.7-14.6,31.9-32.2,32.2c-69.7,0.7-139.4,0.7-209,0c-16.8-0.3-31.9-14.6-32.2-32.2
		c-1-108.3-1-216.6,0-324.9c0.3-16.8,14.6-31.9,32.2-32.2C-452.4,540.4-382.8,540.8-313.2,541.1z"/>
	<path id="Shape_91_" class="st4" d="M-312.7,560.3c6.3,0.1,12.1,5.5,12.5,11.8c0.1,1.9-1.9,3.7-3.3,2.1c-1-1.1-0.5-3-1.2-4.7
		c-1.4-3.3-4.9-5-8.4-5.4C-315,563.8-315.5,560.3-312.7,560.3z"/>
	<path id="Shape_92_" class="st4" d="M-532.2,897.4c2,0.2,1.6,3.3,2.5,5.4c1.4,3.2,5,4.9,8.3,5.3c2,0.3,2.7,4.1-1.3,3.8
		c-6-0.5-11.3-5.7-11.7-12C-534.4,898.7-533.7,897.3-532.2,897.4z"/>
	<path id="Shape_93_" class="st5" d="M-383.2,631.5h-100.5c-1.8,0-3.2-1.4-3.2-3.2c0-1.8,1.4-3.2,3.2-3.2h100.5
		c1.8,0,3.2,1.4,3.2,3.2C-380,630.1-381.4,631.5-383.2,631.5"/>
	<path id="Shape_94_" class="st0" d="M-437.1,643.1h-46.5c-1.8,0-3.2-1.4-3.2-3.2c0-1.8,1.4-3.2,3.2-3.2h46.5c1.8,0,3.2,1.4,3.2,3.2
		C-433.9,641.7-435.4,643.1-437.1,643.1"/>
	<path id="line-8" class="st5" d="M-340,631.5h-21.9c-1.8,0-3.2-1.4-3.2-3.2c0-1.8,1.4-3.2,3.2-3.2h21.9c1.8,0,3.2,1.4,3.2,3.2
		C-336.8,630.1-338.3,631.5-340,631.5"/>
	<path id="Shape_27_" class="st2" d="M-383.2,643.1h-39.6c-1.8,0-3.2-1.4-3.2-3.2c0-1.8,1.4-3.2,3.2-3.2h39.6c1.8,0,3.2,1.4,3.2,3.2
		C-380,641.7-381.4,643.1-383.2,643.1"/>
	<path id="Shape_26_" class="st2" d="M-383.2,655.9h-111.7c-1.8,0-3.2-1.4-3.2-3.2c0-1.8,1.4-3.2,3.2-3.2h111.7
		c1.8,0,3.2,1.4,3.2,3.2C-380,654.4-381.4,655.9-383.2,655.9"/>
	<path id="Shape_98_" class="st7" d="M-456.7,668.6h-27c-1.8,0-3.2-1.4-3.2-3.2c0-1.8,1.4-3.2,3.2-3.2h27c1.8,0,3.2,1.4,3.2,3.2
		C-453.5,667.2-454.9,668.6-456.7,668.6"/>
	<path id="Shape_99_" class="st0" d="M-383.1,668.6h-37.7c-1.8,0-3.2-1.4-3.2-3.2c0-1.8,1.4-3.2,3.2-3.2h37.7c1.8,0,3.2,1.4,3.2,3.2
		C-379.8,667.2-381.3,668.6-383.1,668.6"/>
	<path id="Shape_100_" class="st5" d="M-430.6,668.6h-14.1c-1.8,0-3.2-1.4-3.2-3.2c0-1.8,1.4-3.2,3.2-3.2h14.1
		c1.8,0,3.2,1.4,3.2,3.2C-427.4,667.2-428.8,668.6-430.6,668.6"/>
	<path id="Shape_101_" class="st0" d="M-456.8,692.1h-33.8c-1.8,0-3.2-1.4-3.2-3.2c0-1.8,1.4-3.2,3.2-3.2h33.8
		c1.8,0,3.2,1.4,3.2,3.2C-453.6,690.7-455,692.1-456.8,692.1"/>
	<path id="Shape_102_" class="st2" d="M-383.1,692.1h-37.7c-1.8,0-3.2-1.4-3.2-3.2c0-1.8,1.4-3.2,3.2-3.2h37.7
		c1.8,0,3.2,1.4,3.2,3.2C-379.8,690.7-381.3,692.1-383.1,692.1"/>
	<path id="line-6" class="st2" d="M-432,692.1h-14.1c-1.8,0-3.2-1.4-3.2-3.2c0-1.8,1.4-3.2,3.2-3.2h14.1c1.8,0,3.2,1.4,3.2,3.2
		C-428.8,690.7-430.2,692.1-432,692.1"/>
	<path id="Shape_104_" class="st0" d="M-383.1,704.9h-111.7c-1.8,0-3.2-1.4-3.2-3.2c0-1.8,1.4-3.2,3.2-3.2h111.7
		c1.8,0,3.2,1.4,3.2,3.2C-379.8,703.4-381.3,704.9-383.1,704.9"/>
	<path id="Shape_105_" class="st5" d="M-340,692.1h-21.9c-1.8,0-3.2-1.4-3.2-3.2c0-1.8,1.4-3.2,3.2-3.2h21.9c1.8,0,3.2,1.4,3.2,3.2
		C-336.8,690.7-338.3,692.1-340,692.1"/>
	<path id="Shape_106_" class="st7" d="M-418.4,717.6h-65.3c-1.8,0-3.2-1.4-3.2-3.2c0-1.8,1.4-3.2,3.2-3.2h65.3
		c1.8,0,3.2,1.4,3.2,3.2C-415.2,716.2-416.6,717.6-418.4,717.6"/>
	<path id="Shape_107_" class="st0" d="M-383.2,717.6h-24.5c-1.8,0-3.2-1.4-3.2-3.2c0-1.8,1.4-3.2,3.2-3.2h24.5
		c1.8,0,3.2,1.4,3.2,3.2C-380,716.2-381.4,717.6-383.2,717.6"/>
	<path id="line-7" class="st5" d="M-340,717.6h-21.9c-1.8,0-3.2-1.4-3.2-3.2c0-1.8,1.4-3.2,3.2-3.2h21.9c1.8,0,3.2,1.4,3.2,3.2
		C-336.8,716.2-338.3,717.6-340,717.6"/>
	<path id="Shape_109_" class="st2" d="M-457.3,730.3h-27c-1.8,0-3.2-1.4-3.2-3.2c0-1.8,1.4-3.2,3.2-3.2h27c1.8,0,3.2,1.4,3.2,3.2
		C-454.1,728.9-455.5,730.3-457.3,730.3"/>
	<path id="Shape_110_" class="st0" d="M-383.2,730.3h-37.7c-1.8,0-3.2-1.4-3.2-3.2c0-1.8,1.4-3.2,3.2-3.2h37.7
		c1.8,0,3.2,1.4,3.2,3.2C-380,728.9-381.4,730.3-383.2,730.3"/>
	<path id="Shape_111_" class="st2" d="M-432.1,730.3h-14.1c-1.8,0-3.2-1.4-3.2-3.2c0-1.8,1.4-3.2,3.2-3.2h14.1
		c1.8,0,3.2,1.4,3.2,3.2C-428.8,728.9-430.3,730.3-432.1,730.3"/>
	<path id="Shape_112_" class="st0" d="M-340,730.3h-21.9c-1.8,0-3.2-1.4-3.2-3.2c0-1.8,1.4-3.2,3.2-3.2h21.9c1.8,0,3.2,1.4,3.2,3.2
		C-336.8,728.9-338.3,730.3-340,730.3"/>
	<path id="line-5" class="st5" d="M-383.2,743.1h-24.5c-1.8,0-3.2-1.4-3.2-3.2c0-1.8,1.4-3.2,3.2-3.2h24.5c1.8,0,3.2,1.4,3.2,3.2
		C-380,741.6-381.4,743.1-383.2,743.1"/>
	<path id="Shape_114_" class="st2" d="M-340,743.1h-21.9c-1.8,0-3.2-1.4-3.2-3.2c0-1.8,1.4-3.2,3.2-3.2h21.9c1.8,0,3.2,1.4,3.2,3.2
		C-336.8,741.6-338.3,743.1-340,743.1"/>
	<path id="Shape_115_" class="st0" d="M-383.2,755.8h-111.7c-1.8,0-3.2-1.4-3.2-3.2c0-1.8,1.4-3.2,3.2-3.2h111.7
		c1.8,0,3.2,1.4,3.2,3.2C-380,754.4-381.4,755.8-383.2,755.8"/>
	<path id="Shape_116_" class="st0" d="M-425.4,768.6h-58.3c-1.8,0-3.2-1.4-3.2-3.2s1.4-3.2,3.2-3.2h58.3c1.8,0,3.2,1.4,3.2,3.2
		S-423.6,768.6-425.4,768.6"/>
	<path id="Shape_117_" class="st2" d="M-383.2,768.6h-31.7c-1.8,0-3.2-1.4-3.2-3.2s1.4-3.2,3.2-3.2h31.7c1.8,0,3.2,1.4,3.2,3.2
		S-381.4,768.6-383.2,768.6"/>
	<path id="Shape_118_" class="st7" d="M-383.2,781.3h-111.7c-1.8,0-3.2-1.4-3.2-3.2c0-1.8,1.4-3.2,3.2-3.2h111.7
		c1.8,0,3.2,1.4,3.2,3.2C-380,779.9-381.4,781.3-383.2,781.3"/>
	<path id="line-3" class="st2" d="M-340,781.3h-21.9c-1.8,0-3.2-1.4-3.2-3.2c0-1.8,1.4-3.2,3.2-3.2h21.9c1.8,0,3.2,1.4,3.2,3.2
		C-336.8,779.9-338.3,781.3-340,781.3"/>
	<path id="Shape_120_" class="st0" d="M-383.2,794h-37.7c-1.8,0-3.2-1.4-3.2-3.2c0-1.8,1.4-3.2,3.2-3.2h37.7c1.8,0,3.2,1.4,3.2,3.2
		C-380,792.6-381.4,794-383.2,794"/>
	<path id="Shape_121_" class="st0" d="M-430.7,794h-14.1c-1.8,0-3.2-1.4-3.2-3.2c0-1.8,1.4-3.2,3.2-3.2h14.1c1.8,0,3.2,1.4,3.2,3.2
		C-427.5,792.6-429,794-430.7,794"/>
	<path id="Shape_122_" class="st0" d="M-340,794h-21.9c-1.8,0-3.2-1.4-3.2-3.2c0-1.8,1.4-3.2,3.2-3.2h21.9c1.8,0,3.2,1.4,3.2,3.2
		C-336.8,792.6-338.3,794-340,794"/>
	<path id="Shape_123_" class="st0" d="M-470.9,817.5h-19.7c-1.8,0-3.2-1.4-3.2-3.2s1.4-3.2,3.2-3.2h19.7c1.8,0,3.2,1.4,3.2,3.2
		S-469.1,817.5-470.9,817.5"/>
	<path id="Shape_124_" class="st2" d="M-383.1,817.5h-37.7c-1.8,0-3.2-1.4-3.2-3.2s1.4-3.2,3.2-3.2h37.7c1.8,0,3.2,1.4,3.2,3.2
		S-381.3,817.5-383.1,817.5"/>
	<path id="line-4" class="st2" d="M-433.2,817.5h-25.2c-1.8,0-3.2-1.4-3.2-3.2s1.4-3.2,3.2-3.2h25.2c1.8,0,3.2,1.4,3.2,3.2
		S-431.5,817.5-433.2,817.5"/>
	<path id="Shape_126_" class="st0" d="M-383.2,830.3h-111.7c-1.8,0-3.2-1.4-3.2-3.2c0-1.8,1.4-3.2,3.2-3.2h111.7
		c1.8,0,3.2,1.4,3.2,3.2C-380,828.8-381.4,830.3-383.2,830.3"/>
	<path id="Shape_127_" class="st0" d="M-429.2,843h-54.5c-1.8,0-3.2-1.4-3.2-3.2c0-1.8,1.4-3.2,3.2-3.2h54.5c1.8,0,3.2,1.4,3.2,3.2
		C-426,841.6-427.4,843-429.2,843"/>
	<path id="Shape_128_" class="st5" d="M-383.2,843h-31.7c-1.8,0-3.2-1.4-3.2-3.2c0-1.8,1.4-3.2,3.2-3.2h31.7c1.8,0,3.2,1.4,3.2,3.2
		C-380,841.6-381.4,843-383.2,843"/>
	<path id="line-1" class="st7" d="M-340,843h-21.9c-1.8,0-3.2-1.4-3.2-3.2c0-1.8,1.4-3.2,3.2-3.2h21.9c1.8,0,3.2,1.4,3.2,3.2
		C-336.8,841.6-338.3,843-340,843"/>
	<path id="Shape_130_" class="st7" d="M-456.9,855.8h-27c-1.8,0-3.2-1.4-3.2-3.2c0-1.8,1.4-3.2,3.2-3.2h27c1.8,0,3.2,1.4,3.2,3.2
		C-453.7,854.3-455.1,855.8-456.9,855.8"/>
	<path id="Shape_131_" class="st0" d="M-383.2,855.8h-37.7c-1.8,0-3.2-1.4-3.2-3.2c0-1.8,1.4-3.2,3.2-3.2h37.7
		c1.8,0,3.2,1.4,3.2,3.2C-380,854.3-381.4,855.8-383.2,855.8"/>
	<path id="Shape_132_" class="st0" d="M-430.8,855.8h-14.1c-1.8,0-3.2-1.4-3.2-3.2c0-1.8,1.4-3.2,3.2-3.2h14.1
		c1.8,0,3.2,1.4,3.2,3.2C-427.6,854.3-429.1,855.8-430.8,855.8"/>
	<path id="Shape_133_" class="st2" d="M-383.2,868.5h-101.5c-1.8,0-3.2-1.4-3.2-3.2c0-1.8,1.4-3.2,3.2-3.2h101.5
		c1.8,0,3.2,1.4,3.2,3.2C-380,867.1-381.4,868.5-383.2,868.5"/>
	<path id="Shape_134_" class="st2" d="M-383.2,881.2h-37.7c-1.8,0-3.2-1.4-3.2-3.2c0-1.8,1.4-3.2,3.2-3.2h37.7
		c1.8,0,3.2,1.4,3.2,3.2C-380,879.8-381.4,881.2-383.2,881.2"/>
	<path id="Shape_135_" class="st5" d="M-430.1,881.2h-14.1c-1.8,0-3.2-1.4-3.2-3.2c0-1.8,1.4-3.2,3.2-3.2h14.1
		c1.8,0,3.2,1.4,3.2,3.2C-426.9,879.8-428.4,881.2-430.1,881.2"/>
	<path id="line-2" class="st5" d="M-340,881.2h-21.9c-1.8,0-3.2-1.4-3.2-3.2c0-1.8,1.4-3.2,3.2-3.2h21.9c1.8,0,3.2,1.4,3.2,3.2
		C-336.8,879.8-338.3,881.2-340,881.2"/>
	<path id="Shape_137_" class="st0" d="M-498.9,589.8c0.1,0.2,0.1,0.4,0.1,0.6c0,0.2,0,0.4,0,0.6c0,0.5-0.1,1-0.2,1.4
		c-0.1,0.4-0.3,0.8-0.5,1.2c-0.3,0.3-0.6,0.6-1,0.8c-0.4,0.2-0.9,0.3-1.5,0.3c-0.6,0-1.2-0.1-1.7-0.4c-0.6-0.3-1.3-0.6-2.1-1.1
		l-9-5.2c-0.7-0.9-1.1-2.2-1.1-3.8c0-1.2,0.2-2.1,0.5-2.7c0.3-0.6,0.8-1.1,1.5-1.5l11.5-6.7c1.4,0.4,2.3,0.9,2.8,1.5
		c0.5,0.6,0.7,1.3,0.7,2c0,1-0.2,1.7-0.7,2.3c-0.5,0.5-1.2,1.1-2.2,1.5l-7.4,3.7L-498.9,589.8z"/>
	<path id="Shape_138_" class="st0" d="M-491.5,599.4c-0.4,0.1-0.8,0.1-1.1,0.1c-0.4,0-0.7,0-1,0c-1.2,0-2.1-0.3-2.7-0.8
		c-0.6-0.5-0.9-1.3-0.9-2.4c0-0.8,0.1-1.5,0.3-2.3c0.2-0.8,0.4-1.4,0.6-2l7.4-26.6c0.4-0.1,0.8-0.1,1.2-0.1c0.4,0,0.7,0,1,0
		c1.1,0,2,0.2,2.7,0.7c0.7,0.5,1,1.2,1,2.3c0,0.8-0.1,1.6-0.3,2.3c-0.2,0.7-0.4,1.5-0.6,2.2L-491.5,599.4z"/>
	<path id="Shape_139_" class="st0" d="M-481.6,578.4c-0.1-0.2-0.1-0.4-0.1-0.6c0-0.2,0-0.4,0-0.6c0-0.5,0.1-1,0.2-1.4
		c0.1-0.4,0.3-0.8,0.5-1.2c0.3-0.3,0.6-0.6,1-0.8c0.4-0.2,0.9-0.3,1.5-0.3c0.6,0,1.2,0.1,1.7,0.4c0.6,0.3,1.3,0.6,2.1,1.1l9,5.2
		c0.7,1,1.1,2.2,1.1,3.8c0,1.2-0.2,2.1-0.5,2.7c-0.3,0.6-0.8,1.1-1.5,1.5l-11.5,6.7c-1.4-0.4-2.3-0.9-2.8-1.5
		c-0.5-0.6-0.7-1.3-0.7-2c0-1,0.2-1.7,0.7-2.3c0.5-0.5,1.2-1.1,2.2-1.5l7.4-3.7L-481.6,578.4z"/>
	<path id="Shape_140_" class="st10" d="M-544.4,522.6c1.8,0.3,1.7,1.1,1.7,1.9c0,2-3.2,1.9-5.7,2.2c-12.6,1.8-23,13.4-23.1,26.6v33
		c-0.1,1.3-0.6,1.5-1.1,1.7c-1.2,0.6-2.7-0.4-2.8-1.7c0-11.1-0.1-22.3,0-33.4c0.2-15.8,13.8-30,30.3-30.3
		C-545,522.6-544.7,522.6-544.4,522.6z"/>
	<path id="Shape_141_" class="st4" d="M-504.1,522.6c2,0.2,2.6,3.8-0.1,3.9H-523c-1.4,0-1.4-0.5-1.7-1.1c-0.6-1.2,0.3-2.8,1.7-2.8
		C-516.7,522.6-510.4,522.4-504.1,522.6z"/>
	<path id="Shape_142_" class="st4" d="M-255.6,880.4c1,0.2,1.7,0.9,1.7,1.9c0,11.1,0.1,22.3,0,33.4c-0.2,15.8-13.8,30-30.3,30.3
		c0,0-1.3,0.1-1.9-0.7c-1-1.3-0.3-3.1,2.2-3.2c13.7-0.4,26.1-12.3,26.1-26.8v-33C-257.7,881.3-256.8,880.4-255.6,880.4z"/>
	<path id="Shape_143_" class="st4" d="M-255.7,852.4c1,0.1,1.8,0.9,1.8,1.8c0.1,3.7,0,7.4,0,11.1c0,1.8-3.7,2.9-3.9,0.1
		c-0.1-3.7,0-7.4,0-11.1C-257.7,853.3-257,852.4-255.7,852.4z"/>
</g>
</svg>
