<?xml version="1.0" encoding="utf-8"?>
<!-- Generator: Adobe Illustrator 24.2.0, SVG Export Plug-In . SVG Version: 6.00 Build 0)  -->
<svg version="1.1" id="Lag_1" xmlns="http://www.w3.org/2000/svg" xmlns:xlink="http://www.w3.org/1999/xlink" x="0px" y="0px"
	 viewBox="0 0 900 500" style="enable-background:new 0 0 900 500;" xml:space="preserve">
<style type="text/css">
	.st0{fill:#FFFFFF;}
	.st1{fill:#2E3640;}
	.st2{fill:#FFFFFF;fill-opacity:0.3;}
	.st3{fill-rule:evenodd;clip-rule:evenodd;fill:#2E3640;}
	.st4{fill-rule:evenodd;clip-rule:evenodd;fill:#F0F0EF;}
	.st5{fill-rule:evenodd;clip-rule:evenodd;fill:#707070;}
	.st6{fill-rule:evenodd;clip-rule:evenodd;fill:#F2B164;}
	.st7{fill-rule:evenodd;clip-rule:evenodd;fill:#DB5D60;}
	.st8{fill-opacity:0.25;}
</style>
<g id="Element_2_" transform="translate(683.000000, 465.000000)">
	<path id="Shape_41_" class="st0" d="M-182.7-86.7l-100,0c-12.4,0-22.4-10-22.5-22.4l-0.1-211.4c0-12.4,10-22.4,22.4-22.5l11.9,0
		l88.1,0c12.4,0,22.4,10,22.5,22.4l0.1,211.4C-160.2-96.8-170.3-86.7-182.7-86.7z"/>
	<path id="Shape_42_" class="st1" d="M-182.5-346.4c13.3,0.2,25.2,11.7,25.5,25.4c0.5,70.6,0.1,141.2,0.1,211.7
		c-0.1,13.4-11.6,25.5-25.4,25.8c-33.4,0.2-66.9,0-100.3,0c-13.4-0.1-25.5-11.6-25.8-25.4c-0.5-70.6-0.1-141.2-0.1-211.7
		c0.1-13.3,11.5-25.5,25.4-25.8C-249.4-346.5-216-346.6-182.5-346.4z M-270.9-339.7c-6,0-11.7-1.4-18.7,1.2
		c-7.1,2.7-12.2,9.8-12.3,17.6c-0.4,70.6-0.4,141.3,0.1,211.9c0.2,9.9,8.5,18.7,18.9,18.9c33.5,0.2,67,0.2,100.4,0
		c9.8-0.2,18.7-8.5,18.9-18.9c0.4-70.6,0.4-141.3-0.1-211.9c-0.2-9.8-8.5-18.7-18.9-18.9C-212-339.9-241.4-339.7-270.9-339.7z"/>
	<path id="Shape_43_" class="st2" d="M-278.5-100c-7.6,0-13.8-6.2-13.8-13.8l-0.1-197.6c0-8.7,7-15.7,15.7-15.7l87.8,0
		c8.7,0,15.7,7,15.7,15.7l0.1,197.6c0,7.6-6.2,13.8-13.8,13.8L-278.5-100z"/>
	<path id="Shape_44_" class="st0" d="M-261.3-336.3l-6.5-6.7l73.9,0l-6.2,6.6c-2.1,2.3-5.1,3.6-8.3,3.6l-44.8,0
		C-256.2-332.9-259.1-334.1-261.3-336.3z"/>
	<path id="Shape_45_" class="st1" d="M-193.6-346c2.3,0.3,3.5,3.2,1.9,5c-4.9,5.2-9.4,10.9-16.4,11.1c-15,0.1-30.1,0.1-45.1,0
		c-3.8-0.1-7.4-1.6-10.1-4.3l-6.5-6.7c-1.6-1.8-0.5-5,2.1-5.1l73.9,0C-193.8-346-193.7-346-193.6-346z M-260.7-340
		c2,2.1,4.3,4,7.3,4.1c15.1,0.3,30.1,0.3,45.2,0c2.2-0.1,4.4-1,5.9-2.6l1.4-1.5C-220.8-340-240.7-340-260.7-340z"/>
	<path id="Shape_46_" class="st1" d="M-221.1-102c1.5,0.1,1.4,0.6,1.7,1.2c0.5,1.2-0.4,2.7-1.8,2.8l-19,0c-1,0-1.1-0.3-1.4-0.6
		c-1.1-1.1-0.4-3.3,1.4-3.4C-233.9-102-227.5-102.2-221.1-102z"/>
	<path id="Shape_53_" class="st2" d="M-232.6-244.9v-7.7c0-1.7-1.4-3.1-3.1-3.1c-1.7,0-3.1,1.4-3.1,3.1v7.7c0,1.7,1.4,3.1,3.1,3.1
		C-234-241.7-232.6-243.1-232.6-244.9z"/>
	<path id="Shape_54_" class="st2" d="M-245.1-244.9v-33.2c0-1.7-1.4-3.1-3.1-3.1c-1.7,0-3.1,1.4-3.1,3.1v33.2c0,1.7,1.4,3.1,3.1,3.1
		C-246.5-241.7-245.1-243.1-245.1-244.9z"/>
	<path id="Shape_55_" class="st2" d="M-257.6-244.9v-48.2c0-1.7-1.4-3.1-3.1-3.1c-1.7,0-3.1,1.4-3.1,3.1v48.2c0,1.7,1.4,3.1,3.1,3.1
		C-259-241.7-257.6-243.1-257.6-244.9z"/>
	<path id="Shape_56_" class="st2" d="M-272.3-241.7c1.7,0,3.1-1.4,3.1-3.1v-15c0-1.7-1.4-3.1-3.1-3.1c-1.7,0-3.1,1.4-3.1,3.1v15
		C-275.4-243.1-274-241.7-272.3-241.7"/>
	<path id="Shape_57_" class="st2" d="M-240.8-205.4h-32.6c-1.8,0-3.2-1.4-3.2-3.2v-4.9c0-1.8,1.4-3.2,3.2-3.2h32.6
		c1.8,0,3.2,1.4,3.2,3.2v4.9C-237.6-206.9-239-205.4-240.8-205.4"/>
	<path id="Shape_58_" class="st2" d="M-204.4-183.1h-68.9c-1.8,0-3.2-1.4-3.2-3.2v-4.9c0-1.8,1.4-3.2,3.2-3.2h68.9
		c1.8,0,3.2,1.4,3.2,3.2v4.9C-201.2-184.5-202.7-183.1-204.4-183.1"/>
	<path id="Shape_59_" class="st2" d="M-232.6-244.9v-7.7c0-1.7-1.4-3.1-3.1-3.1c-1.7,0-3.1,1.4-3.1,3.1v7.7c0,1.7,1.4,3.1,3.1,3.1
		C-234-241.7-232.6-243.1-232.6-244.9z"/>
	<path id="Shape_60_" class="st2" d="M-245.1-244.9v-33.2c0-1.7-1.4-3.1-3.1-3.1c-1.7,0-3.1,1.4-3.1,3.1v33.2c0,1.7,1.4,3.1,3.1,3.1
		C-246.5-241.7-245.1-243.1-245.1-244.9z"/>
	<path id="Shape_61_" class="st2" d="M-257.6-244.9v-48.2c0-1.7-1.4-3.1-3.1-3.1c-1.7,0-3.1,1.4-3.1,3.1v48.2c0,1.7,1.4,3.1,3.1,3.1
		C-259-241.7-257.6-243.1-257.6-244.9z"/>
	<path id="Shape_62_" class="st2" d="M-272.3-241.7c1.7,0,3.1-1.4,3.1-3.1v-15c0-1.7-1.4-3.1-3.1-3.1c-1.7,0-3.1,1.4-3.1,3.1v15
		C-275.4-243.1-274-241.7-272.3-241.7"/>
	<path id="Shape_63_" class="st2" d="M-240.8-205.4h-32.6c-1.8,0-3.2-1.4-3.2-3.2v-4.9c0-1.8,1.4-3.2,3.2-3.2h32.6
		c1.8,0,3.2,1.4,3.2,3.2v4.9C-237.6-206.9-239-205.4-240.8-205.4"/>
	<path id="Shape_64_" class="st2" d="M-204.4-183.1h-68.9c-1.8,0-3.2-1.4-3.2-3.2v-4.9c0-1.8,1.4-3.2,3.2-3.2h68.9
		c1.8,0,3.2,1.4,3.2,3.2v4.9C-201.2-184.5-202.7-183.1-204.4-183.1"/>
	<path id="Shape_65_" class="st2" d="M-232.6-244.9v-7.7c0-1.7-1.4-3.1-3.1-3.1c-1.7,0-3.1,1.4-3.1,3.1v7.7c0,1.7,1.4,3.1,3.1,3.1
		C-234-241.7-232.6-243.1-232.6-244.9z"/>
	<path id="Shape_66_" class="st2" d="M-245.1-244.9v-33.2c0-1.7-1.4-3.1-3.1-3.1c-1.7,0-3.1,1.4-3.1,3.1v33.2c0,1.7,1.4,3.1,3.1,3.1
		C-246.5-241.7-245.1-243.1-245.1-244.9z"/>
	<path id="Shape_67_" class="st2" d="M-257.6-244.9v-48.2c0-1.7-1.4-3.1-3.1-3.1c-1.7,0-3.1,1.4-3.1,3.1v48.2c0,1.7,1.4,3.1,3.1,3.1
		C-259-241.7-257.6-243.1-257.6-244.9z"/>
	<path id="Shape_68_" class="st2" d="M-272.3-241.7c1.7,0,3.1-1.4,3.1-3.1v-15c0-1.7-1.4-3.1-3.1-3.1c-1.7,0-3.1,1.4-3.1,3.1v15
		C-275.4-243.1-274-241.7-272.3-241.7"/>
	<path id="Shape_69_" class="st2" d="M-240.8-205.4h-32.6c-1.8,0-3.2-1.4-3.2-3.2v-4.9c0-1.8,1.4-3.2,3.2-3.2h32.6
		c1.8,0,3.2,1.4,3.2,3.2v4.9C-237.6-206.9-239-205.4-240.8-205.4"/>
	<path id="Shape_70_" class="st2" d="M-204.4-183.1h-68.9c-1.8,0-3.2-1.4-3.2-3.2v-4.9c0-1.8,1.4-3.2,3.2-3.2h68.9
		c1.8,0,3.2,1.4,3.2,3.2v4.9C-201.2-184.5-202.7-183.1-204.4-183.1"/>
	<path id="Shape_71_" class="st2" d="M-232.6-244.9v-7.7c0-1.7-1.4-3.1-3.1-3.1c-1.7,0-3.1,1.4-3.1,3.1v7.7c0,1.7,1.4,3.1,3.1,3.1
		C-234-241.7-232.6-243.1-232.6-244.9z"/>
	<path id="Shape_72_" class="st2" d="M-245.1-244.9v-33.2c0-1.7-1.4-3.1-3.1-3.1c-1.7,0-3.1,1.4-3.1,3.1v33.2c0,1.7,1.4,3.1,3.1,3.1
		C-246.5-241.7-245.1-243.1-245.1-244.9z"/>
	<path id="Shape_73_" class="st2" d="M-257.6-244.9v-48.2c0-1.7-1.4-3.1-3.1-3.1c-1.7,0-3.1,1.4-3.1,3.1v48.2c0,1.7,1.4,3.1,3.1,3.1
		C-259-241.7-257.6-243.1-257.6-244.9z"/>
	<path id="Shape_74_" class="st2" d="M-272.3-241.7c1.7,0,3.1-1.4,3.1-3.1v-15c0-1.7-1.4-3.1-3.1-3.1c-1.7,0-3.1,1.4-3.1,3.1v15
		C-275.4-243.1-274-241.7-272.3-241.7"/>
	<path id="Shape_75_" class="st2" d="M-240.8-205.4h-32.6c-1.8,0-3.2-1.4-3.2-3.2v-4.9c0-1.8,1.4-3.2,3.2-3.2h32.6
		c1.8,0,3.2,1.4,3.2,3.2v4.9C-237.6-206.9-239-205.4-240.8-205.4"/>
	<path id="Shape_76_" class="st2" d="M-204.4-183.1h-68.9c-1.8,0-3.2-1.4-3.2-3.2v-4.9c0-1.8,1.4-3.2,3.2-3.2h68.9
		c1.8,0,3.2,1.4,3.2,3.2v4.9C-201.2-184.5-202.7-183.1-204.4-183.1"/>
	<g id="Element_6_" transform="translate(406.400000, 0.000000)">
		<path id="Shape_9_" class="st0" d="M-656.7-275.9h-27.4c-5.7,0-10.3-4.6-10.3-10.3v-27.4c0-5.7,4.6-10.3,10.3-10.3h27.4
			c5.7,0,10.3,4.6,10.3,10.3v27.4C-646.4-280.6-651-275.9-656.7-275.9z"/>
		<path id="Shape_8_" class="st1" d="M-656.6-324.9c5.8,0.1,11.2,5,11.2,11.2c0,9.2,0,18.4,0,27.5c-0.1,5.8-5.1,11.2-11.2,11.2
			c-9.2,0-18.4,0-27.5,0c-5.9-0.1-11.2-5.1-11.2-11.2c0-9.2,0-18.4,0-27.5c0.1-5.9,5.1-11.2,11.2-11.2
			C-675-325-665.8-325-656.6-324.9z M-684.1-323c-4.9,0-9.3,4.2-9.3,9.3c0,9.2-0.1,18.4,0,27.6c0.1,4.8,4.2,9.1,9.2,9.2
			c9.2,0.1,18.4,0.1,27.6,0c4.8-0.1,9.1-4.2,9.2-9.2c0.1-9.2,0.1-18.4,0-27.6c-0.1-4.8-4.2-9.1-9.2-9.2
			C-665.7-323.1-674.9-323-684.1-323z"/>
		<path id="Shape_7_" class="st0" d="M-663.3-311.1l-16.6,5.9l-0.5-1.3c-0.1-0.2-0.1-0.4-0.1-0.7c0-0.8,0.5-1.6,1.3-1.9l12.8-4.6
			c1-0.4,2.2,0.2,2.6,1.2L-663.3-311.1z"/>
		<path id="Shape_6_" class="st1" d="M-665.6-314.7c1.2,0,2.3,0.8,2.7,2l0.5,1.3c0.2,0.5-0.1,1-0.6,1.2l-16.6,5.9
			c-0.5,0.2-1-0.1-1.2-0.6c-0.4-1.2-0.9-2.5-0.3-3.6c0.3-0.7,0.9-1.2,1.6-1.5c4.3-1.6,8.6-3.1,12.9-4.6
			C-666.2-314.7-665.9-314.7-665.6-314.7z M-665.6-312.8c-0.1,0-0.2,0-0.3,0.1c-4.3,1.5-8.6,3-12.9,4.6c-0.5,0.2-0.8,0.8-0.6,1.3
			l0.1,0.4l14.8-5.2C-664.7-312.2-665-312.8-665.6-312.8z"/>
		<path id="Shape_5_" class="st1" d="M-663.1-312.1c0.4,0.1,0.6,0.2,0.8,0.6l5.3,14.9c0.2,0.7-0.5,1.5-1.3,1.2
			c-0.2-0.1-0.4-0.2-0.5-0.6l-5-14l-14.8,5.2l5,14c0.2,0.8-0.1,1-0.4,1.2c-0.5,0.3-1.2,0-1.4-0.5l-5.3-14.9c-0.2-0.5,0.1-1,0.6-1.2
			l16.6-5.9C-663.4-312.1-663.4-312.1-663.1-312.1z"/>
		<path id="Shape_4_" class="st3" d="M-674.5-290.3c0.4,1-0.6,2.3-2.2,2.9c-1.6,0.6-3.2,0.2-3.5-0.9c-0.4-1,0.6-2.3,2.2-2.9
			C-676.5-291.7-674.9-291.3-674.5-290.3"/>
		<path id="Shape_3_" class="st1" d="M-676.6-292.4c1.6,0,3.4,1.1,3.1,3c-0.6,3-6.3,4.8-7.6,1.6C-682-289.9-679.4-292.4-676.6-292.4
			z M-676.6-290.4c-1.2,0-3,0.8-2.7,1.8c0.1,0.5,0.8,0.5,1.2,0.5c1.2,0,3-0.8,2.8-1.8C-675.5-290.5-676.3-290.4-676.6-290.4z"/>
		<path id="Shape_2_" class="st3" d="M-658-296.2c0.4,1-0.6,2.3-2.2,2.9c-1.6,0.6-3.2,0.2-3.5-0.9c-0.4-1,0.6-2.3,2.2-2.9
			C-659.9-297.6-658.3-297.2-658-296.2"/>
		<path id="Shape_1_" class="st1" d="M-660-298.3c1.6,0,3.4,1.1,3.1,3c-0.6,3-6.3,4.8-7.6,1.6C-665.5-295.8-662.8-298.3-660-298.3z
			 M-660.1-296.3c-1.2,0-3,0.8-2.7,1.8c0.1,0.5,0.8,0.5,1.2,0.5c1.2,0,3-0.8,2.8-1.8C-659-296.4-659.7-296.3-660.1-296.3z"/>
		<path id="Shape_77_" class="st1" d="M-685.2-318.9c0.6,0.1,0.8,0.9-0.1,1.2c-1.4,0.5-2.6,1.6-3.1,3.1c0,0-1,0.8-1.1-0.1
			c-0.1-0.5,0.3-1.1,0.7-1.6c0.8-1.2,2.1-2.3,3.5-2.6C-685.4-318.9-685.3-319-685.2-318.9z"/>
	</g>
	<g id="Element_1_" transform="translate(865.600000, 321.600000)">
		<path id="Shape_19_" class="st4" d="M-1043.9-633.7l0.1,25.9c0,6-4.9,11-10.9,11l-25.9,0.1c-6,0-11-4.9-11-10.9l-0.1-25.9
			c0-6,4.9-11,10.9-11l25.9-0.1C-1048.8-644.6-1043.9-639.7-1043.9-633.7z"/>
		<path id="Shape_20_" class="st2" d="M-1043.9-633.7l0.1,25.9c0,6-4.9,11-10.9,11l-25.9,0.1c-6,0-11-4.9-11-10.9l-0.1-25.9
			c0-6,4.9-11,10.9-11l25.9-0.1C-1048.8-644.6-1043.9-639.7-1043.9-633.7z"/>
		<path id="Shape_21_" class="st2" d="M-1043.9-633.7l0.1,25.9c0,6-4.9,11-10.9,11l-25.9,0.1c-6,0-11-4.9-11-10.9l-0.1-25.9
			c0-6,4.9-11,10.9-11l25.9-0.1C-1048.8-644.6-1043.9-639.7-1043.9-633.7z"/>
		<path id="Shape_22_" class="st2" d="M-1043.9-633.7l0.1,25.9c0,6-4.9,11-10.9,11l-25.9,0.1c-6,0-11-4.9-11-10.9l-0.1-25.9
			c0-6,4.9-11,10.9-11l25.9-0.1C-1048.8-644.6-1043.9-639.7-1043.9-633.7z"/>
		<path id="Shape_23_" class="st1" d="M-1084.9-644.7c1.3-0.5,2.7-0.7,4-0.7c8.7-0.1,17.4-0.1,26.1-0.1c6.1,0,11.8,5.3,11.9,11.8
			c0.1,8.7,0.1,17.4,0.1,26.1c0,6.1-5.3,11.8-11.8,11.9c-8.7,0.1-17.4,0.1-26.1,0.1c-6.2,0-11.8-5.4-11.9-11.8
			c-0.1-8.7-0.1-17.4-0.1-26.1c0-4.8,3.1-9.3,7.6-11.1C-1085-644.7-1084.9-644.7-1084.9-644.7z M-1084.3-642.9
			c-3.7,1.4-6.3,5.1-6.4,9.2c-0.1,8.7,0,17.4,0.1,26.2c0.1,5.1,4.5,9.7,9.9,9.8c8.7,0.1,17.4,0,26.2-0.1c5.1-0.1,9.7-4.5,9.8-9.9
			c0.1-8.7,0-17.4-0.1-26.2c-0.1-5.1-4.5-9.7-9.9-9.8c-8.7-0.1-17.4,0-26.2,0.1C-1082.1-643.5-1083.2-643.3-1084.3-642.9z"/>
		<path id="Shape_24_" class="st5" d="M-1043.9-621.8l0,14c0,6-4.9,11-10.9,11l-25.9,0.1c-6,0-11-4.9-11-10.9l0-2.9l16.4-18.1
			c0.8-0.9,2.3-0.9,3.1,0l13.4,14.7c1.3,1.5,3.6,1.6,5.1,0.3L-1043.9-621.8z"/>
		<path id="Shape_25_" class="st1" d="M-1074.7-630.1c1.1-0.4,2.4-0.1,3.3,0.8c4.5,4.9,8.9,9.9,13.4,14.8c0.9,1,2.6,1.1,3.7,0.2
			l9.8-8.3c0.6-0.4,1.5-0.1,1.6,0.7c0,4.7,0,9.4,0,14.1c0,6.2-5.4,11.8-11.8,11.9c-8.7,0.1-17.4,0.1-26.1,0.1
			c-6.2,0-11.8-5.4-11.9-11.9l0-2.9c0-0.2,0-0.3,0.3-0.7c5.5-6,10.9-12.1,16.4-18.1C-1075.6-629.6-1075.2-629.9-1074.7-630.1z
			 M-1074.1-628.2c-0.2,0.1-0.4,0.3-0.4,0.3l-16.1,17.8c0,2-0.1,4.1,0.6,6c1.4,3.8,5.2,6.5,9.3,6.5c8.7,0.1,17.4,0,26.2-0.1
			c5.2-0.1,9.8-4.6,9.8-10l0-11.9c-2.7,2.3-5.5,4.7-8.2,7c-1.8,1.5-4.7,1.4-6.4-0.4c-4.5-4.9-8.8-10-13.5-14.8
			C-1073.2-628.3-1073.7-628.4-1074.1-628.2z"/>
		<path id="Shape_26_" class="st6" d="M-1052.4-630c0,2.7-2.1,4.8-4.8,4.8c-2.7,0-4.8-2.1-4.8-4.8c0-2.7,2.1-4.8,4.8-4.8
			C-1054.6-634.8-1052.4-632.7-1052.4-630"/>
		<path id="Shape_27_" class="st1" d="M-1059.2-635.4c3.7-1.3,8.4,2.2,7.7,6.5c-0.6,3.5-4.9,5.8-8.2,4.2c-2.9-1.4-4.2-5.5-2.4-8.3
			C-1061.5-634.1-1060.6-634.9-1059.2-635.4z M-1058.6-633.6c-2.3,0.9-3.2,4.3-1.4,6.2c1.9,2,6.1,1.1,6.6-2
			C-1053-631.9-1055.8-634.6-1058.6-633.6C-1058.6-633.6-1058.6-633.6-1058.6-633.6z"/>
		<path id="Shape_28_" class="st1" d="M-1083.4-639.9c0.4-0.2,1.1-0.3,1.1-0.3c0.6-0.1,1.1,1,0,1.2c-1.5,0.3-2.8,1.3-3.4,2.7
			c0,0-0.3,0.4-0.6,0.3c-0.4-0.1-0.6-0.5-0.4-0.9C-1086.1-638.3-1084.9-639.4-1083.4-639.9z"/>
	</g>
	<g id="Element_3_" transform="translate(513.000000, 317.800000)">
		<path id="Shape_33_" class="st0" d="M-763.2-525.7h-27.4c-5.7,0-10.3-4.6-10.3-10.3v-27.4c0-5.7,4.6-10.3,10.3-10.3h27.4
			c5.7,0,10.3,4.6,10.3,10.3v27.4C-752.9-530.3-757.5-525.7-763.2-525.7z"/>
		<path id="Shape_32_" class="st1" d="M-763.1-574.7c5.8,0.1,11.2,5,11.2,11.2c0,9.2,0,18.4,0,27.5c-0.1,5.8-5.1,11.2-11.2,11.2
			c-9.2,0-18.4,0-27.5,0c-5.8-0.1-11.2-5-11.2-11.2c0-9.2,0-18.4,0-27.5c0.1-5.8,5-11.2,11.2-11.2
			C-781.5-574.7-772.3-574.7-763.1-574.7z M-790.6-572.7c-4.8,0-9.3,4.2-9.3,9.3c0,9.2-0.1,18.4,0,27.6c0.1,4.8,4.2,9.1,9.2,9.2
			c9.2,0.1,18.4,0.1,27.6,0c4.8-0.1,9.1-4.2,9.2-9.2c0.1-9.2,0.1-18.4,0-27.6c-0.1-4.8-4.2-9.1-9.2-9.2
			C-772.3-572.8-781.4-572.7-790.6-572.7z"/>
		<path id="Shape_31_" class="st5" d="M-775.9-565.7c-0.3,0-0.7,0-1,0c-0.3,0-0.7,0-1,0c-8.4,0.5-15,7.5-15,16c0,8.5,6.6,15.5,15,16
			c0.3,0,0.7,0,1,0c0.3,0,0.7,0,1,0c8.4-0.5,15-7.5,15-16C-760.9-558.2-767.5-565.2-775.9-565.7"/>
		<path id="Shape_30_" class="st2" d="M-775.9-565.7c-0.3,0-0.7,0-1,0c-0.3,0-0.7,0-1,0c-8.4,0.5-15,7.5-15,16c0,8.5,6.6,15.5,15,16
			c0.3,0,0.7,0,1,0c0.3,0,0.7,0,1,0c8.4-0.5,15-7.5,15-16C-760.9-558.2-767.5-565.2-775.9-565.7"/>
		<path id="Shape_29_" class="st1" d="M-776.8-566.6c6.5,0.1,12.8,4.2,15.4,10.1c2.9,6.5,1,14.8-4.3,19.5
			c-4.7,4.1-11.7,5.4-17.6,2.9c-6.7-2.8-11.1-10.2-10.4-17.4c0.8-8.1,8.1-15,16.7-15.2C-776.9-566.6-776.9-566.6-776.8-566.6z
			 M-777-564.9c-6.9,0.1-13.4,5.3-14.7,12.1c-1,4.9,0.7,10.4,4.3,13.9c4.1,4,10.7,5.5,16.3,3.2c4.9-2,8.5-6.6,9.3-11.8
			c1.2-8.4-5.6-17.2-14.8-17.4C-776.8-564.9-776.9-564.9-777-564.9z"/>
		<path id="Shape_10_" class="st1" d="M-776.8-566.6c0.6,0.1,0.7,0.4,0.8,0.9v32.1c0,0.8-0.4,0.8-0.8,0.9c-0.5,0.1-1-0.4-1-0.9
			v-32.1C-777.8-566.3-777.3-566.7-776.8-566.6z"/>
		<path id="Shape_14_" class="st1" d="M-760.8-550.6c0.9,0.2,1.1,1.7-0.1,1.7H-793c-0.9-0.1-1.3-1.7,0-1.8h32.1
			C-760.8-550.6-760.8-550.6-760.8-550.6z"/>
		<path id="Shape_15_" class="st1" d="M-787.2-562.8c0.9,0.2,1.6,1.4,2.8,2.1c5.3,3.3,12.9,2.7,17.2-1.8c0,0,0.5-0.4,0.9-0.2
			c0.6,0.2,0.7,1,0.2,1.6c-5.6,5.6-16.2,5.7-21.8-0.1c0,0-0.4-0.4-0.3-0.9C-788-562.6-787.6-562.8-787.2-562.8z"/>
		<path id="Shape_16_" class="st1" d="M-776.8-542.6c4.1,0,8.1,1.5,10.9,4.4c0,0,0.7,1.5-0.5,1.5c-1.1,0.1-1.9-1.6-3.8-2.6
			c-5.3-2.7-12.3-1.9-16.4,2.4c0,0-0.7,0.5-1.2,0.1c-0.8-0.7,0.4-1.9,1.5-2.6C-783.7-541.6-780.2-542.6-776.8-542.6z"/>
		<path id="Shape_17_" class="st1" d="M-776.8-566.7c2.8,0.1,5,2.7,6.2,4.9c0.2,0.4,0.4,0.8,0.6,1.2c3.6,8.3,3,19.3-2.1,25.4
			c-1.6,1.9-4.2,3.3-6.8,2.1c-2.7-1.2-4.2-4.1-5.2-6.8c-2.9-8.2-2.5-18.6,2.8-24.5C-780.2-565.7-778.8-566.7-776.8-566.7z M-777-565
			c-2.2,0.1-3.8,2.3-4.7,4c-4.3,8.3-3.3,20.5,2,25.4c0.9,0.9,2.2,1.4,3.5,1.1c2.2-0.6,3.5-2.8,4.3-4.8c3.3-7.6,3.1-17.8-1.7-23.7
			c-0.1-0.1-0.2-0.2-0.3-0.4C-774.6-564.2-775.7-565-777-565z"/>
		<path id="Shape_18_" class="st1" d="M-791.5-569.8c0.6,0.1,0.8,0.9-0.1,1.2c-1.4,0.5-2.6,1.6-3.1,3.1c0,0-0.2,0.4-0.6,0.4
			c-0.4,0-0.7-0.4-0.5-0.9c0.7-1.8,2.1-3.2,3.9-3.7C-791.7-569.8-791.7-569.8-791.5-569.8z"/>
	</g>
	<g id="Element_7_" transform="translate(900.800000, 649.600000)">
		<path id="Shape_78_" class="st0" d="M-1089.4-857h-27.2c-5.7,0-10.2-4.7-10.2-10.6v-28.1c0-5.8,4.6-10.6,10.2-10.6h27.2
			c5.7,0,10.2,4.7,10.2,10.6v28.1C-1079.2-861.7-1083.8-857-1089.4-857z"/>
		<path id="Shape_79_" class="st1" d="M-1089.4-907.2c5.8,0.1,11.1,5.2,11.1,11.5c0,9.4,0,18.8,0,28.2c-0.1,6-5,11.4-11.1,11.5
			c-9.1,0-18.2,0-27.3,0c-5.8-0.1-11.1-5.3-11.1-11.5c0-9.4,0-18.8,0-28.2c0.1-6,5.1-11.4,11.1-11.5
			C-1107.6-907.2-1098.5-907.2-1089.4-907.2z M-1116.6-905.2c-4.8,0-9.2,4.3-9.3,9.5c0,9.4-0.1,18.8,0,28.3c0.1,4.9,4.1,9.4,9.2,9.4
			c9.1,0.1,18.3,0.1,27.4,0c4.8-0.1,9.1-4.4,9.2-9.4c0.1-9.4,0.1-18.9,0-28.3c-0.1-4.9-4.1-9.4-9.2-9.4
			C-1098.4-905.3-1107.5-905.2-1116.6-905.2z"/>
		<path id="Shape_80_" class="st1" d="M-1117.8-902.1c0.6,0.1,0.8,1-0.1,1.2c-1.4,0.5-2.6,1.7-3.1,3.1c0,0-0.2,0.4-0.5,0.4
			c-0.4,0-0.7-0.4-0.5-0.9c0.7-1.8,2.1-3.2,3.9-3.8C-1117.9-902-1117.9-902.1-1117.8-902.1z"/>
		<path id="Shape_81_" class="st7" d="M-1107.3-873.8c5.4,3,9.4-2.2,10.2-2.9c0.5-0.4,0.8-0.7,0.8-0.7c0.4-0.3,0.8-0.3,1.1-0.3
			c0.2,0.1,0.5,0.2,0.6,0.4l4.8,5.5c0.3,0.3,0.6,0.6,0.9,0.9c0.2,0.2,0.5,0.6,0.7,1.3c0.1,0.6-0.3,1.2-1,1.7
			c-0.6,0.5-1.4,0.9-2.2,1.2c-1.5,0.6-3.8,1.2-6.2,0.3c-1.3-0.5-2.8-1.5-4-2.4c-1.1-0.8-2-1.5-2.6-2c-0.3-0.3-0.7-0.6-1.2-1.1
			c-2-1.9-3.8-4-5.5-6.2c-0.4-0.5-0.7-0.9-0.9-1.3c-0.9-1.4-2.9-4.7-3.6-7.2c-0.7-2.5,0.1-4.8,0.8-6.3c0.3-0.7,0.8-1.5,1.3-2
			c0.6-0.7,1.2-1.1,1.8-0.9c0.7,0.2,1,0.6,1.2,0.8c0.3,0.3,0.5,0.7,0.8,1l2.9,3.2l2,2.2c0.2,0.2,0.3,0.4,0.4,0.7
			c0.1,0.3,0,0.7-0.3,1.1c0,0-0.4,0.3-0.8,0.8c-0.1,0.1-0.2,0.2-0.3,0.3c-1.9,1.6-3.3,2.8-3.7,5.3c-0.2,1.2-0.3,3.2,0.7,5.1"/>
		<path id="Shape_82_" class="st1" d="M-1095.4-878.7c0.6,0,1.1,0.3,1.5,0.8c1.9,2.2,3.8,4.4,5.7,6.5c0.4,0.5,0.7,1.1,0.9,1.7
			c0,0,0.1,0.6,0,1.1c-0.5,1.7-2.4,2.5-4.1,3.2c-3,1.1-6.2,0.5-9.3-1.6c-6.3-4.1-11.5-9.8-14.7-17.3c-1.6-3.7-1-8.1,1.8-11.2
			c0.1-0.1,0.2-0.2,0.2-0.2c0.8-0.8,2-1.2,3.3-0.5c0.7,0.4,1.1,1.1,1.6,1.6c1.6,1.9,3.3,3.7,5,5.6c0.9,1,0.6,2.5-0.7,3.7
			c-1.4,1.4-3.2,2.5-3.7,4.4c-0.5,1.7-0.4,3.5,0.4,5.1l1,1.1c2.8,1.5,6.1,0.1,8.8-2.6C-1097.1-878-1096.6-878.7-1095.4-878.7z
			 M-1095.6-876.7c-0.3,0-1,0.9-1.6,1.5c-1.9,1.9-4.2,3.3-6.8,3.3c0,0,1.8,1.6,3.6,2.8c1.2,0.9,2.5,1.7,3.9,2.1
			c2.2,0.6,4.8-0.1,6.6-1.5c0.3-0.2,0.8-0.6,0.7-0.8c-0.2-0.7-0.8-1.2-1.2-1.7c-1.6-1.9-3.3-3.7-4.9-5.6
			C-1095.4-876.6-1095.5-876.7-1095.6-876.7z M-1111.6-894.7c-1.2,0.2-2.2,2.5-2.7,4.6c-0.9,3.8,1.9,8,4,11c0,0,0.1,0.4,0.1,0
			c0.1-2.9,2-5.3,4.2-7.2c0.3-0.3,0.6-0.5,1-1c0.1-0.1,0-0.2-0.1-0.3c-1.9-2.2-3.8-4.4-5.8-6.5
			C-1111.1-894.5-1111.6-894.7-1111.6-894.7z"/>
		<path id="Shape_83_" class="st1" d="M-1077-850.9c0.5,0.1,0.8,0.8,0.1,1.2c-1.1,0.7-2.2,1.4-3.3,2c0,0-1.3-0.1-0.7-0.9
			c0.1-0.2,0.2-0.2,0.5-0.3c1.1-0.5,2.1-1.2,3.1-1.9C-1077.4-850.8-1077.2-850.9-1077-850.9z"/>
		<path id="Shape_84_" class="st1" d="M-1067-868.1c0.9,0.2,0.4,1.9,0.1,3.3c-1,4.6-3.3,8.8-6.5,12.1c0,0-0.5,0.5-0.9,0.2
			c-0.6-0.5,0.4-1.3,1.1-2.1c3.1-3.6,5.1-8.2,5.6-13C-1067.6-867.5-1067.5-868.1-1067-868.1z"/>
	</g>
	<g id="Element_4_" transform="translate(12.800000, 462.400000)">
		<path id="Shape_39_" class="st0" d="M-262.6-605.1h-27.4c-5.7,0-10.3-4.6-10.3-10.3v-27.4c0-5.7,4.6-10.3,10.3-10.3h27.4
			c5.7,0,10.3,4.6,10.3,10.3v27.4C-252.3-609.7-256.9-605.1-262.6-605.1z"/>
		<path id="Shape_38_" class="st1" d="M-262.5-654.1c5.8,0.1,11.1,5,11.2,11.2c0,9.2,0,18.3,0,27.5c-0.1,5.8-5.1,11.1-11.1,11.2
			c-9.2,0.1-18.4,0-27.6,0c-5.8-0.1-11.1-5-11.2-11.1c-0.1-9.2,0-18.4,0-27.6c0.1-5.8,5-11.1,11.1-11.2
			C-280.9-654.2-271.7-654.1-262.5-654.1z M-289.9-652.1c-4.8,0-9.3,4.1-9.3,9.3c0,9.2-0.1,18.4,0,27.5c0.1,4.8,4.2,9.1,9.2,9.2
			c9.2,0.1,18.4,0.1,27.6,0c4.8-0.1,9.1-4.2,9.2-9.2c0.1-9.2,0.1-18.4,0-27.6c-0.1-4.8-4.2-9.1-9.2-9.2
			C-271.6-652.2-280.8-652.1-289.9-652.1z"/>
		<path id="Shape_37_" class="st7" d="M-283.3-618.7V-638c0-1,1.1-1.6,2-1l14.2,10.2c0.3,0.2,0.3,0.7,0,0.9l-14.2,10.2
			C-282.1-617.1-283.3-617.7-283.3-618.7z"/>
		<path id="Shape_36_" class="st1" d="M-282-640.2c0.4,0,0.9,0.2,1.2,0.4c4.8,3.4,9.5,6.8,14.3,10.2c0.8,0.6,0.8,1.8,0,2.5
			c-4.7,3.5-9.5,6.9-14.3,10.2c-1.3,0.9-3.4,0-3.5-1.8c-0.1-6.5-0.1-12.9,0-19.4C-284.2-639.2-283.2-640.2-282-640.2z M-282-638.3
			c-0.1,0-0.3,0.1-0.3,0.3c-0.1,6.4,0,12.9,0,19.3c0,0.2,0.3,0.3,0.4,0.2l13.8-9.9c-4.6-3.3-9.2-6.6-13.8-9.9
			C-281.9-638.3-282-638.3-282-638.3z"/>
		<path id="Shape_34_" class="st1" d="M-291.1-649.1c0.6,0.1,0.8,0.9-0.1,1.2c-1.4,0.5-2.6,1.6-3.1,3.1c0,0-1,0.8-1.1-0.1
			c-0.1-0.5,0.3-1.1,0.7-1.6c0.8-1.2,2.1-2.3,3.5-2.6C-291.2-649.1-291.2-649.1-291.1-649.1z"/>
	</g>
	<g id="Element_5_" transform="translate(12.800000, 462.400000)">
		<path id="Shape_50_" class="st0" d="M-199.8-604.8h-27.4c-5.7,0-10.3-4.6-10.3-10.3v-27.4c0-5.7,4.6-10.3,10.3-10.3h27.4
			c5.7,0,10.3,4.6,10.3,10.3v27.4C-189.5-609.4-194.1-604.8-199.8-604.8z"/>
		<path id="Shape_49_" class="st1" d="M-199.7-653.8c5.8,0.1,11.1,5,11.2,11.2c0,9.2,0,18.3,0,27.5c-0.1,5.8-5.1,11.1-11.1,11.2
			c-9.2,0.1-18.4,0-27.6,0c-5.8-0.1-11.1-5-11.2-11.1c-0.1-9.2,0-18.4,0-27.6c0.1-5.8,5-11.1,11.1-11.2
			C-218.1-653.8-208.9-653.8-199.7-653.8z M-227.1-651.8c-4.8,0-9.3,4.1-9.3,9.3c0,9.2-0.1,18.4,0,27.5c0.1,4.8,4.2,9.1,9.2,9.2
			c9.2,0.1,18.4,0.1,27.6,0c4.8-0.1,9.1-4.2,9.2-9.2c0.1-9.2,0.1-18.4,0-27.6c-0.1-4.8-4.2-9.1-9.2-9.2
			C-208.8-651.9-218-651.8-227.1-651.8z"/>
		<path id="Shape_40_" class="st1" d="M-228.3-648.8c0.6,0.1,0.8,0.9-0.1,1.2c-1.4,0.5-2.6,1.6-3.1,3.1c0,0-1,0.8-1.1-0.1
			c-0.1-0.5,0.3-1.1,0.7-1.6c0.8-1.2,2.1-2.3,3.5-2.6C-228.4-648.8-228.4-648.8-228.3-648.8z"/>
	</g>
	<g id="Element_8_" transform="translate(90.600000, 202.600000)">
		<path id="Shape_90_" class="st6" d="M-272.6-377.5l0.2,20.5c0,1.3-0.4,2.5-1.1,3.4c-0.7,1-1.8,1.5-3,1.5l-28.5-0.6
			c-1.2,0-2.2-0.6-3-1.6c-0.7-0.9-1.2-2.1-1.2-3.5l-0.2-20.5c0-1.2,0.4-2.4,1-3.2c0.7-1,1.8-1.7,3.1-1.6l28.5,0.6
			c1.3,0,2.4,0.7,3.2,1.8C-273-379.8-272.6-378.7-272.6-377.5z"/>
		<path id="Shape_87_" class="st1" d="M-275.4-383.1c2,0.7,3.5,3,3.5,5.6c0.1,6.8,0.2,13.7,0.2,20.5c0,3-2.1,5.7-4.7,5.7
			c-9.5-0.1-19-0.4-28.5-0.6c-2.5-0.1-4.8-2.7-4.9-5.8c-0.1-6.9-0.2-13.7-0.2-20.6c0-3,2.1-5.6,4.7-5.6c9.5,0.1,19,0.4,28.5,0.6
			C-276.3-383.4-276-383.3-275.4-383.1z M-275.9-381.5c-0.3-0.1-0.5-0.1-0.8-0.1c-9.5-0.3-19-0.5-28.6-0.6c-1.7,0-3.3,1.8-3.3,4
			c0,6.9,0.1,13.7,0.2,20.6c0.1,2.1,1.6,4.1,3.4,4.1c9.5,0.3,19,0.5,28.6,0.6c1.7,0,3.3-1.8,3.3-4c0-6.9-0.1-13.7-0.2-20.6
			C-273.4-379.4-274.3-381-275.9-381.5z"/>
		<path id="Shape_86_" class="st6" d="M-273.5-353.6c-0.7,1-1.8,1.5-3,1.5l-28.5-0.6c-1.2,0-2.2-0.6-3-1.6l12.2-10.9l0,0l4.9-4.4
			L-273.5-353.6z"/>
		<path id="Shape_85_" class="st1" d="M-290.5-370.4c0.1,0,0.1,0,0.2,0.1l17.3,15.9c1,1-1.6,3-3.3,3c-9.5-0.1-19-0.4-28.5-0.6
			c-1.3,0-2.7-0.6-3.5-1.9c-0.2-0.4-0.2-0.9,0.1-1.2l12.2-10.9l4.9-4.4C-290.9-370.5-290.8-370.5-290.5-370.4z M-295.2-364.5
			l-11.5,10.3c0.5,0.4,1.2,0.6,1.8,0.7c9.5,0.3,19,0.4,28.6,0.6c0.6,0,1.3-0.2,1.8-0.6l-16.2-14.9
			C-292.3-367.2-293.8-365.9-295.2-364.5z"/>
		<path id="Shape_52_" class="st6" d="M-273.6-380.7l-13.7,16.5c-1.9,2.2-4.9,2.2-6.8-0.1l-14.2-17.1c0.7-1,1.8-1.7,3.1-1.6
			l28.5,0.6C-275.5-382.5-274.4-381.8-273.6-380.7z"/>
		<path id="Shape_51_" class="st1" d="M-275.4-383.1c1.4,0.5,3,2,2.3,3l-13.7,16.5c-2,2.4-5.6,2.4-7.8-0.2l-14.2-17.1
			c-0.9-1.2,1.7-3.1,3.5-3.1c9.5,0.1,19,0.4,28.5,0.6C-276.3-383.4-276-383.3-275.4-383.1z M-275.9-381.5c-0.3-0.1-0.5-0.1-0.8-0.1
			c-9.5-0.3-19-0.5-28.6-0.6c-0.7,0-1.4,0.3-2,0.8l0,0c4.6,5.5,9.1,11,13.7,16.5c0.2,0.3,0.3,0.3,0.4,0.4c1.6,1.4,3.9,1.3,5.4-0.4
			l13.2-15.9C-275-381.1-275.3-381.4-275.9-381.5z"/>
		<path id="Shape_48_" class="st8" d="M-308.2-380.1l11.8,14.3l-12.2-8.6l0-3.1C-308.5-377.5-308.7-379.1-308.2-380.1"/>
		<path id="Shape_47_" class="st8" d="M-273.3-376.7l0,3l-11.9,8.1l11.5-13.8c0.2,0.4,0.3,0.8,0.3,1.2c0,0.1,0,0.2,0,0.3
			c0,0.1,0,0.3,0,0.4C-273.3-377.1-273.3-376.7-273.3-376.7"/>
	</g>
</g>
</svg>
