<?xml version="1.0" encoding="utf-8"?>
<!-- Generator: Adobe Illustrator 24.2.0, SVG Export Plug-In . SVG Version: 6.00 Build 0)  -->
<svg version="1.1" id="Lag_1" xmlns="http://www.w3.org/2000/svg" xmlns:xlink="http://www.w3.org/1999/xlink" x="0px" y="0px"
	 viewBox="0 0 900 500" style="enable-background:new 0 0 900 500;" xml:space="preserve">
<style type="text/css">
	.st0{fill:#3B1B6A;}
	.st1{fill-rule:evenodd;clip-rule:evenodd;fill:#7C76BB;}
	.st2{fill:#FFFFFF;}
	.st3{fill:#2E3640;}
	.st4{fill-rule:evenodd;clip-rule:evenodd;fill:#DB5D60;}
	.st5{fill-rule:evenodd;clip-rule:evenodd;fill:#2E3640;}
	.st6{fill-rule:evenodd;clip-rule:evenodd;fill:#73706B;}
	.st7{fill-rule:evenodd;clip-rule:evenodd;fill:#F2B164;}
	.st8{fill:#73706B;}
	.st9{fill-opacity:0.25;}
</style>
<g id="Element_5_" transform="translate(314.333333, 203.000000)">
	<path id="Shape_124_" class="st0" d="M54.6-99.2c1.5,0.4,1.6,0.6,1.7,1.8V75.3c-0.1,1.5-0.5,1.7-2.1,1.8H-4c-1.7-0.1-2-0.5-2.1-1.8
		c0-57.2-0.7-114.4,0-171.5c0-1.4-0.1-2.8,2.2-3h58.1C54.3-99.2,54.4-99.2,54.6-99.2z M52.1,73.5v-169h-54v169
		C16.1,73.5,34.1,73.5,52.1,73.5z"/>
	<path id="Shape_123_" class="st1" d="M54.2-97.4V75.3H-4V-96c0-0.5,0-0.9,0.1-1.3H54.2z"/>
	<path id="Shape_129_" class="st2" d="M326.4-15.9v91.2H-20.4V-100c0-14.5,13.1-26.2,29.3-26.2H300c14.6,0,26.4,10.6,26.4,23.6v70.5
		"/>
	<g id="Element_4_">
		<path id="Shape_85_" class="st2" d="M314.2-88.8V91.7c0,9.9-9.9,17.9-22.1,17.9H15.6c-12.2,0-22.1-8-22.1-17.9V-88.8H314.2z"/>
		<path id="Shape_86_" class="st3" d="M315.3-91c0.9,0.5,0.9,0.5,1.6,1.3l0.2,0.9c0,60.3,0.7,120.5,0,180.8
			c-0.2,10.3-11.2,19.8-24.6,20c-92.4,0.7-184.8,0.7-277.1,0c-12.9-0.2-24.6-9.2-24.6-20.2V-88.8c0.2-0.9,0.2-0.9,0.8-1.7l0.9-0.5
			l1.1-0.2h320.6C314.6-91.1,314.9-91,315.3-91z M-3.6-86.5c0,59.5-0.7,118.9,0,178.4c0.2,8,8.7,15.3,19.1,15.4
			c92.3,0.2,184.6,0.7,276.9,0c9.9-0.1,18.9-7.1,18.9-15.6V-86.5C206.4-86.5,101.4-86.5-3.6-86.5z"/>
		<path id="Shape_87_" class="st4" d="M314.2-96.3v7.5H-6.4v-7.5c0-8.9,8.9-16.1,19.9-16.1h280.9
			C305.3-112.4,314.2-105.2,314.2-96.3z"/>
		<path id="Shape_88_" class="st3" d="M294.6-114.8c11.8,0.2,22.4,8.5,22.5,18.5v7.5l-0.2,0.9l-0.6,0.8c-0.9,0.5-0.9,0.5-2,0.7H-6.4
			c-1.1-0.2-1.1-0.2-2-0.7l-0.6-0.8l-0.2-0.9v-7.5c0.1-9.6,10.2-18.3,22.5-18.5C107-115.2,200.8-115.2,294.6-114.8z M13.5-110.1
			c-8.9,0-17,6.2-17,13.8v5.1h314.9c0-3.4,0.4-6.8-1-9.9c-2.3-5.2-8.8-8.9-15.7-9C200.9-110.6,107.2-110.1,13.5-110.1z"/>
		<path id="Shape_89_" class="st2" d="M27.7-99.2c0,2-2,3.5-4.4,3.5c-2.4,0-4.4-1.6-4.4-3.5s2-3.5,4.4-3.5
			C25.8-102.8,27.7-101.2,27.7-99.2"/>
		<path id="Shape_90_" class="st2" d="M72.8-99.2c0,2-2,3.5-4.4,3.5c-2.4,0-4.4-1.6-4.4-3.5s2-3.5,4.4-3.5
			C70.9-102.8,72.8-101.2,72.8-99.2"/>
		<path id="Shape_91_" class="st2" d="M50.3-99.2c0,2-2,3.5-4.4,3.5c-2.4,0-4.4-1.6-4.4-3.5s2-3.5,4.4-3.5
			C48.3-102.8,50.3-101.2,50.3-99.2"/>
		<path id="Shape_92_" class="st3" d="M294-104.6c4.2,0.1,8,3,8.1,6.5c0,1.6-3.3,1.9-3.5-0.2c-0.2-2-2.5-3.3-5-3.6
			C292-102.1,291.6-104.7,294-104.6z"/>
		<path id="Shape_93_" class="st5" d="M96.5,2.1h-7.1c-1.1,0-1.9-0.7-1.9-1.6v-37c0-0.9,0.9-1.6,1.9-1.6h7.1c1.1,0,1.9,0.7,1.9,1.6
			v37C98.4,1.4,97.6,2.1,96.5,2.1z"/>
		<path id="Shape_94_" class="st3" d="M96.6-40c2.2,0.1,4,1.6,4.1,3.3c0.2,12.4,0.2,24.8,0,37.2c-0.1,1.8-1.9,3.3-4.1,3.3
			C91.4,4,85.4,4.3,85.2,0.6c-0.2-12.4-0.2-24.8,0-37.2c0.1-1.8,1.9-3.3,4.1-3.3C91.7-40,94.2-40,96.6-40z M89.8-36.2V0.2h6.3v-36.4
			C94-36.2,91.9-36.2,89.8-36.2z"/>
		<path id="Shape_95_" class="st2" d="M117.9,2.1h-6.2c-1.3,0-2.4-0.9-2.4-1.9v-16c0-1.1,1.1-1.9,2.4-1.9h6.2c1.3,0,2.4,0.9,2.4,1.9
			v16C120.3,1.2,119.2,2.1,117.9,2.1z"/>
		<path id="Shape_96_" class="st3" d="M118.1-19.7c2.4,0.1,4.4,1.7,4.5,3.7c0.1,5.4,0,10.8,0,16.2c0,2-2.1,3.7-4.5,3.8
			c-4.9,0-10.8,0.6-11-3.7c-0.1-5.4,0-10.8,0-16.2c0-2,2.1-3.7,4.5-3.8C113.8-19.7,115.9-19.7,118.1-19.7z M111.7-15.9
			C111.7-15.9,111.7-15.9,111.7-15.9c-0.6,5.4-0.1,10.7-0.1,16.1c0,0,0,0.1,0.1,0.1c2.1,0,4.1,0,6.2,0c0,0,0.1,0,0.1-0.1
			c0-5.3,0-10.7,0-16c0,0,0-0.1-0.1-0.1C115.9-15.9,113.8-15.9,111.7-15.9z"/>
		<path id="Shape_97_" class="st5" d="M140.1,2.1h-6.8c-1.1,0-2.1-0.8-2.1-1.7v-46.5c0-0.9,0.9-1.7,2.1-1.7h6.8
			c1.1,0,2.1,0.8,2.1,1.7V0.4C142.2,1.3,141.2,2.1,140.1,2.1z"/>
		<path id="Shape_98_" class="st3" d="M140.2-49.7c2.2,0.1,4.2,1.6,4.3,3.5c0.2,15.6,0.2,31.1,0,46.7c-0.1,1.8-2,3.4-4.3,3.5
			c-3,0-6.4,0.4-8.5-0.2c-1.6-0.5-2.7-1.8-2.8-3.2c-0.2-15.6-0.2-31.1,0-46.7c0.1-1.8,2-3.4,4.3-3.5
			C135.5-49.7,137.9-49.7,140.2-49.7z M133.5-45.9V0.2h6.3v-46.1C137.8-45.9,135.6-45.9,133.5-45.9z"/>
		<path id="Shape_99_" class="st6" d="M161.8,2.1h-6.5c-1.2,0-2.2-0.8-2.2-1.8v-68.7c0-1,1-1.8,2.2-1.8h6.5c1.2,0,2.2,0.8,2.2,1.8
			V0.3C164,1.3,163.1,2.1,161.8,2.1z"/>
		<path id="Shape_100_" class="st3" d="M162-72.1c2.3,0.1,4.3,1.7,4.4,3.6c0.4,23,0.4,46,0,68.9c-0.1,1.9-2.1,3.5-4.4,3.6
			c-2.9,0-6.1,0.4-8.2-0.2c-1.7-0.5-2.9-1.9-3-3.3c-0.4-23-0.4-46,0-68.9c0.1-1.9,2.1-3.5,4.4-3.6C157.4-72.1,159.7-72.1,162-72.1z
			 M155.4-68.4V0.2h6.3v-68.6C159.6-68.4,157.5-68.4,155.4-68.4z"/>
		<path id="Shape_101_" class="st7" d="M181.1,2.1h-4.3c-1.8,0-3.3-1.2-3.3-2.7v-24.8c0-1.5,1.5-2.7,3.3-2.7h4.3
			c1.8,0,3.3,1.2,3.3,2.7v24.8C184.5,0.9,183,2.1,181.1,2.1z"/>
		<path id="Shape_102_" class="st3" d="M181.3-30c2.9,0.1,5.4,2.1,5.5,4.4c0.1,8.3,0,16.6,0,24.9c0,2.4-2.5,4.5-5.5,4.6
			c-4.6,0-9.9-0.5-10.1-4.4c-0.1-8.3,0-16.6,0-24.9c0-2.4,2.5-4.5,5.5-4.6C178.2-30,179.8-30,181.3-30z M176.9-26.3
			c-0.5,0-1,0.4-1,0.8c-0.1,8.3-0.6,16.6,0,24.9c0.1,1.3,5,0.9,5.7,0.7c0.4-0.1,0.6-0.4,0.6-0.7c0.4-8.3,0.6-16.6,0-24.9
			C182-26.6,179.1-26.3,176.9-26.3z"/>
		<path id="Shape_103_" class="st4" d="M205.7,2.1H199c-1.2,0-2.1-0.8-2.1-1.7v-57.7c0-0.9,0.9-1.7,2.1-1.7h6.7
			c1.2,0,2.1,0.8,2.1,1.7V0.4C207.8,1.3,206.8,2.1,205.7,2.1z"/>
		<path id="Shape_104_" class="st3" d="M205.8-60.9c2.3,0.1,4.2,1.6,4.3,3.5c0.3,19.3,0.3,38.6,0,57.9c-0.1,1.8-2,3.4-4.3,3.5
			c-2.9,0-6.1,0.5-8.5-0.2c-1.6-0.5-2.7-1.8-2.8-3.2c-0.3-19.3-0.3-38.6,0-57.9c0.1-1.8,2-3.4,4.3-3.5
			C201.2-60.9,203.5-60.9,205.8-60.9z M199.2-57.1V0.2h6.3v-57.3C203.4-57.1,201.3-57.1,199.2-57.1z"/>
		<path id="Shape_105_" class="st3" d="M244.1,9.8c2.2,0.1,3.3,3.6,0,3.7c-3.9,0-8.9,0.6-8-2.3C236.7,9.3,240.8,9.7,244.1,9.8z"/>
		<path id="Shape_106_" class="st3" d="M229.9,9.8c2.2,0.4,2.9,3.5-0.4,3.7H62.4c-2.4-0.2-3.2-3.5,0-3.7h167.1
			C229.7,9.8,229.8,9.8,229.9,9.8z"/>
		<path id="Shape_107_" class="st6" d="M199.4,21.3h6c1.4,0,2.5,0.9,2.5,2v26.4c0,1.1-1.1,2-2.5,2h-6c-1.4,0-2.5-0.9-2.5-2V23.2
			C196.9,22.1,198,21.3,199.4,21.3z"/>
		<path id="Shape_108_" class="st3" d="M205.5,19.4c2.4,0.1,4.5,1.7,4.6,3.8c0.1,8.8,0,17.7,0,26.5c0,2-2.1,3.8-4.6,3.8
			c-4.9,0-10.7,0.3-10.9-3.8c-0.1-8.8,0-17.7,0-26.5c0-2,2.1-3.8,4.6-3.8C201.3,19.4,203.4,19.4,205.5,19.4z M199.4,23.1
			c-0.1,0-0.2,0-0.2,0.1c-0.1,8.8,0,17.6,0,26.4c0,0.1,0.1,0.1,0.1,0.1c2,0.1,4,0,6,0c0.1,0,0.2,0,0.2-0.1c0.4-8.8,0-17.6,0-26.4
			c0-0.1-0.1-0.1-0.1-0.1C203.4,23.1,201.4,23.1,199.4,23.1z"/>
		<path id="Shape_109_" class="st2" d="M177.9,21.3h5.3c1.6,0,2.8,1,2.8,2.3v15.3c0,1.3-1.3,2.3-2.8,2.3h-5.3c-1.6,0-2.8-1-2.8-2.3
			V23.5C175,22.3,176.3,21.3,177.9,21.3z"/>
		<path id="Shape_110_" class="st3" d="M183.3,19.4c2.6,0.1,4.9,1.9,5,4c0.1,5.1,0,10.3,0,15.4c0,2.1-2.3,4.1-5,4.1
			c-4.7,0-10.4,0.1-10.6-4c-0.1-5.1,0-10.3,0-15.4c0-2.1,2.3-4.1,5-4.1C179.6,19.4,181.4,19.4,183.3,19.4z M177.9,23.1
			c-0.3,0-0.5,0.2-0.5,0.4c-0.2,5.1,0,10.2,0,15.3c0,0.8,3.5,0.6,5.9,0.4c0.2,0,0.4-0.2,0.5-0.4c0.1-5.1,0-10.2,0-15.3
			C183.7,22.7,180.3,23.1,177.9,23.1z"/>
		<path id="Shape_111_" class="st5" d="M155.9,21.3h5.5c1.5,0,2.7,1,2.7,2.2v51.7c0,1.2-1.2,2.2-2.7,2.2h-5.5c-1.5,0-2.7-1-2.7-2.2
			V23.5C153.2,22.2,154.4,21.3,155.9,21.3z"/>
		<path id="Shape_112_" class="st3" d="M161.5,19.4c2.6,0.1,4.8,1.9,4.9,4c0.3,17.3,0,34.5,0,51.8c0,2.1-2.2,4-4.9,4.1
			c-4.8,0-10.4,0.1-10.6-4c-0.3-17.3,0-34.5,0-51.8c0-2.1,2.2-4,4.9-4.1C157.7,19.4,159.6,19.4,161.5,19.4z M155.9,23.1
			c-0.2,0-0.4,0.2-0.4,0.3c-0.3,17.2,0,34.4,0,51.7c0,0.8,3.6,0.6,6,0.4c0.2,0,0.4-0.2,0.4-0.3c0.3-17.2,0-34.4,0-51.7
			C161.8,22.7,158.4,23.1,155.9,23.1z"/>
		<path id="Shape_113_" class="st7" d="M133.9,21.3h5.8c1.4,0,2.6,0.9,2.6,2.1v65.1c0,1.2-1.2,2.1-2.6,2.1h-5.8
			c-1.4,0-2.6-0.9-2.6-2.1V23.3C131.3,22.2,132.4,21.3,133.9,21.3z"/>
		<path id="Shape_114_" class="st3" d="M139.8,19.4c2.5,0.1,4.7,1.8,4.8,3.9c0.3,21.7,0,43.5,0,65.2c0,2-2.2,3.9-4.8,4
			c-4.8,0.1-10.6,0.2-10.8-3.9c-0.3-21.7,0-43.5,0-65.2c0-2.1,2.2-3.9,4.8-4C135.8,19.4,137.8,19.4,139.8,19.4z M133.9,23.1
			c-0.2,0-0.3,0.1-0.3,0.2c-1,21.7,0,43.4,0,65.1c0,0.6,3.6,0.5,6.1,0.2c0.1,0,0.2-0.1,0.2-0.2c0.3-21.7,0-43.4,0-65.1
			C139.9,22.8,136.4,23.1,133.9,23.1z"/>
		<path id="Shape_115_" class="st5" d="M113.1,21.3h6.6c1.2,0,2.2,0.8,2.2,1.8v26.6c0,1-1,1.8-2.2,1.8h-6.6c-1.2,0-2.2-0.8-2.2-1.8
			V23C110.9,22,111.9,21.3,113.1,21.3z"/>
		<path id="Shape_116_" class="st3" d="M119.7,19.4c2.3,0.1,4.3,1.7,4.4,3.6c0.1,8.9,0.1,17.9,0,26.8c-0.1,1.9-2,3.5-4.4,3.6
			c-2.9,0-6.1,0.5-8.3-0.3c-1.6-0.5-2.8-1.9-2.8-3.3c-0.1-8.9-0.1-17.9,0-26.8c0.1-1.9,2.1-3.5,4.4-3.6
			C115.2,19.4,117.5,19.4,119.7,19.4z M113.2,23.1v26.5h6.3V23.1C117.4,23.1,115.3,23.1,113.2,23.1z"/>
		<path id="Shape_117_" class="st4" d="M90.5,21.3H96c1.6,0,3,1.1,3,2.4v15.3c0,1.3-1.3,2.4-3,2.4h-5.5c-1.6,0-3-1.1-3-2.4V23.7
			C87.5,22.3,88.9,21.3,90.5,21.3z"/>
		<path id="Shape_118_" class="st3" d="M96.2,19.4c2.7,0.1,5,1.9,5.1,4.2c0.1,5.1,0,10.3,0,15.4c0,2.2-2.3,4.2-5.1,4.3
			c-4.9,0.1-10.7,0.1-10.9-4.2c-0.1-5.1,0-10.3,0-15.4c0-2.2,2.3-4.2,5.1-4.3C92.3,19.4,94.2,19.4,96.2,19.4z M90.5,23.1
			c-0.4,0-0.7,0.2-0.7,0.5c-0.2,5.1,0,10.2,0,15.3c0,1,3.7,0.7,6.2,0.5c0.3,0,0.6-0.3,0.6-0.5c0.1-5.1,0-10.2,0-15.3
			C96.7,22.7,93.1,23.1,90.5,23.1z"/>
		<path id="Shape_120_" class="st8" d="M35.7-44.5H22.9c-2.6,0-4.7-1.7-4.7-3.8v-10.4c0-2.1,2.1-3.8,4.7-3.8h12.9
			c2.6,0,4.7,1.7,4.7,3.8v10.4C40.4-46.2,38.3-44.5,35.7-44.5"/>
		<path id="Shape_121_" class="st8" d="M35.7-18.1H22.9c-2.6,0-4.7-1.7-4.7-3.8v-10.4c0-2.1,2.1-3.8,4.7-3.8h12.9
			c2.6,0,4.7,1.7,4.7,3.8v10.4C40.4-19.8,38.3-18.1,35.7-18.1"/>
		<path id="Shape_122_" class="st8" d="M35.7,8.4H22.9c-2.6,0-4.7-1.7-4.7-3.8V-5.8c0-2.1,2.1-3.8,4.7-3.8h12.9
			c2.6,0,4.7,1.7,4.7,3.8V4.6C40.4,6.7,38.3,8.4,35.7,8.4"/>
	</g>
	<path id="Shape_130_" class="st3" d="M300.1-128.1c14.9,0.1,28.3,11.6,28.4,25.5v70.5c-0.3,1.2-0.8,1.4-1.3,1.7l-0.8,0.1l-0.8-0.1
		l-0.7-0.4c-0.5-0.6-0.5-0.6-0.6-1.3c0-23.6,0.1-47.1,0-70.7c-0.1-11.1-10.7-21.5-24-21.7c-97.2-0.8-194.4-0.3-291.6,0
		c-14.2,0.1-27,11.2-27,24.3V73.5h342.6v-89.4c0.1-0.5,0.1-1,1.3-1.7l0.8-0.1l0.8,0.1l0.7,0.4c0.5,0.6,0.5,0.6,0.6,1.3v91.2
		l-0.2,0.7l-0.5,0.6l-0.7,0.4l-0.8,0.1H-20.4l-0.8-0.1c-0.7-0.4-0.7-0.4-1.1-1l-0.2-0.7c0-58.5-0.2-117,0-175.5
		c0.1-14.3,13.9-27.7,31.2-27.9C105.8-128.3,203-128.3,300.1-128.1z"/>
	<path id="Shape_127_" class="st8" d="M326.4,75.3v21.4c0,15.2-14,27.4-31.3,27.4H10.8c-17.3,0-31.3-12.3-31.3-27.4V75.3H326.4z"/>
	<path id="Shape_128_" class="st3" d="M327.2,73.6c0.7,0.4,0.7,0.4,1.1,1l0.2,0.7c0,7.2,0,14.4,0,21.6
		c-0.2,15.3-15.2,28.9-33.2,29.1c-94.9,0.3-189.8,0.3-284.7,0c-17.2-0.1-33.1-13-33.2-29.3V75.3l0.2-0.7l0.5-0.6
		c0.7-0.4,0.7-0.4,1.5-0.5h346.8C326.7,73.5,326.9,73.6,327.2,73.6z M-18.3,77.2c0,6.6,0,13.1,0,19.7c0.1,13.1,13,25.3,29,25.4
		c94.9,0.3,189.8,0.3,284.6,0c15.1-0.1,28.9-11.5,29-25.6V77.2C210.1,77.2,95.9,77.2-18.3,77.2z"/>
	<path id="Shape_131_" class="st3" d="M-20.4,73.5c2,0,3.1,3.7,0,3.7c-1.5,0-2.7-1.6-1.8-2.8C-21.8,73.7-20.5,73.5-20.4,73.5z"/>
	<path id="Shape_184_" class="st9" d="M286.2,122.5c0,0,12,0.6,19.5-2c6-2.1,10.9-6.2,14.2-10.3c2.1-2.6,3.3-6.6,3.9-9.1
		c0.3-1.4,0.5-2.9,0.5-4.3V77h-15.9v18.5c0.1,8.9-2.1,18.3-11,23.7C295.5,120.3,292.1,121.5,286.2,122.5"/>
	<path id="Shape_188_" class="st2" d="M161.7,99.4c0,4.5-4.2,8.2-9.3,8.2s-9.3-3.6-9.3-8.2c0-4.5,4.2-8.2,9.3-8.2
		S161.7,94.9,161.7,99.4"/>
	<path id="Shape_189_" class="st3" d="M-4.4,95.9c1.6,0.2,1.4,2.7,2.2,4.5c1.5,3.5,4.3,6.4,7.9,8.4c0,0,0.8,0.6,0.5,1.3
		c-0.6,1.5-3.5-0.2-5.5-1.9c-3.4-2.9-5.7-6.9-6.5-11C-5.8,97.2-5.9,95.8-4.4,95.9z"/>
	<path id="Shape_190_" class="st3" d="M344-90.2c0.6,0,1.2,0.5,1.2,1.1c0.1,2.3,0,4.5,0,6.8c0,1.1-2.4,1.6-2.5,0.1
		c-0.1-2.3,0-4.5,0-6.8C342.7-89.7,343.1-90.2,344-90.2z"/>
	<path id="Shape_191_" class="st3" d="M317.7-142.9c14.4,0.1,27.5,11.4,27.5,24.7v23.1c-0.2,2.3-2.5,1.1-2.5,0c0-7.7,0-15.5,0-23.2
		c-0.1-11.6-11.1-22.3-25.2-22.4h-17c-0.9,0-1-0.3-1.1-0.6c-0.4-0.7,0.2-1.5,1.1-1.6C306.2-142.9,311.9-142.9,317.7-142.9z"/>
</g>
</svg>
